<?xml version="1.0" encoding="utf-8" ?>
<svg baseProfile="full" height="300mm" version="1.1" viewBox="0,0,200,300" width="200mm" xmlns="http://www.w3.org/2000/svg" xmlns:ev="http://www.w3.org/2001/xml-events" xmlns:xlink="http://www.w3.org/1999/xlink"><defs /><rect fill="#222222" height="300" width="200" x="0" y="0" /><text fill="#FFFFFF" style="font-size:12px; font-family:Arial; font-weight:bold;" x="10" y="20">Over 10km Runs</text><text fill="#FFFFFF" style="font-size:4px; font-family:Arial" x="10" y="280">ATHLETE</text><text fill="#FFFFFF" style="font-size:9px; font-family:Arial" x="10" y="290">Zhitao</text><text fill="#FFFFFF" style="font-size:4px; font-family:Arial" x="120" y="280">STATISTICS</text><text fill="#FFFFFF" style="font-size:3px; font-family:Arial" x="120" y="285">Number: 6</text><text fill="#FFFFFF" style="font-size:3px; font-family:Arial" x="120" y="290">Weekly: 1.0</text><text fill="#FFFFFF" style="font-size:3px; font-family:Arial" x="141" y="285">Total: 91.3 km</text><text fill="#FFFFFF" style="font-size:3px; font-family:Arial" x="141" y="290">Avg: 15.2 km</text><text fill="#FFFFFF" style="font-size:3px; font-family:Arial" x="167" y="285">Min: 10.3 km</text><text fill="#FFFFFF" style="font-size:3px; font-family:Arial" x="167" y="290">Max: 20.9 km</text><polyline fill="none" points="69.35714852949604,57.58757960278308 64.56422155385371,34.93248831821256 64.0221643364057,34.0 48.530739647569135,34.82887865306111 47.81750646664295,36.072192191379145 45.13574970641639,36.14126500938437 43.794871326419525,35.036097946285736 33.29607890360057,35.55414553140872 33.29607890360057,38.938700318161864 29.672854344709776,39.38766890444094 30.47167550737504,65.59932252686122 36.29165826330427,65.7029212017951 37.06195009883959,69.4324488620623 36.890774135361426,75.37196800997481 30.899615415837616,75.95900690424605 31.327555324300192,85.38599822300603 37.489890007302165,85.455059300235 37.71812462527305,98.05843068429385 38.03194722475018,98.57636574309436 45.56368961499538,98.64542368098046 46.1057468324434,105.93094381224364 57.118067145347595,106.0 56.6330685823923,105.82735949981725 56.775715218507685,98.74901055707596 64.76392684457824,98.43824981770013 64.62128020846285,89.84040404751431 65.24892540753353,89.1498029724462 65.24892540753353,87.66500509509933 62.167758066090755,87.11252022444387 62.082170084351674,85.38599822300603 70.44126296439208,85.17881489242427 70.24155767390039,78.96324618111248 67.70244754978921,77.20214417102397 67.53127158642747,76.47698141264846 68.30156342172995,74.54320519606699 67.93068216764368,73.92163153193542 66.2474518608069,73.71444001462078 65.30598406202625,72.98926853886223 64.96363213530276,71.60798452293966 65.36304271651898,69.2252541387279 63.023637883132324,64.56333374246606 63.25187250110321,60.10853981145192 64.90657348069362,59.86680485069519 65.4201013710117,57.24224088178016 64.96363213530276,56.13715421198867 63.56569510069676,54.790324141155 64.99216146231629,53.650693812494865 68.33009274897631,52.96000658581033 64.67833886283915,38.28251421111054 64.45010424498469,34.55258603184484 63.90804702742025,34.0 49.81455937307328,34.6216592118144 48.10279973899014,34.86341521219583 47.9886824300047,35.726827854290605 47.50368386693299,35.86497363843955 45.05016172467731,35.726827854290605 43.794871326419525,35.00156140764011 33.695489484933205,35.48507257353049 33.15343226748519,35.93404650586308 33.23902024922427,38.800555997906486 29.558737035724334,39.456740933062974 29.872559635317884,51.68223088103696 30.300499543896876,53.167212926462526 33.23902024922427,53.167212926462526 36.09195297281258,54.03057108624489 39.943412149557844,53.40895347026526 41.826347747119144,54.6521873701422 42.99605016375426,53.92696824276936 45.53516028774902,54.82485832378734 46.84750934049953,54.168708153330954 47.38956655806396,52.44199008651776 48.78750359255355,51.820369066350395 51.86867093399633,51.06060823262669 54.52189836697653,51.820369066350395 59.57158928771969,49.575615402747644 59.970999868935905,50.85340038713184 61.31187824904919,50.50805364912958 62.68128595629241,51.71676543352078 64.73539751721546,51.54409262974514 67.3600956229493,50.54258834148641 68.07332880387548,51.85490360247786 70.0133230559295,61.00641075934982 69.47126583836507,59.970405572792515 67.303036968573,61.66254546382697 64.53569222672377,62.66401136218337 63.337460482725874,62.59494485956384 63.394519137218595,60.0394727003586 64.76392684457824,59.728670496930135 65.39157204364892,57.00050353247207 64.96363213530276,55.92994999271468 63.50863644620404,54.790324141155 64.76392684457824,53.68522813072195 66.70392109651584,53.13267854665173 66.04774657008238,51.33688512968365 66.53274513303768,50.85340038713184 67.61685956816655,50.715261741308495 67.90215284051374,51.12967748160008 69.32861920224968,57.79478263796773" stroke="#4dd2ff" stroke-linecap="round" stroke-linejoin="round" stroke-width="0.5"><title>2020-10-18 13.0km</title></polyline><polyline fill="none" points="154.29820819210727,103.62482946531964 156.0948868575506,103.5913762159762 156.28837532934267,103.2233902096923 156.3989401703002,96.63301381745259 164.3596087191254,96.36538105510408 164.1937614576891,87.83445326526999 164.80186808295548,87.46644663420739 164.80186808295548,85.92750459403032 161.7613349566236,85.45912925736047 161.70605253614485,83.78635382774519 169.83256834640633,83.55216447330895 169.77728592592757,77.59699818742229 168.56107267539483,77.16206536922255 167.3172182147391,75.45578396847122 167.78711878869217,73.14726911720936 167.1790121634258,72.57850167772267 165.65874560037628,72.51158778555691 164.96771534439176,71.97627607561299 164.52545598044526,69.86847630733973 164.96771534439176,68.16215063264826 162.67349489452317,63.14348567032721 162.97754820715636,59.29578184580896 164.52545598044526,59.128489180322504 165.02299776487052,56.45179298997391 164.66366203175858,55.347648384893546 163.17103667883202,54.21004031554912 164.80186808295548,52.97204983152915 167.78711878869217,52.436700906284386 163.97263177565765,34.26769215115928 148.30006557016168,34.7026913529844 148.21714193944354,35.907301012892276 145.64650938729756,36.07460750170867 144.67906702891923,36.10806878758012 144.15388403448742,34.903459988272516 134.61766650201753,35.43884231429547 133.70550656400155,35.67307176129543 134.03720108687412,38.751497776363976 130.16743165347725,39.38725546945352 131.27308006293606,64.7160103317583 136.6354748493759,64.74946820776677 137.60291720775422,67.72720321570523 137.63055841811,74.25134380278178 131.54949216544628,74.68628112459555 132.15759879071265,83.8532650359557 138.0728177818237,84.15436527630663 138.2110238330206,95.62938964509522 138.68092440697365,96.76683010309353 145.67415059753694,96.80028416452114 146.3098984330427,98.84097438552999 146.22697480232455,103.49101644384791 147.22205837094225,105.16367463566712 151.78285806032363,106.0 153.49661309516523,105.83273512611049 155.43149781192187,104.96295617800206 156.42658138053957,103.55792296252912 156.5371462214971,96.73337603759137 164.22140266781207,96.49919746813248 164.02791419625282,88.40318983842735 164.16612024744973,87.66717758352752 164.80186808295548,87.46644663420739 164.77422687259968,85.9609599453106 161.87189979758114,85.55949546658667 161.788976166863,83.81980943385861 169.77728592592757,83.51870883526863 169.66672108497005,77.59699818742229 168.69927872659173,77.2289781542786 167.34485942486208,75.68998006815673 167.70419515797403,73.08035536049283 166.98552369175013,72.34430298570078 165.63110439002048,72.41121691762237 164.77422687259968,71.70861983826035 164.4978147703223,70.23650597722735 165.02299776487052,68.39635280915536 162.56293005356565,63.277317899046466 162.9222657866776,59.1619477213535 164.41489113960415,59.02811353324796 164.99535655463114,56.41833412623964 164.58073840092402,55.21381238044705 163.17103667883202,54.109662911854684 164.66366203175858,52.871671985747525 167.7318363682134,52.30286351562245 163.94499056541827,34.36807664207299 162.23123553069308,34.0 149.59920245152898,34.56884551641997 148.1618595190812,34.80307568851276 147.88544741668738,35.9742236204911 144.67906702891923,36.00768491823692 143.98803677293472,34.86999855894828 134.03720108687412,35.40538094876683 133.70550656400155,35.63961042356095 133.70550656400155,38.751497776363976 130.19507286371663,39.38725546945352 131.07959159149323,64.61563668010058 136.4696275879396,64.74946820776677 137.3817875259556,68.0617782115005 137.43706994631793,74.01714650451322 131.63241579616442,74.41862746776314 131.964110319037,83.75289821767365 137.79640567942988,83.95363181861467 138.3215886739781,96.5661056508543 145.75707422825508,96.73337603759137 145.95056269993074,103.4241099091887 147.24969958118163,105.0967684990319 151.810499270563,105.43129902286455 155.45913902216125,104.86259689548751 156.3712989600608,103.18993691253127 156.48186380090192,96.86719227547292 158.19561883585993,96.59955973611795" stroke="#4dd2ff" stroke-linecap="round" stroke-linejoin="round" stroke-width="0.5"><title>2020-10-31 16.1km</title></polyline><polyline fill="none" points="55.012682117987424,184.34851972170873 56.43294205155689,183.9103702766297 56.600031455396675,176.96729630214395 63.72917935694568,176.96729630214395 64.34184050466865,176.56284014534322 64.23044756881427,168.3050673402904 64.87095695047174,167.73207009086036 64.87095695047174,166.28271893243073 61.946892381529324,165.676011594187 61.72410650970414,164.0244128110935 69.85579083452467,163.8895879954216 69.85579083452467,157.82240486051887 67.43299447756726,155.83368877111934 67.68362858355977,153.20451725131716 64.95450165239163,152.15958333059098 64.59247461066116,151.01352233899524 64.95450165239163,148.45172217543586 62.643098231288604,143.19321765337372 62.977277039201,139.28298432196607 64.64817107853014,139.04702023832942 65.12159105634782,136.55253075543442 64.84310871653724,135.60866413958138 63.255759379127994,134.22656806133455 64.81526048248634,133.0467246082262 67.90641445538495,132.5410759091901 64.20259933476336,116.76438288122881 64.00766169675626,114.23598495821352 48.32910596067086,114.67424221590045 48.10632008861285,115.92158608240425 46.01770253945142,116.09014564286917 44.68098730791826,116.12385754295974 43.92908499017358,114.97765068925219 33.903720753849484,115.41590679885121 33.51384547795169,115.6518905768753 33.653086647973396,118.98935437577893 30.004967995220795,119.25904670203454 30.923959717038088,144.84493792575086 36.49360651499592,144.87864640250336 37.32905353454407,148.28318187844707 37.27335706667509,154.41798406266025 31.369531460804865,154.78876455119462 31.92649614054244,164.12553138076328 37.886018214398064,164.19294374037418 37.91386644844897,176.2594976486871 38.387286426266655,176.96729630214395 45.71137196547352,177.10211489276844 45.90630960348062,183.9103702766297 46.908846026984975,185.32592757992097 47.939230684773065,185.6966676094744 53.286091610672884,185.02259446762037 55.04053035215475,185.2585202496848 56.600031455396675,183.77555492642568 56.65572792349849,177.33804727191455 61.000052425893955,176.86618231708417 61.61271357361693,177.84361599409021 61.91904414747842,177.0684102511441 64.42538520670496,176.8324776473164 64.23044756881427,168.70953528911923 64.89880518452264,167.96801027512993 64.95450165239163,166.45124851792934 61.946892381529324,165.84454154071864 61.946892381529324,164.26035608403618 70.02288023859728,163.75476311554667 69.77224613260478,157.88981872057775 68.54692383715883,157.28309340277337 67.37729800958186,155.86739593974198 67.73932505142875,153.37305461932556 67.23805683956016,152.8000271586934 65.78994867217261,152.69890454530832 64.81526048248634,151.72138408734463 64.95450165239163,148.3843060687068 62.42031235934701,142.9572568280273 62.83803586929571,139.65378462770605 64.36968873860314,139.41782085291925 64.81526048248634,137.05817229126114 64.64817107853014,135.84463108849013 63.00512527313549,134.42882644530619 64.25829580274876,133.38382323927362 67.71147681749426,132.743335497129 64.70386754651554,120.57379311410477 63.70133112289477,114.67424221590045 63.20006291102618,114.20227283335407 60.22030187421478,114.10113643467776 48.80252593837213,114.7079542845895 48.022775386692956,114.91022661223542 47.88353421667125,115.95529800260556 44.68098730791826,116.12385754295974 43.67845088429749,114.94393865269376 33.73663134989329,115.55075469618896 33.73663134989329,118.95564281693078 30.004967995220795,119.39389276897418 30.868263248936273,144.94606334369746 36.46575828094501,144.94606334369746 37.21766059868969,148.1820576521859 37.38475000264589,151.7550917455519 37.21766059868969,154.6202280256839 31.42522792890668,154.75505725416588 31.815103204571642,164.15923756259144 37.71892881044187,164.29406224991544 38.08095585228875,176.76506829587743 38.35943819221575,177.10211489276844 45.57213079556823,177.0684102511441 45.85061313549522,183.9103702766297 46.85314955911599,185.3596312390291 47.716444812715054,185.83148204538156 50.86329525359906,186.0 55.31901269196533,185.46074219222646 56.4050938176224,183.5733317808481 56.4607902856078,177.16952416399727 58.99497957865242,177.0347056055616 59.77473013033159,177.54027486906853 61.41777593572624,177.4728656860534 61.44562416966073,177.87732054345543 61.668410041718744,177.10211489276844 64.39753697265405,176.89988698274828 64.28614403668325,168.54100704737357 64.89880518452264,167.9005988140416 64.92665341845714,166.48495442298008 61.91904414747842,165.94565946049988 61.86334767960943,164.19294374037418 69.85579083452467,163.78846934158355 69.80009436665569,157.9572325645131 68.65831677312963,157.4179213635507 67.26590507361107,155.79998159833485 67.62793211545795,153.30563968417118 64.89880518452264,152.12587572052144 64.59247461066116,151.11464555430575 65.01019812037703,148.21576573167113 62.698794699274,143.76626455361838 62.9215805712156,139.45152997566038 64.53677814255934,139.18185688159429 65.06589458847884,136.4851118158549 64.81526048248634,135.60866413958138 63.20006291102618,134.29398753866553 64.42538520670496,133.21527397399768 67.82286975346506,132.47365601433557 63.89626876078546,114.37083341742982 63.03297350706998,114.0 48.273409492569044,114.67424221590045 47.994927152758464,115.85416223009815 46.21264017734211,116.09014564286917 44.70883554185275,115.98900991876144 44.096174394129775,115.07878677477129 43.455665012355894,114.97765068925219 33.597390179988,115.58446666045347 33.70878311584238,118.82079654137488 29.97711976140272,119.32646974359523 30.561932675074786,137.09188169476693" stroke="#ff0000" stroke-linecap="round" stroke-linejoin="round" stroke-width="0.5"><title>2020-11-08 20.9km</title></polyline><polyline fill="none" points="157.10193871473894,182.38426062902727 154.81768942053895,182.43447965450468 154.48543497768696,181.93228886433644 155.33683698729146,181.3296583431802 156.37513212114573,181.17900044473936 156.7073865638813,180.02395299385535 156.10517538629938,178.71823958885216 154.50620088039432,177.56317870758357 153.9455215081107,176.15700912567263 154.15318053483497,173.47019483495387 153.28101262263954,173.4953054068319 153.28101262263954,173.14375712981564 154.31930775626097,171.48645024345024 156.1882389971288,171.21023116713332 158.5763178046327,172.18955171979906 158.38942468049936,171.21023116713332 157.16423642274458,171.2855636782333 156.54125934257172,171.76266895918525 153.6547988706734,171.71244740131078 153.21871491451748,171.3608961625141 149.77157507045195,171.637115042191 148.71251403412316,171.41111780385836 148.46332320198417,171.86311203913647 147.1966031389311,172.0388873143529 146.59439196134917,171.23534200713038 140.38538706151303,171.56178265619383 140.26079164550174,174.87638226986746 139.2224965117639,175.78035497253586 138.74488075019326,175.75524467184732 138.62028533418197,168.14668632787652 139.26402831706218,167.94579659216106 139.36785783048254,167.56912782364816 138.68258304218762,165.8113313720678 138.35032859933563,157.95129146629188 138.59951943147462,138.08643865439808 137.97654235118534,118.29507165354153 138.28803089132998,114.02511763162329 137.76888332446106,114.0 137.72735151916277,117.59179103872157 137.9142446431797,118.79741351796838 138.7656466529006,118.79741351796838 137.12514034158085,120.85700268839719 137.7896492271684,122.64028930626228 137.9142446431797,130.4765255440143 137.43662888172548,130.62721954961307 137.37433117360342,131.25511008425383 137.9142446431797,131.63184351041855 138.0388400593074,132.4606546862051 138.05960596189834,144.01344206210342 137.9557764485944,144.54083686230297 136.9382472175639,144.81709075684194 137.16667214687914,145.3695974634902 137.89347874058876,145.49516696837964 138.05960596189834,147.52938256318157 138.1634354753187,165.73599691207346 137.22896985488478,165.8113313720678 137.16667214687914,166.31356041965773 138.1634354753187,166.58978588774335 138.22573318332434,175.5292518313072 140.09466442407575,175.4288104914449 140.11543032666668,172.71687629402732 140.42691886681132,172.2648838823079 144.41397218045313,172.08910879481118 145.90911717305426,172.44065882381983 148.71251403412316,171.8128905051417 153.1771831092192,171.91333356121322 154.09088282682933,176.30767059921345 152.57497193163726,178.71823958885216 152.90722637437284,180.1746117145376 152.7203332503559,181.00323276106792 153.26024671981577,181.75652180622274 154.9215189338429,181.58075460215332 156.54125934257172,179.49664662698342 154.85922122583725,177.8142794354644 153.9455215081107,177.21163718799653 153.28101262263954,177.23674731592473 152.5542060289299,178.7935694273765 152.8864604717819,180.24994103469362 152.69956734776497,181.05345211416716 153.80016018939205,182.3089320686122 158.5763178046327,182.35915111190116 158.86704044207,183.2128730242257 163.06175278231967,183.4137482678634 162.62566882616375,184.5687772186211 161.44201237370726,186.0 160.29988772654906,185.6484724942129" stroke="#4dd2ff" stroke-linecap="round" stroke-linejoin="round" stroke-width="0.5"><title>2020-12-18 10.3km</title></polyline><polyline fill="none" points="34.625095003284514,217.39320941240294 37.464904295513406,214.76421641852357 37.55364833585918,211.92059454575065 36.621835911879316,210.74021795071894 38.13048459845595,208.27214784148964 40.92592187062837,210.52560369341518 40.92592187062837,212.5107816879172 42.07959439558908,215.2470938284241 44.96377570810728,215.72997072266298 48.06981712183915,218.0906947843323 49.97781398985535,217.87608401526813 47.803585000569,217.7687785924645 45.141263789031655,215.8372766293469 41.547130153281614,214.81786948945955 40.92592187062837,210.95483210627572 37.64239237643778,207.09176172336447 35.60127944755368,198.61435271266964 33.293934397399426,194.0 31.874029751168564,194.10731106303865 30.63161318562925,195.50235256445012 28.72361631761305,200.063035131403 28.324268135707825,203.7115480673383 28.72361631761305,205.05290571643854 30.36538106459193,205.64310182179906 31.652169650187716,209.93541396045475 34.669467023340985,209.39887717110105 37.8642524771858,212.18886152395862 38.219228638801724,214.97882866422879 33.11644631670788,218.68087387410924 33.42705045780167,222.75845381550607 34.71383904363029,224.68992621882353 39.81662136595696,227.90902856050525 41.68024621391669,231.1817591188301 43.72135914280079,238.10270148402196 43.67698712251149,247.491407501715 46.20619227341376,252.7489977455698 48.202933182241395,254.89493538439274 48.513537323568016,257.68463909442653 50.998370454413816,260.3670302822429 52.2851590400096,264.60517593767145 54.281899948837236,265.62447086782777 58.23100974597037,265.5708238235675 60.98207499785349,264.28329285085783 64.39872055267915,253.98291313197115 66.35108944121748,252.69534917417332 71.5869878239464,251.8369711661362 72.43005620781332,250.2275080102263 71.76447590463795,247.86695168886217 70.0339671173133,247.491407501715 69.01341065275483,248.02789910224965 65.37490499694832,246.31112374120858 64.62058065366,244.05784619096084 62.89007186610252,242.9312032062153 61.64765530079603,239.01475575813674 61.64765530079603,236.33223793673096 59.251566210296005,230.91350340674398 56.766733079683036,230.05508405866567 51.264602575451136,230.48429393651895 49.75595388910733,229.67952508159215 49.97781398985535,227.31886151316576 54.32627196889371,225.011837484024 55.43557247356512,222.91941016417695 55.25808439287357,221.36349639392574 51.752694797702134,218.68087387410924 48.469165303511545,218.412610746891 45.93996015237644,216.37380577984732 42.16833843593486,215.03248170987354 41.10340995131992,210.95483210627572 38.08611257839948,207.89657077443553 35.867511568591,199.41917685166118 34.31449086172506,197.433941384661 33.73765459936112,194.6438659960986 32.140261872438714,194.26827760969172 30.232265004189685,196.41449275769992 28.76798833766952,200.00938030981342 28.901104398304597,205.32117676909547 30.720357226207852,206.12598897118005 31.962773791747168,210.418296526419 34.44760692236014,209.66714564530412 37.81988045712933,212.56443502620095 37.952996517531574,215.2470938284241 32.983330256072804,219.32470473015564 33.07207429641858,223.1876706178591 34.00388672039844,224.582622412825 39.50601722439751,228.28458900775877 41.05903793126345,230.69889872247586 43.45512702153064,239.71220778560382 43.233266920782626,247.75965338153765 47.936701061204076,255.4850664503756 48.424793283455074,258.3284144302015 50.377162171760574,260.9035066108918 51.88581085810438,265.0880001382902 56.234268837142736,266.0 60.93770297779702,264.28329285085783 61.78077136143111,260.2060872594593 63.60002418910153,257.416399100679 63.60002418910153,254.73399041467928 65.37490499694832,253.66102248619427 68.34783034981228,253.9292647067923 71.80884792516008,252.10521446858183 72.25256812688895,250.81764516580733 70.92140752123669,248.83263530943077 71.23201166233048,248.0815482272301 64.35434853262268,246.57937032086193 61.425795199815184,240.7852088047075 60.893330957507715,235.6884312920447 58.23100974597037,230.64524753554724 55.52431651414372,229.9477815257269 50.155302070779726,230.75254990303074 48.469165303511545,229.67952508159215 48.55790934385732,227.80172551822034 54.32627196889371,224.31436278647743 55.124968332471326,221.95367121280287 50.998370454413816,218.51991601692862 48.02544510154985,218.412610746891 44.919403687817976,216.2665000006673 41.36964207235724,215.30074684211286 40.704061769647524,210.95483210627572 37.50927631580271,207.73560907886713 35.512535407207906,199.47283174327458 33.69328257907182,197.00470013759332 33.33830641768873,194.3755886090512 31.696541670477018,194.26827760969172 30.187892983900383,195.77062928295345 27.569943792419508,202.69211359275505 28.14678005501628,206.17964306715294 30.14352096361108,210.52560369341518 30.67598520591855,215.72997072266298" stroke="#4dd2ff" stroke-linecap="round" stroke-linejoin="round" stroke-width="0.5"><title>2021-03-07 10.3km</title></polyline><polyline fill="none" points="157.20409897703212,258.9007476961124 164.92074254516046,258.6939707490965 164.72141964850016,249.56117500166874 165.4048124369001,249.18207159420126 165.34786303783767,247.83797369577223 162.35801958898082,247.3210113045934 162.30107018980198,245.3910102234513 170.38788485177793,245.42547464123345 168.73635228001513,243.80564257025253 169.22042217163835,241.97901255689794 168.10990889067762,241.91008289685124 167.93906069349032,241.46203970644274 169.22042217163835,238.42911372784874 167.8821112944279,236.63691526366165 168.42313058522996,234.39665158520802 165.54718593438156,233.3282120344811 165.09159074223135,231.98404054844286 165.54718593438156,229.22674617770826 163.1553111752728,224.1946162666718 163.49700756941456,220.12748846033355 165.0061666436959,219.989618719992 165.632610032917,217.37008118027006 165.4332871363731,216.40498242815374 163.69633046607487,214.9573282681231 165.14854014117736,213.75094427223667 168.4800799842924,213.1305162598146 165.31938833836466,199.89440191860194 164.55057145142928,194.4825871241046 164.09497625927906,194.13788211753126 148.51931562530808,195.03411428071558 148.23456863022875,196.1716357228579 146.0704914671369,196.34398706656066 144.6467564915074,196.34398706656066 143.820990205626,195.1030551015283 133.5700983806746,195.72352174893604 133.48467428213917,198.9981848023308 129.6121151483385,199.58417323083268 130.32398263621144,213.23392102084472 133.19992728705984,213.16498451755615 136.41756833205,214.06115777988452 139.86300697317347,213.5096668698534 140.546399761457,213.75094427223667 140.7172479586443,214.4747752729454 140.66029855969828,234.15539138609893 139.9484310717089,235.4995527928404 131.12127422250342,235.63741514843423 131.4629706167616,245.45993905499927 137.58503101207316,245.52886787013267 137.95520210580435,258.1425648354634 138.43927199754398,258.59058222029125 145.6718456739327,258.5561193691683 145.78574447205756,265.13844953183434 146.18439026526175,266.0 156.32138329208829,265.86215209728107 156.7769784842385,258.76289641452604 159.2542773418827,258.5561193691683 160.45021472149529,259.2453756130708 160.10851832735352,258.5561193691683 164.72141964850016,258.4182679235237 164.6075208503753,249.49224714635056 165.20548954012338,249.18207159420126 165.23396423982922,247.6656530011678 162.30107018980198,247.01083342684433 162.21564609126654,245.42547464123345 167.59736429946497,245.35654580159462 167.62583899893798,244.4949339206214 168.4800799842924,243.70224872627296 169.04957397456747,241.91008289685124 167.82516189548187,241.6688289574231 167.76821249653585,240.77274113695603 169.9322896595113,238.7393007974606 167.71126309747342,236.80924252103432 168.2807570877485,234.32772012022906 165.54718593438156,233.22481444940786 165.06311604264192,231.43258377467282 165.66108473250642,229.70927458791994 163.1553111752728,224.4358847652038 163.49700756941456,220.12748846033355 165.06311604264192,219.989618719992 165.54718593438156,217.54241990463925 165.34786303783767,216.23264302677126 163.69633046607487,214.8539241227263 164.80684374715202,213.8888169832353 168.36618118628394,213.16498451755615 164.52209675195627,194.68940993092838 163.46853286994155,194.10341159437667 148.83253731997684,194.82729172008112 148.17761923116632,195.0685846931592 148.06372043315787,195.99928427653504 146.32676376285963,196.1716357228579 144.73218059004284,196.03375457396032 143.96336370310746,194.96517344363383 133.5700983806746,195.58564038670738 133.42772488319315,198.9981848023308 129.86838744406123,199.4807635943289 130.29550793673843,213.33732574494206 133.5416236812016,213.26838926639175 136.38909363246057,214.09562592679868 139.77758287463803,213.5441350824549 140.60334916051943,213.81988063591416 140.7741973575903,214.40583906514803 140.68877325917128,226.2970921396918 136.53146713005845,226.77962543210015 137.2433346180478,228.98548167105764 137.15791051951237,235.4306215904944 131.12127422250342,235.8097430006601 131.43449591717217,245.35654580159462 137.6704551106086,245.45993905499927 137.8413033077959,257.7290097112709 138.32537319953553,258.4182679235237 145.81421917164698,258.5561193691683 146.15591556567233,265.7587661272555 153.0752675475087,265.3452218779712 156.43528209009673,265.79322812132887 156.86240258277394,264.69044227560516 156.91935198171996,258.76289641452604 159.42512553895358,258.48719365458237 160.59258821897674,259.17645006236853 160.33631592337042,258.5216565139708 164.89226784557104,258.48719365458237 164.7783690475626,251.21543860906968 165.46176183584612,247.59672469471116 162.5288677859353,247.2176187155419 162.41496898792684,245.45993905499927 167.6827883980004,245.21868807289866 169.22042217163835,241.91008289685124 168.10990889067762,241.70329381816555 167.96753539296333,240.94506593322149 170.07466315699276,238.80823121228605 167.99601009255275,236.87817339526373 168.42313058522996,234.29325438168598 165.66108473250642,233.05248505878262 165.26243893930223,231.7427783391613 165.66108473250642,229.36461151976255 163.29768467287067,224.4358847652038 163.66785576648545,220.0585535983846 165.09159074223135,219.74834651648416 165.71803413145244,217.232210126851 165.51871123490855,216.2671109153016 163.83870396355633,214.8194560658594 165.14854014117736,213.7164760841988 168.45160528470296,213.0615797319333 164.52209675195627,194.3102346721862 163.98107746103778,194.0 148.46236622624565,194.79282127905753 148.1206698322203,195.93034366928623 145.84269387112,196.27504654147197 146.8962577531347,205.4784614526725 149.51593010826036,207.4431975253392 150.45559519226663,211.47603506004089 152.16407716309186,211.0968817867979 154.12883142952342,211.95859305321937 154.95459771552123,211.82071942303446 159.68139783467632,209.7526070898748 161.38987980550155,213.8888169832353" stroke="#ff0300" stroke-linecap="round" stroke-linejoin="round" stroke-width="0.5"><title>2021-03-14 20.7km</title></polyline></svg>