<?xml version="1.0" encoding="utf-8" ?>
<svg baseProfile="full" height="300mm" version="1.1" viewBox="0,0,200,300" width="200mm" xmlns="http://www.w3.org/2000/svg" xmlns:ev="http://www.w3.org/2001/xml-events" xmlns:xlink="http://www.w3.org/1999/xlink"><defs /><rect fill="#222222" height="300" width="200" x="0" y="0" /><text fill="#FFFFFF" style="font-size:12px; font-family:Arial; font-weight:bold;" x="10" y="20">Over 10km Runs</text><text fill="#FFFFFF" style="font-size:4px; font-family:Arial" x="10" y="280">ATHLETE</text><text fill="#FFFFFF" style="font-size:9px; font-family:Arial" x="10" y="290">Zhitao</text><text fill="#FFFFFF" style="font-size:4px; font-family:Arial" x="120" y="280">STATISTICS</text><text fill="#FFFFFF" style="font-size:3px; font-family:Arial" x="120" y="285">Number: 5</text><text fill="#FFFFFF" style="font-size:3px; font-family:Arial" x="120" y="290">Weekly: 1.0</text><text fill="#FFFFFF" style="font-size:3px; font-family:Arial" x="141" y="285">Total: 107.2 km</text><text fill="#FFFFFF" style="font-size:3px; font-family:Arial" x="141" y="290">Avg: 21.4 km</text><text fill="#FFFFFF" style="font-size:3px; font-family:Arial" x="167" y="285">Min: 10.6 km</text><text fill="#FFFFFF" style="font-size:3px; font-family:Arial" x="167" y="290">Max: 46.6 km</text><polyline fill="none" points="55.90559518977534,106.0 57.58744754153304,105.51469586149324 57.91235083679203,104.49786422176112 57.35810403898358,102.81083638293785 56.00115498248488,102.23308376412024 55.25578859937377,100.63847764358798 55.77181147993542,99.39051592095348 55.31312447495293,98.16565682496002 55.46602014335804,96.98701155437448 56.30694631917868,96.73279301186267 56.8803050754359,97.1025653276156 57.243432287708856,96.75590380217182 57.93146279535722,96.82523615659738 58.1034704222111,97.44922623610182 58.54304546874482,97.70344384347845 58.657717219903134,97.28745122220425 59.479531437275,97.37989410376758 59.61331514723133,96.73279301186267 58.90617268101778,96.36301999400894 58.007910629501566,96.75590380217182 55.71447560435627,96.84834693591984 54.98822117969394,94.93014291877626 54.85443746985402,93.15058735848288 53.93706345988903,93.01192000853189 53.822391708614305,93.49725530130672 54.070847169612534,96.80212537449552 50.496910922112875,96.80212537449552 50.01911195856519,97.28745122220425 49.40752928517759,97.35678338748403 48.681274860398844,96.36301999400894 44.419308105367236,96.82523615659738 43.04324709030334,96.68657142299344 42.813903587753884,100.33804314484587 41.76274586794898,100.52292596818006 41.4187306141248,100.29182241165836 41.34228277998045,92.66525120176084 41.59073824097868,91.83324354782235 41.361394738429226,90.97812086610065 41.47606648970395,82.8195994499547 41.13205123599619,73.18147226757719 41.571626282529905,71.97956204127695 41.20849907014053,71.67908332549268 41.227611028705724,61.69368070438213 40.88359577488154,61.416301098652184 41.18938711157534,60.12185771338409 41.74363390938379,59.752015165257035 41.01737948472146,57.67163774078654 41.265834945836104,54.75907199674111 41.074715360300615,44.194876599736745 41.76274586794898,42.946553052650415 41.18938711157534,42.80784994208079 41.03649144328665,41.1896396826487 41.15116319456138,34.0 40.539580521173775,34.23118225742655 40.38668485276867,37.46770502871368 40.768924023606814,100.222491291177 40.826259899302386,100.43048457849363 42.69923183647916,100.36115350738692 42.75656771217473,97.86521851175348 43.90328522468917,97.24122976505896 46.999422508641146,97.24122976505896 48.06969218712766,97.54166904081649 50.11467175115831,97.28745122220425 50.42046308796853,96.96390079146659 53.00057749124244,96.98701155437448 54.52953417471144,97.07945457844471 55.04555705527309,97.42611552802555 55.48513210180681,96.7096822187741 55.122004889533855,96.47857413747988 54.91177334554959,95.5541390699218 54.85443746985402,93.95947826522752 54.663317884434946,94.19058933584893 55.00733313825913,94.97636492441234 54.52953417471144,96.91767925750173 55.141116848099045,100.66158797050593 54.797101594274864,100.9851322586328 52.771233988692984,101.28556575924449 51.58629255904816,100.8464704866492 51.89208389562555,102.00198223676125 54.47219829901587,101.7015498411929 54.60598200885579,102.46418501735025 54.01351129403338,103.34236727871757 54.30019067216199,103.94322654459393" stroke="#4dd2ff" stroke-linecap="round" stroke-linejoin="round" stroke-width="0.5"><title>2020-08-13 10.6km</title></polyline><polyline fill="none" points="118.10819949280994,60.85847792322238 118.14877430260822,60.8353730500221 118.10312764157425,60.81886955477603 118.250211327133,59.950768789252834 118.32375316991238,59.82203619125903 118.33389687235467,59.68009940360207 118.32121724428725,59.75932004568858 118.29585798816697,59.7296123373053 118.33896872359037,59.77252345915622 118.24006762467616,59.75932004568858 118.29078613693127,59.7692226065119 118.24006762467616,59.75932004568858 118.30346576501324,59.72631147842549 118.29078613693127,59.686701134338364 118.17159763313248,59.980476208180335 118.24513947591186,60.28414981605965 118.23499577345501,60.34686451152993 118.20202874048846,60.32705988957059 118.23753169906558,60.35346604834376 118.17159763313248,60.716547616375465 118.12087912087736,60.77596041095603 118.18174133558932,60.73635189850938 118.16906170750735,60.79246393740141 118.16652578191133,60.76275758115116 118.12595097209851,60.79246393740141 118.15384615384392,60.845275141418824 117.37024513947836,61.09942734231481 117.2713440405787,61.205048199200974 117.27387996617472,61.26115907953135 117.47928994083486,61.28756415168937 117.4894336432626,61.218250771753446 117.43364327978634,61.26115907953135 117.50211327134457,61.310668564639855 118.09298393913195,60.52840607429607 118.15891800507961,60.551511259944164 118.18174133558932,60.48879712989037 118.33389687235467,60.45248887013258 118.28317836009955,60.48549638139775 118.31614539306611,60.53500755830828 118.33643279796524,60.492097877893684 118.298393913763,60.5713156860711 118.31107354183041,60.4755941330659 118.3313609467441,60.53170681654592 118.40236686389835,60.393075228894304 117.90025359255378,61.07632271436705 117.79881656804355,61.13903522124019 117.9129332206212,60.99710666857209 118.12848689770908,60.881582772910406 118.32121724428725,60.8353730500221 118.34150464918639,60.86838000453827 118.34150464918639,60.828771653368676 118.4505494505429,60.86838000453827 118.34657650042209,60.822170254785306 118.28317836009955,60.84857583759731 118.31614539306611,60.907988286611726 118.39475908706663,60.845275141418824 118.51394759086543,60.87828208153405 118.59002535925538,60.78256182297628 118.46576500422088,60.50860161073615 118.41758241757634,60.64063104144407 118.4733727810526,60.709946185157605 118.250211327133,60.81226815330774 118.30853761621984,60.845275141418824 118.26542688081099,60.92119103193545 118.36179205410008,60.84197444477468 118.38968723584549,60.86507931125561 118.3643279796961,60.931093085893735 118.298393913763,60.99710666857209 118.11834319525224,61.03671472602218 118.16398985630076,61.07962337693425 118.12341504650249,61.102728001527794 118.07523245984339,60.983903967395236 118.13355874893023,60.72314904567611 118.17159763313248,60.693442598711044 118.17666948435362,60.729750473050444 118.13863060016592,60.7066454688229 118.12848689770908,60.73965261052399 118.21470836855588,60.77265970422195 118.10566356719937,60.93769445280668 118.24006762467616,61.03671472602218 118.35164835164323,61.04331606221422 118.36686390532122,60.9674005801171 118.40997464074462,60.96079922185709 118.50380388842314,61.05981939428784 118.61792054098623,61.07632271436705 118.98309382924344,60.84197444477468 119.01352493659942,60.742953322056565 118.92730346576718,60.43268434033598 118.92730346576718,60.51190235586 118.92730346576718,60.462391128550735 118.96027049873373,60.51850384467616 119.00845308537828,60.439285852186 119.04902789517655,60.49869937247422 119.18850380387448,60.54821052058105 119.16821639897535,60.610924486496515 119.06677937446511,60.6670368354371 119.0819949281431,60.825470954319826 119.08706677936425,60.65383394228593 119.18596787826391,60.5779171576105 119.04395604394085,60.53830829959952 118.91462383769976,60.38977446649005 119.08706677936425,60.043191742692215 119.09467455621052,59.90455717141231 119.01606086221,59.901256337967425 119.0972104818211,59.828637880704264 119.13017751478765,59.89135383474604 119.02366863904172,59.977175385780356 118.96787827556545,59.957370441263265 118.94505494505574,59.87815049040728 118.98055790363287,59.94416713531791 118.98309382924344,59.88145132720638 118.98562975485402,59.934264650821206 118.99830938293599,59.888052999382126 119.17836010144674,59.871548815344795 119.23668639053358,59.77582431132578 119.24683009297587,59.828637880704264 119.0972104818211,59.86164629917039 118.98816568046459,59.73621405364793 119.0972104818211,59.58767497169356 119.16821639897535,59.56126792203031 119.24683009297587,59.35661224539581 119.19864750634588,59.27078834795611 119.07185122570081,59.3269040099276 119.01098901098885,59.25428371508133 118.91715976331034,59.23777907021213 118.8689771766658,59.18166318789554 118.9070160608535,59.026518555911025 118.83854606932437,58.9571982711841 118.67878275571275,58.983606023663015 118.75486052408814,58.99350892292205 118.749788672867,59.033120476742624 118.7878275570547,58.990207956981976 118.73710904479958,59.02981951656511 118.70160608622245,58.983606023663015 118.69653423498676,59.08923672632045 118.70414201181848,58.68321602616561 118.70414201181848,59.17836224931307 118.68385460691934,59.000110853350634 118.73964497041015,59.09583862891668 118.63567202028935,59.15525566584802 118.54184277261083,59.369815893123814 118.48605240912002,59.283992045600826 118.29585798816697,59.208070679207594 118.38968723584549,59.15855660777743 118.85122569737723,59.08923672632045 118.749788672867,59.08923672632045 118.79543533388642,58.99350892292205 118.82840236685297,59.01331470847799 118.8588334742235,58.94399438341861 118.89433643280063,58.96049924192448 118.8588334742235,58.88457679343628 118.79036348266527,58.914285607870625 118.83854606932437,58.87137286342477 118.85122569737723,58.9175865848556 118.82840236685297,58.87797482939277 118.82333051563182,58.9175865848556 118.78021978022298,58.901081695148605 118.80557903634326,58.96049924192448 118.81825866441068,58.914285607870625 118.79797125949699,58.60399162801514 118.90448013524292,58.6006906054281 118.82079459002125,58.63370080972345 118.87658495349751,58.62379775347654 118.86136939983408,58.6634099525545 119.03634826710913,58.75583814818128 118.96280642434431,58.88457679343628 119.07692307692196,58.88457679343628 119.00845308537828,58.76244014776421 118.9729501267866,58.82846003784289 119.01606086221,58.930790487973354 119.20879120878817,59.1387509489723 119.25697379543271,59.34670950456166 119.17328825019649,59.498551055930875 119.249366018601,59.402824978842546 119.19103972949961,59.26088556966897 118.88926458156493,59.194866937386905 118.89940828402177,58.95059632826269 118.78021978022298,58.83506201630007 118.63313609466422,58.788848126836456 118.45562130176404,58.87137286342477 118.37700760777807,58.96710118195733 118.32375316991238,58.94399438341861 118.37193575654237,58.87797482939277 118.30600169060926,58.9373924366555 118.27303465764271,59.010013745410106 118.39983093828778,59.125547166828255 118.4125105663552,59.26748742233758 118.50380388842314,59.32030217453939 118.50633981403371,59.37971862387349 118.45308537615347,59.39292225816098 118.59002535925538,59.66359506835761 118.68131868130877,59.69990459003748 118.79797125949699,59.66689593637966 118.73710904479958,60.046492555495206 118.66610312763078,60.138915119168814 118.50126796279801,60.162020701287474 118.44801352493232,60.290751371107035 118.53677092138969,60.462391128550735 118.69907016061188,60.53170681654592 118.6407438715105,60.64393176737758 118.71174978866475,60.52840607429607 118.65849535081361,60.52510533157147 118.69653423498676,60.53830829959952 118.64327979713562,60.650533217793054 118.67878275571275,60.54821052058105 118.66863905324135,60.5779171576105 118.64327979713562,60.53830829959952 118.65849535081361,60.56801494959109 118.70921386305417,60.48549638139775 118.62045646661136,60.60762375576451 118.67878275571275,60.53830829959952 118.64835164834221,60.624127404602405 118.59002535925538,60.6604353898183 118.6407438715105,60.551511259944164 118.74218089602073,60.51190235586 118.76754015215556,60.54160904040509 118.6635672020202,60.66373611287054 118.73203719357844,60.544909780739545 118.63567202028935,60.584518627230864 118.66103127640963,60.5152031005 118.46576500422088,60.20163021591179 118.51141166525485,60.08940307828561 118.65849535081361,60.03659011563832 118.72189349112159,60.07619984914163 118.80557903634326,60.006882770150696 118.79036348266527,59.937565479467594 118.71428571428987,59.950768789252834 118.69399830937618,59.871548815344795 118.49873203720199,59.86164629917039 118.49619611157686,59.802231111378205 118.34657650042209,59.92106133143898 118.30600169060926,59.83193872471384 118.26035502958985,59.92106133143898 118.29585798816697,59.950768789252834 118.30092983938812,59.86494713838147 118.26289095520042,59.86824797710506 118.06762468301167,60.026687671455875 117.83431952662067,59.9936794930054 117.82671174978896,60.105907103910795 117.85967878275551,60.03328930139833 117.95857988165517,60.013484405841155 118.00422654268914,60.06299661232697 117.9940828402323,60.274247479877886 117.9408284023666,60.333661432143344 117.95857988165517,60.06299661232697 117.81403212172154,60.59772156070176 117.76077768385585,61.485601213900736 117.66948436178791,61.967484181974214 115.88419273034378,61.81565914507519 115.22992392223387,61.713341699640296 114.15976331361162,61.647330199790304 114.02789518173086,61.76285019856368 114.0,62.036795274269025 117.57058326288825,65.2545773151669 119.84530853760953,67.3566153175343 120.81656804733211,68.20463521947568 121.96534234995488,69.0691209684137 124.01944209636713,70.52085506802541 124.10566356719937,70.59673861678493 124.21217244293075,70.82108849555516 124.49366018596629,70.85408093789738 125.234150464923,71.35556016138253 125.49535080304486,71.59969735531195 125.7007607776759,71.91311287941608 125.91631445477833,71.75805521323855 127.62299239222193,70.98934945044675 127.95773457310861,70.88377409502209 131.50549450548715,69.1912021821172 131.52831783599686,69.10541545185151 131.44463229078974,68.87444956744184 130.88672865595436,67.64039203965513 132.00253592561057,67.20482631281811 132.03550295857713,67.34341631390998 132.2003381234099,67.50840330767642 132.23584108200157,67.61729406692757 132.29670329669898,67.53810083924873 132.23076923076587,67.5414005625862 132.1420118343085,67.44570839124572 132.07607776838995,67.33351705617679 132.08622147083224,67.1883274468164 132.2003381234099,67.07283504922088 132.52493660185428,66.92104414764617 132.44885883347888,66.90124525959254 132.09890109889966,67.05963588066334 132.05071851225512,67.0431369091857 131.26965342350013,65.54168032133566 131.21386306002387,65.53178027810827 131.22400676246616,65.60768049922444 131.12003381234535,65.7000804259751 130.78021978022298,65.88487915149562 130.3313609467441,66.00037759120278 128.92899408284575,66.57786097783537 128.34065934065438,65.39977928924418 128.26965342350013,65.12257471478733 128.12256973794138,65.11927463993743 127.31360946744098,65.51858021375301 126.9788672865543,65.58458045878615 126.93322062552033,65.67368048527533 127.03972950126627,65.72648033599216 127.23753169906558,65.55158036024659 129.37785291631008,64.57145556773321 130.1310228233342,64.29094068497398 131.86052409128752,64.64405885514861 133.16398985630076,64.8519669848356 134.33051563819754,65.12257471478733 135.61369399831165,65.4954800826672 138.0938292476785,65.99377769618695 140.51310228231887,66.58776056498937 140.85291631444125,66.77585190106583 141.12172442940937,67.33021730263499 141.3702451394638,67.48530520071108 141.6035502958548,67.45560760008993 141.9078613693855,67.19162722097826 142.09298393913195,67.09593357573067 142.44801352493232,67.04973649921521 142.98562975485402,67.0761348401611 144.9332206255349,67.47210627188906 146.80726965342183,67.73608339063685 148.45815722738917,68.07264976684928 149.72104818258958,68.23103221795827 150.5934065934125,68.40591155792208 152.04649196956598,68.83485517998633 153.25612848688615,69.26379070078474 156.1090448013565,70.36908720995416 160.45815722738917,71.81743912534148 161.72612003381073,72.29910289838699 162.47675401520974,72.44755885159793 165.56804733727768,73.35806747547758 171.65426880810992,75.08001662579045 172.38207945899921,75.16907941140016 176.24175824175472,74.82931950292368 176.90870667793206,74.84581281970713 177.28148774303554,75.0305371495997 177.47421808959916,75.19216970624439 178.64581572273164,76.61382694534586 179.31530008451955,76.48518876724665 179.7869822485227,76.43241391939227 180.0,76.45220450169836 180.750633981399,76.17843324972637 181.47083685544203,76.05309109377231 181.59002535925538,76.16523937113016 181.63060016905365,76.2806855490453 181.76246830093442,77.26030522419205 181.84361792053096,76.92387494576906 181.84868977176666,76.98654370847726 181.95266272188746,77.02942223600076 183.26627218935755,76.92057658504928 183.8216398985678,77.03931726932205 183.8469991546881,77.2141288142193 183.7125950972113,78.54990848406487 183.74556213017786,78.67523686841014 183.69230769231217,78.81705499606505 183.69737954353332,78.8896127656626 183.75570583262015,78.92589156357826 183.6694843617879,79.56900609557488 183.64158918005705,80.21540031234326 185.04649196956598,80.40337885337794 185.1859678782639,80.37699599403823 185.39137785292405,80.4165702715527 185.4116652578232,80.38359171174307 185.49788672865543,80.50890998445539 185.42941673711175,81.16517070769623 185.53338968723256,81.21463682840658 185.57396449704538,81.10581122072108 185.5283178360114,81.22123230303805 185.65004226542078,81.33665279922207 185.57903634826653,81.32675963680776 185.9340659340669,81.39930939457008 186.0,81.35973682812983 185.98732037193258,81.3927139716161 185.89856297547522,81.34984367575635 185.98732037193258,81.3927139716161 185.99239222316828,81.33005735808729" stroke="red" stroke-linecap="round" stroke-linejoin="round" stroke-width="0.5"><title>2020-10-04 46.6km</title></polyline><polyline fill="none" points="69.35714852949604,137.58757960278308 64.56422155385371,114.93248831821256 64.0221643364057,114.0 48.530739647569135,114.82887865306111 47.81750646664295,116.07219219137914 45.13574970641639,116.14126500938437 43.794871326419525,115.03609794628574 33.29607890360057,115.55414553140872 33.29607890360057,118.93870031816186 29.672854344709776,119.38766890444094 30.47167550737504,145.59932252686122 36.29165826330427,145.7029212017951 37.06195009883959,149.4324488620623 36.890774135361426,155.3719680099748 30.899615415837616,155.95900690424605 31.327555324300192,165.38599822300603 37.489890007302165,165.455059300235 37.71812462527305,178.05843068429385 38.03194722475018,178.57636574309436 45.56368961499538,178.64542368098046 46.1057468324434,185.93094381224364 57.118067145347595,186.0 56.6330685823923,185.82735949981725 56.775715218507685,178.74901055707596 64.76392684457824,178.43824981770013 64.62128020846285,169.8404040475143 65.24892540753353,169.1498029724462 65.24892540753353,167.66500509509933 62.167758066090755,167.11252022444387 62.082170084351674,165.38599822300603 70.44126296439208,165.17881489242427 70.24155767390039,158.96324618111248 67.70244754978921,157.20214417102397 67.53127158642747,156.47698141264846 68.30156342172995,154.543205196067 67.93068216764368,153.92163153193542 66.2474518608069,153.71444001462078 65.30598406202625,152.98926853886223 64.96363213530276,151.60798452293966 65.36304271651898,149.2252541387279 63.023637883132324,144.56333374246606 63.25187250110321,140.10853981145192 64.90657348069362,139.8668048506952 65.4201013710117,137.24224088178016 64.96363213530276,136.13715421198867 63.56569510069676,134.790324141155 64.99216146231629,133.65069381249486 68.33009274897631,132.96000658581033 64.67833886283915,118.28251421111054 64.45010424498469,114.55258603184484 63.90804702742025,114.0 49.81455937307328,114.6216592118144 48.10279973899014,114.86341521219583 47.9886824300047,115.7268278542906 47.50368386693299,115.86497363843955 45.05016172467731,115.7268278542906 43.794871326419525,115.00156140764011 33.695489484933205,115.48507257353049 33.15343226748519,115.93404650586308 33.23902024922427,118.80055599790649 29.558737035724334,119.45674093306297 29.872559635317884,131.68223088103696 30.300499543896876,133.16721292646253 33.23902024922427,133.16721292646253 36.09195297281258,134.0305710862449 39.943412149557844,133.40895347026526 41.826347747119144,134.6521873701422 42.99605016375426,133.92696824276936 45.53516028774902,134.82485832378734 46.84750934049953,134.16870815333095 47.38956655806396,132.44199008651776 48.78750359255355,131.8203690663504 51.86867093399633,131.0606082326267 54.52189836697653,131.8203690663504 59.57158928771969,129.57561540274764 59.970999868935905,130.85340038713184 61.31187824904919,130.50805364912958 62.68128595629241,131.71676543352078 64.73539751721546,131.54409262974514 67.3600956229493,130.5425883414864 68.07332880387548,131.85490360247786 70.0133230559295,141.00641075934982 69.47126583836507,139.97040557279252 67.303036968573,141.66254546382697 64.53569222672377,142.66401136218337 63.337460482725874,142.59494485956384 63.394519137218595,140.0394727003586 64.76392684457824,139.72867049693014 65.39157204364892,137.00050353247207 64.96363213530276,135.92994999271468 63.50863644620404,134.790324141155 64.76392684457824,133.68522813072195 66.70392109651584,133.13267854665173 66.04774657008238,131.33688512968365 66.53274513303768,130.85340038713184 67.61685956816655,130.7152617413085 67.90215284051374,131.12967748160008 69.32861920224968,137.79478263796773" stroke="#4dd2ff" stroke-linecap="round" stroke-linejoin="round" stroke-width="0.5"><title>2020-10-18 13.0km</title></polyline><polyline fill="none" points="154.29820819210727,183.62482946531964 156.0948868575506,183.5913762159762 156.28837532934267,183.2233902096923 156.3989401703002,176.6330138174526 164.3596087191254,176.36538105510408 164.1937614576891,167.83445326526999 164.80186808295548,167.4664466342074 164.80186808295548,165.92750459403032 161.7613349566236,165.45912925736047 161.70605253614485,163.7863538277452 169.83256834640633,163.55216447330895 169.77728592592757,157.5969981874223 168.56107267539483,157.16206536922255 167.3172182147391,155.45578396847122 167.78711878869217,153.14726911720936 167.1790121634258,152.57850167772267 165.65874560037628,152.5115877855569 164.96771534439176,151.976276075613 164.52545598044526,149.86847630733973 164.96771534439176,148.16215063264826 162.67349489452317,143.1434856703272 162.97754820715636,139.29578184580896 164.52545598044526,139.1284891803225 165.02299776487052,136.4517929899739 164.66366203175858,135.34764838489355 163.17103667883202,134.21004031554912 164.80186808295548,132.97204983152915 167.78711878869217,132.4367009062844 163.97263177565765,114.26769215115928 148.30006557016168,114.7026913529844 148.21714193944354,115.90730101289228 145.64650938729756,116.07460750170867 144.67906702891923,116.10806878758012 144.15388403448742,114.90345998827252 134.61766650201753,115.43884231429547 133.70550656400155,115.67307176129543 134.03720108687412,118.75149777636398 130.16743165347725,119.38725546945352 131.27308006293606,144.7160103317583 136.6354748493759,144.74946820776677 137.60291720775422,147.72720321570523 137.63055841811,154.25134380278178 131.54949216544628,154.68628112459555 132.15759879071265,163.8532650359557 138.0728177818237,164.15436527630663 138.2110238330206,175.62938964509522 138.68092440697365,176.76683010309353 145.67415059753694,176.80028416452114 146.3098984330427,178.84097438553 146.22697480232455,183.4910164438479 147.22205837094225,185.16367463566712 151.78285806032363,186.0 153.49661309516523,185.8327351261105 155.43149781192187,184.96295617800206 156.42658138053957,183.55792296252912 156.5371462214971,176.73337603759137 164.22140266781207,176.49919746813248 164.02791419625282,168.40318983842735 164.16612024744973,167.66717758352752 164.80186808295548,167.4664466342074 164.77422687259968,165.9609599453106 161.87189979758114,165.55949546658667 161.788976166863,163.8198094338586 169.77728592592757,163.51870883526863 169.66672108497005,157.5969981874223 168.69927872659173,157.2289781542786 167.34485942486208,155.68998006815673 167.70419515797403,153.08035536049283 166.98552369175013,152.34430298570078 165.63110439002048,152.41121691762237 164.77422687259968,151.70861983826035 164.4978147703223,150.23650597722735 165.02299776487052,148.39635280915536 162.56293005356565,143.27731789904647 162.9222657866776,139.1619477213535 164.41489113960415,139.02811353324796 164.99535655463114,136.41833412623964 164.58073840092402,135.21381238044705 163.17103667883202,134.10966291185468 164.66366203175858,132.87167198574753 167.7318363682134,132.30286351562245 163.94499056541827,114.36807664207299 162.23123553069308,114.0 149.59920245152898,114.56884551641997 148.1618595190812,114.80307568851276 147.88544741668738,115.9742236204911 144.67906702891923,116.00768491823692 143.98803677293472,114.86999855894828 134.03720108687412,115.40538094876683 133.70550656400155,115.63961042356095 133.70550656400155,118.75149777636398 130.19507286371663,119.38725546945352 131.07959159149323,144.61563668010058 136.4696275879396,144.74946820776677 137.3817875259556,148.0617782115005 137.43706994631793,154.01714650451322 131.63241579616442,154.41862746776314 131.964110319037,163.75289821767365 137.79640567942988,163.95363181861467 138.3215886739781,176.5661056508543 145.75707422825508,176.73337603759137 145.95056269993074,183.4241099091887 147.24969958118163,185.0967684990319 151.810499270563,185.43129902286455 155.45913902216125,184.8625968954875 156.3712989600608,183.18993691253127 156.48186380090192,176.86719227547292 158.19561883585993,176.59955973611795" stroke="#4dd2ff" stroke-linecap="round" stroke-linejoin="round" stroke-width="0.5"><title>2020-10-31 16.1km</title></polyline><polyline fill="none" points="55.012682117987424,264.3485197217087 56.43294205155689,263.9103702766297 56.600031455396675,256.96729630214395 63.72917935694568,256.96729630214395 64.34184050466865,256.5628401453432 64.23044756881427,248.3050673402904 64.87095695047174,247.73207009086036 64.87095695047174,246.28271893243073 61.946892381529324,245.676011594187 61.72410650970414,244.0244128110935 69.85579083452467,243.8895879954216 69.85579083452467,237.82240486051887 67.43299447756726,235.83368877111934 67.68362858355977,233.20451725131716 64.95450165239163,232.15958333059098 64.59247461066116,231.01352233899524 64.95450165239163,228.45172217543586 62.643098231288604,223.19321765337372 62.977277039201,219.28298432196607 64.64817107853014,219.04702023832942 65.12159105634782,216.55253075543442 64.84310871653724,215.60866413958138 63.255759379127994,214.22656806133455 64.81526048248634,213.0467246082262 67.90641445538495,212.5410759091901 64.20259933476336,196.7643828812288 64.00766169675626,194.23598495821352 48.32910596067086,194.67424221590045 48.10632008861285,195.92158608240425 46.01770253945142,196.09014564286917 44.68098730791826,196.12385754295974 43.92908499017358,194.9776506892522 33.903720753849484,195.4159067988512 33.51384547795169,195.6518905768753 33.653086647973396,198.98935437577893 30.004967995220795,199.25904670203454 30.923959717038088,224.84493792575086 36.49360651499592,224.87864640250336 37.32905353454407,228.28318187844707 37.27335706667509,234.41798406266025 31.369531460804865,234.78876455119462 31.92649614054244,244.12553138076328 37.886018214398064,244.19294374037418 37.91386644844897,256.2594976486871 38.387286426266655,256.96729630214395 45.71137196547352,257.10211489276844 45.90630960348062,263.9103702766297 46.908846026984975,265.325927579921 47.939230684773065,265.6966676094744 53.286091610672884,265.02259446762037 55.04053035215475,265.2585202496848 56.600031455396675,263.7755549264257 56.65572792349849,257.33804727191455 61.000052425893955,256.86618231708417 61.61271357361693,257.8436159940902 61.91904414747842,257.0684102511441 64.42538520670496,256.8324776473164 64.23044756881427,248.70953528911923 64.89880518452264,247.96801027512993 64.95450165239163,246.45124851792934 61.946892381529324,245.84454154071864 61.946892381529324,244.26035608403618 70.02288023859728,243.75476311554667 69.77224613260478,237.88981872057775 68.54692383715883,237.28309340277337 67.37729800958186,235.86739593974198 67.73932505142875,233.37305461932556 67.23805683956016,232.8000271586934 65.78994867217261,232.69890454530832 64.81526048248634,231.72138408734463 64.95450165239163,228.3843060687068 62.42031235934701,222.9572568280273 62.83803586929571,219.65378462770605 64.36968873860314,219.41782085291925 64.81526048248634,217.05817229126114 64.64817107853014,215.84463108849013 63.00512527313549,214.42882644530619 64.25829580274876,213.38382323927362 67.71147681749426,212.743335497129 64.70386754651554,200.57379311410477 63.70133112289477,194.67424221590045 63.20006291102618,194.20227283335407 60.22030187421478,194.10113643467776 48.80252593837213,194.7079542845895 48.022775386692956,194.91022661223542 47.88353421667125,195.95529800260556 44.68098730791826,196.12385754295974 43.67845088429749,194.94393865269376 33.73663134989329,195.55075469618896 33.73663134989329,198.95564281693078 30.004967995220795,199.39389276897418 30.868263248936273,224.94606334369746 36.46575828094501,224.94606334369746 37.21766059868969,228.1820576521859 37.38475000264589,231.7550917455519 37.21766059868969,234.6202280256839 31.42522792890668,234.75505725416588 31.815103204571642,244.15923756259144 37.71892881044187,244.29406224991544 38.08095585228875,256.7650682958774 38.35943819221575,257.10211489276844 45.57213079556823,257.0684102511441 45.85061313549522,263.9103702766297 46.85314955911599,265.3596312390291 47.716444812715054,265.83148204538156 50.86329525359906,266.0 55.31901269196533,265.46074219222646 56.4050938176224,263.5733317808481 56.4607902856078,257.16952416399727 58.99497957865242,257.0347056055616 59.77473013033159,257.5402748690685 61.41777593572624,257.4728656860534 61.44562416966073,257.8773205434554 61.668410041718744,257.10211489276844 64.39753697265405,256.8998869827483 64.28614403668325,248.54100704737357 64.89880518452264,247.9005988140416 64.92665341845714,246.48495442298008 61.91904414747842,245.94565946049988 61.86334767960943,244.19294374037418 69.85579083452467,243.78846934158355 69.80009436665569,237.9572325645131 68.65831677312963,237.4179213635507 67.26590507361107,235.79998159833485 67.62793211545795,233.30563968417118 64.89880518452264,232.12587572052144 64.59247461066116,231.11464555430575 65.01019812037703,228.21576573167113 62.698794699274,223.76626455361838 62.9215805712156,219.45152997566038 64.53677814255934,219.18185688159429 65.06589458847884,216.4851118158549 64.81526048248634,215.60866413958138 63.20006291102618,214.29398753866553 64.42538520670496,213.21527397399768 67.82286975346506,212.47365601433557 63.89626876078546,194.37083341742982 63.03297350706998,194.0 48.273409492569044,194.67424221590045 47.994927152758464,195.85416223009815 46.21264017734211,196.09014564286917 44.70883554185275,195.98900991876144 44.096174394129775,195.0787867747713 43.455665012355894,194.9776506892522 33.597390179988,195.58446666045347 33.70878311584238,198.82079654137488 29.97711976140272,199.32646974359523 30.561932675074786,217.09188169476693" stroke="#ffb600" stroke-linecap="round" stroke-linejoin="round" stroke-width="0.5"><title>2020-11-08 20.9km</title></polyline></svg>