<?xml version="1.0" encoding="utf-8" ?>
<svg baseProfile="full" height="300mm" version="1.1" viewBox="0,0,200,300" width="200mm" xmlns="http://www.w3.org/2000/svg" xmlns:ev="http://www.w3.org/2001/xml-events" xmlns:xlink="http://www.w3.org/1999/xlink"><defs /><rect fill="#222222" height="300" width="200" x="0" y="0" /><text fill="#FFFFFF" style="font-size:12px; font-family:Arial; font-weight:bold;" x="10" y="20">Over 10km Runs</text><text fill="#FFFFFF" style="font-size:4px; font-family:Arial" x="10" y="280">ATHLETE</text><text fill="#FFFFFF" style="font-size:9px; font-family:Arial" x="10" y="290">Zhitao</text><text fill="#FFFFFF" style="font-size:4px; font-family:Arial" x="120" y="280">STATISTICS</text><text fill="#FFFFFF" style="font-size:3px; font-family:Arial" x="120" y="285">Number: 3</text><text fill="#FFFFFF" style="font-size:3px; font-family:Arial" x="120" y="290">Weekly: 1.0</text><text fill="#FFFFFF" style="font-size:3px; font-family:Arial" x="141" y="285">Total: 50.0 km</text><text fill="#FFFFFF" style="font-size:3px; font-family:Arial" x="141" y="290">Avg: 16.7 km</text><text fill="#FFFFFF" style="font-size:3px; font-family:Arial" x="167" y="285">Min: 13.0 km</text><text fill="#FFFFFF" style="font-size:3px; font-family:Arial" x="167" y="290">Max: 20.9 km</text><polyline fill="none" points="76.77679209562484,61.03602705310914 71.38474924815819,35.54904935800005 70.7749348784564,34.5 53.34708210348617,35.43248848468647 52.54469477490056,36.83121621530154 49.5277184197912,36.9089231355465 48.01923024223652,35.665610189549625 36.208088766550645,36.248413722845726 36.208088766550645,40.05603785792482 32.13196113775484,40.56112751745968 33.030634945840575,70.04923784272978 39.57811554626096,70.16578635200858 40.444693861179985,74.36150496982737 40.252120902296156,81.04346401122166 33.512067342875525,81.7038827672659 33.993499739910476,92.30924800087814 40.926126258214936,92.3869417127571 41.18289020343218,106.56573451982695 41.535940627916716,107.14841146097751 50.009150816942565,107.22610164110665 50.61896518652793,115.4223117887741 63.007825538516045,115.5 62.46220215514768,115.30577943730168 62.6226796208648,107.34263687671046 71.60941770009231,106.99303104489809 71.4489402344916,97.32045455343905 72.15504108346067,96.54352834401652 72.15504108346067,94.87313073198311 68.68872782436665,94.25158525249572 68.59244134498294,92.30924800087814 77.99642083491199,92.0761667539773 77.77175238309428,85.08365195375518 74.91525349358562,83.10241219238378 74.7226805347018,82.28660408922588 75.5892588495044,80.11110584554262 75.17201743868645,79.41183547343826 73.27838334348053,79.17874501645565 72.21923206979409,78.3629271062382 71.83408615225926,76.80898258832167 72.2834230561275,74.12841090603615 69.65159261855297,68.88375046028523 69.90835656377021,63.87210728786886 71.76989516580943,63.60015545701026 72.3476140423445,60.64752099200268 71.83408615225926,59.40429848848726 70.26140698825475,57.88911465878482 71.86618164519314,56.60703053904581 75.6213543425547,55.830007409036625 71.5131312207086,39.31782848748844 71.25636727560777,35.121659285825444 70.64655290590599,34.5 54.79137929470744,35.199366613291204 52.86564970633481,35.471342113713035 52.73726773378439,36.44268133607693 52.19164435029961,36.59809534321539 49.43143194029108,36.44268133607693 48.01923024223652,35.6267565836024 36.657425670535304,36.17070664520725 36.04761130094994,36.675802319077775 36.14389778045006,39.900625497626606 32.00357916520443,40.63883354968857 32.35662958980538,54.39250974115566 32.838061986956745,56.06311454225215 36.14389778045006,56.06311454225215 39.353447094443254,57.03439247200731 43.686338668339886,56.3350726540375 45.80464121547993,57.733710791391786 47.1205564342672,56.91783927308279 49.97705532365944,57.927965614246204 51.45344800804742,57.18979667246458 52.06326237786561,55.24723884733976 53.635941541637294,54.54791519965511 57.102254800731316,53.693184261675924 60.08713566279039,54.54791519965511 65.768037948641,52.022567328065634 66.21737485262565,53.460075435519684 67.72586303018034,53.07156035528169 69.26644670090172,54.43136111271451 71.5773222069256,54.237104208470555 74.53010757581796,53.110411884175846 75.33249490440357,54.58676655276213 77.51498843787704,64.88221210424672 76.90517406817526,63.716706269362476 74.46591658960097,65.62036364679807 71.35265375499148,66.74701278243447 70.00464304315392,66.66931296698749 70.06883402948733,63.794406787870685 71.60941770009231,63.44475430902094 72.3155185491778,60.37556647401652 71.83408615225926,59.17119374178583 70.19721600192133,57.88911465878482 71.60941770009231,56.64588164704037 73.79191123356577,56.02426336496137 73.05371489131358,54.003995770879555 73.59933827468194,53.460075435519684 74.81896701420192,53.30466945897206 75.13992194551975,53.77088716678554 76.74469660257455,61.269130467728246" stroke="#4dd2ff" stroke-linecap="round" stroke-linejoin="round" stroke-width="0.5"><title>2020-10-18 13.0km</title></polyline><polyline fill="none" points="149.83548421610612,112.82793314845185 151.85674771480262,112.79029824293684 152.07442224549595,112.37631398587837 152.19880769157317,104.9621405446087 161.15455980901606,104.66105368695571 160.96798163990024,95.06375992338872 161.65210159332491,94.64975246344693 161.65210159332491,92.91844266824774 158.23150182620157,92.39152041453053 158.16930910316296,90.50964805617696 167.31163938972168,90.2461850324471 167.24944666668307,83.54662296082824 165.88120675983373,83.05732354035717 164.4818704915233,81.13775696451194 165.01050863729324,78.54067775682779 164.32638868386857,77.90081438742345 162.6160888003651,77.82553625872242 161.83867976244073,77.22331058504642 161.34113797801547,74.85203584571718 161.83867976244073,72.93241946169292 159.25768175639678,67.28642137910356 159.5997417330509,62.95775457652053 161.34113797801547,62.7695503278519 161.90087248547934,59.75826711367699 161.4966197856702,58.51610443298705 159.81741626362782,57.23629535496002 161.65210159332491,55.84355606045574 165.01050863729324,55.241288519551745 160.7192107476294,34.801153670036 143.08757376647554,35.29052777207107 142.99428468197584,36.64571363947471 140.10232306073885,36.83393343939679 139.01395040750504,36.87157738598762 138.4231195388129,35.516392486781115 127.69487481471151,36.1186976035533 126.6686948845163,36.38220573143917 127.04185122274794,39.84543499839492 122.68836061016191,40.560662403091555 123.93221507081762,69.05551162318443 129.96490920556244,69.09315173371579 131.05328185879625,72.44310361763928 131.08437822037376,79.7827617781004 124.24317868612707,80.2720662651409 124.92729863955174,90.58492316544289 131.5819200045662,90.92366093583405 131.7374018121045,103.83306335072848 132.26603995787445,105.1126838659402 140.13341942219995,105.15031968505355 140.84863573720213,107.44609618367394 140.755346652586,112.67739349929616 141.87481566728093,114.5591339650855 147.00571531790774,115.5 148.93368973198812,115.31182701684884 151.11043503845576,114.33332570022321 152.22990405303426,112.75266333279433 152.3542894992279,105.07504804225755 160.99907800136134,104.81159715162357 160.78140347078443,95.70358856819803 160.93688527843915,94.87557478144299 161.65210159332491,94.64975246344693 161.6210052317474,92.95607993844897 158.35588727227878,92.50443239987362 158.26259818777908,90.54728561305092 167.24944666668307,90.20854743965901 167.12506122060586,83.54662296082824 166.03668856748845,83.13260042355978 164.5129668529844,81.40122757665813 164.91721955279354,78.46539978054352 164.10871415329166,77.63734085889882 162.5849924387876,77.71261903227423 161.6210052317474,76.9221973179956 161.3100416166708,75.26606922433712 161.90087248547934,73.19589691027068 159.13329631020315,67.43698263639817 159.5375490100123,62.80719118649722 161.21675253205467,62.65662772487849 161.86977612390183,59.720625891990494 161.40333070105407,58.36553892795928 159.81741626362782,57.123370775807416 161.4966197856702,55.730630983947776 164.94831591425464,55.090721455053426 160.6881143861683,34.914086222299375 158.76013997208793,34.5 144.549102757941,35.139951205957914 142.93209195893724,35.40346014953684 142.6211283437442,36.721001573023386 139.01395040750504,36.75864553297288 138.23654136958066,35.47874837878044 127.04185122274794,36.08105356732267 126.6686948845163,36.344561726466054 126.6686948845163,39.84543499839492 122.71945697173942,40.560662403091555 123.71454054035712,68.94259126507677 129.77833103644662,69.09315173371579 130.80451096664183,72.81950048793806 130.86670368968043,79.51928981757374 124.33646777074318,79.97095590119716 124.7096241088584,90.47201049485011 131.27095638937317,90.69783579590148 131.86178725829814,104.88686885716743 140.22670850681607,105.07504804225755 140.44438303739298,112.60212364781182 141.90591202885844,114.48386456136359 147.03681167936884,114.86021140069352 151.14153139991686,114.22042150737252 152.16771133011207,112.33867902657948 152.29209677607287,105.22559130986338 154.22007119038608,104.92450470311451" stroke="#4dd2ff" stroke-linecap="round" stroke-linejoin="round" stroke-width="0.5"><title>2020-10-31 16.1km</title></polyline><polyline fill="none" points="60.63926738279406,263.6420846869005 62.23705980810337,263.1491665611975 62.42503538739402,255.33820833990467 70.44532677659299,255.33820833990467 71.13457056786865,254.88319516350748 71.0092535149306,245.59320075780852 71.72982656932436,244.94857885219972 71.72982656932436,243.31805879899184 68.44025392935146,242.63551304346765 68.18961982347537,240.7774644124729 77.33776468900032,240.62578649484203 77.33776468900032,233.80020546808373 74.61211878736503,231.56289986750926 74.89408215647563,228.60508190773544 71.82381435902789,227.4295312469185 71.41653393709566,226.14021263137693 71.82381435902789,223.25818744738353 69.22348551021423,217.34236986006727 69.59943666914478,212.9433573622082 71.47919246344827,212.67789776812424 72.01178993855137,209.87159709984553 71.69849730608985,208.80974715703633 69.91272930148989,207.25488906900864 71.66716804297175,205.92756518427632 75.14471626235172,205.3587103978207 70.97792425157968,187.60993074136786 70.7586194089381,184.76548307799385 53.120244205812924,185.25852249289164 52.869610099704005,186.66178434269386 50.51991535699926,186.85141384822782 49.016110721509904,186.8893397358479 48.17022061406169,185.59985702540143 36.891685848124325,186.09289514870034 36.453076162724756,186.35837689897744 36.609722479013726,190.11302367274766 32.505588994710706,190.41642753980705 33.5394546816824,219.20055516649154 39.80530732939951,219.23847720280173 40.74518522643484,223.06857961326023 40.682526700082235,229.97023207051097 34.04072289343458,230.38736012010486 34.6673081581248,240.8912228033587 41.37177049124148,240.9670617079246 41.403099754592404,254.54193485475844 41.93569722957909,255.33820833990467 50.17529346130323,255.48987925436813 50.394598303944804,263.1491665611975 51.5224517803872,264.741668527422 52.681634520413354,265.1587510606623 58.69685306213796,264.40041877605836 60.670596646144986,264.6658352809027 62.42503538739402,262.9974992922216 62.487693913979456,255.75530318089295 67.37505897926167,255.2244551067124 68.06430277042091,256.3240679933515 68.40892466600053,255.4519615325553 71.22855835757218,255.1865373532346 71.0092535149306,246.0482272002555 71.76115583267529,245.2140115594957 71.82381435902789,243.50765458267415 68.44025392935146,242.82510923332302 68.44025392935146,241.04290059453342 77.52574026840739,240.47410850497545 77.24377689929679,233.8760460606427 75.86528931686189,233.19348007810186 74.5494602607796,231.60082043221337 74.95674068294466,228.79468644675217 74.39281394460704,228.15003055351553 72.76369225617964,228.03626761346823 71.66716804297175,226.9365570982627 71.82381435902789,223.18234432730242 68.97285140433814,217.07691393152345 69.44279035297222,213.3605077061511 71.16589983098675,213.0950484595378 71.66716804297175,210.44044382768334 71.47919246344827,209.07520997454412 69.63076593237929,207.48242975096218 71.04058277816512,206.3068011441792 74.92541141971014,205.5862524342665 71.5418509899173,191.89551725334604 70.41399751335848,185.25852249289164 69.85007077502087,184.7275569375197 66.49783960857894,184.61377848900156 53.652841680683196,185.29644857018138 52.77562231011689,185.5240049387503 52.61897599382792,186.6997102528985 49.016110721509904,186.8893397358479 47.888257244834676,185.56193098425865 36.703710268600844,186.2445990332053 36.703710268600844,190.0750981690362 32.505588994710706,190.5681293650705 33.47679615521338,219.314321261656 39.773978066048585,219.314321261656 40.6198681734968,222.9548148587055 40.80784375302028,226.9744782137277 40.6198681734968,230.19775652891258 34.103381420020014,230.34943941092934 34.54199110530317,240.92914225789718 41.18379491183441,241.08082003114396 41.591075333883055,255.110701832833 41.904367966228165,255.48987925436813 50.018647145014256,255.4519615325553 50.33193977747578,263.1491665611975 51.459793254034594,264.7795851439005 52.43100041442085,265.3104173010506 55.97120716038626,265.5 60.98388927860651,264.8933349662402 62.20573054486886,262.76999825343955 62.26838907133788,255.56571468448965 65.11935202602763,255.41404380626045 65.99657139659394,255.98280922771664 67.84499792777933,255.9069738968101 67.87632719089743,256.3619856113801 68.12696129688993,255.48987925436813 71.19722909433767,255.26237285559182 71.07191204139963,245.85863292828435 71.76115583267529,245.13817366579315 71.7924850959098,243.54557372583076 68.40892466600053,242.93886689303326 68.34626613964792,240.9670617079246 77.33776468900032,240.5120280092524 77.2751061625313,233.95188663506997 75.99060636979993,233.3451615339727 74.42414320784155,231.52497929811943 74.83142363000661,228.71884464466712 71.76115583267529,227.39161018558661 71.41653393709566,226.25397624858306 71.88647288549691,222.99273644812638 69.28614403679967,217.98704762279522 69.53677814279217,213.13297122262884 71.35387541039381,212.82958899179357 71.94913141208235,209.79575079280767 71.66716804297175,208.80974715703633 69.85007077502087,207.33073598099872 71.22855835757218,206.1171832207474 75.05072847264819,205.28286301612388 70.63330235588364,184.9171875946049 69.66209519549739,184.5 53.05758567911107,185.25852249289164 52.744293046882376,186.5859325088677 50.739220199524425,186.85141384822782 49.047439984628,186.73763615859207 48.35819619346876,185.7136351216177 47.63762313895859,185.59985702540143 36.547063952544704,186.28252499300288 36.67238100548275,189.92339610905037 32.47425973159261,190.49227846154827 33.13217425951734,210.47836690660915" stroke="#ff0000" stroke-linecap="round" stroke-linejoin="round" stroke-width="0.5"><title>2020-11-08 20.9km</title></polyline></svg>