<?xml version="1.0" encoding="utf-8" ?>
<svg baseProfile="full" height="300mm" version="1.1" viewBox="0,0,200,300" width="200mm" xmlns="http://www.w3.org/2000/svg" xmlns:ev="http://www.w3.org/2001/xml-events" xmlns:xlink="http://www.w3.org/1999/xlink"><defs /><rect fill="#222222" height="300" width="200" x="0" y="0" /><text fill="#FFFFFF" style="font-size:12px; font-family:Arial; font-weight:bold;" x="10" y="20">Over 10km Runs</text><text fill="#FFFFFF" style="font-size:4px; font-family:Arial" x="10" y="280">ATHLETE</text><text fill="#FFFFFF" style="font-size:9px; font-family:Arial" x="10" y="290">Zhitao</text><text fill="#FFFFFF" style="font-size:4px; font-family:Arial" x="120" y="280">STATISTICS</text><text fill="#FFFFFF" style="font-size:3px; font-family:Arial" x="120" y="285">Number: 9</text><text fill="#FFFFFF" style="font-size:3px; font-family:Arial" x="120" y="290">Weekly: 1.0</text><text fill="#FFFFFF" style="font-size:3px; font-family:Arial" x="141" y="285">Total: 148.2 km</text><text fill="#FFFFFF" style="font-size:3px; font-family:Arial" x="141" y="290">Avg: 16.5 km</text><text fill="#FFFFFF" style="font-size:3px; font-family:Arial" x="167" y="285">Min: 10.3 km</text><text fill="#FFFFFF" style="font-size:3px; font-family:Arial" x="167" y="290">Max: 21.1 km</text><polyline fill="none" points="54.51786139712203,50.69068470208731 50.92316616536118,33.6993662386667 50.51662325230427,33.0 38.89805473561864,33.62165898979583 38.363129849894904,34.55414414354891 36.35181227978319,34.605948757031 35.34615349478554,33.7770734597143 27.47205917770043,34.16560914856382 27.47205917770043,36.704025238606846 24.75464075850323,37.040751678316155 25.353756630560383,56.69949189515319 29.718743697507307,56.777190901339054 30.29646257404238,59.574336646546726 30.168080601491965,64.0289760074811 25.674711561878212,64.46925517817726 25.99566649319604,71.5394986672618 30.617417505476624,71.59129447517626 30.788593468954787,81.04382301322767 31.023960418533534,81.43227430731349 36.67276721121743,81.48406776074262 37.07931012427434,86.94820785918273 45.338550359010696,87.0 44.97480143676512,86.87051962486294 45.08178641390987,81.56175791780697 51.07294513343368,81.3286873632751 50.96596015628893,74.88030303562118 51.436694055679254,74.36235222933465 51.436694055679254,73.24875382133177 49.12581854953896,72.83439016832563 49.06162756332196,71.5394986672618 55.33094722323585,71.3841111693182 55.18116825539619,66.72243463584164 53.276835662312806,65.4016081282607 53.14845368976239,64.85773605947907 53.726172566297464,63.40740389704297 53.44801162579097,62.94122364895884 52.185588895576075,62.785830010980135 51.47948804649059,62.24195140415395 51.22272410138976,61.205988392204745 51.522282037418336,59.41894060403865 49.76772841240745,55.92250030685682 49.93890437588561,52.58140485857439 51.17993011046201,52.40010363802139 51.56507602822967,50.43168066133512 51.22272410138976,49.602865658991504 50.17427132546436,48.59274310586625 51.244121096795425,47.738020359378424 53.74756956170313,47.22000493935775 51.00875414710026,36.21188565834018 50.837578183738515,33.41443952389818 50.43103527056519,33.0 39.86091952980496,33.4662444088608 38.5770998041844,33.647561409146874 38.49151182244532,34.29512089071795 38.12776290019974,34.39873022882966 36.28762129356619,34.29512089071795 35.34615349478554,33.75117105573008 27.771617113612592,34.113804430133314 27.365074200555682,34.450534879390034 27.429265186889097,36.60041699842259 24.669052776764147,37.09255569979723 24.90441972645931,46.26167316077044 25.225374657893553,47.37540969483962 27.429265186889097,47.37540969483962 29.568964729551226,48.02292831467639 32.45755911222659,47.55671510269167 33.86976081028115,48.489140527599375 34.7470376228448,47.945226182069746 36.65137021581177,48.618643742840504 37.635632005287334,48.12653111499094 38.042174918577075,46.83149256488832 39.09062769438606,46.36527679977007 41.40150320052635,45.79545617445547 43.3914237752324,46.36527679977007 47.17869196576066,44.68171155205346 47.478249901672825,45.64005029035616 48.48390868678689,45.38104023685446 49.510964467190206,46.28757407514786 51.051548137911595,46.15806947230885 53.02007171721198,45.40694125612208 53.55499660293572,46.39117770185112 55.009992291918024,53.254808069512364 54.6034493787447,52.477804179579834 52.977277726400644,53.74690909785568 50.901769169955514,54.49800852162298 50.0030953619862,54.44620864465833 50.045889352913946,52.529604525261675 51.07294513343368,52.296502872690326 51.54367903270759,50.25037764935405 51.22272410138976,49.447462494528736 50.13147733465303,48.59274310586625 51.07294513343368,47.76392109802691 52.527940822415985,47.34950890997425 52.03580992750358,46.00266384726274 52.399558849749155,45.64005029035616 53.212644676095806,45.53644630598137 53.4266146303853,45.84725811118551 54.496464401716366,50.84608697849035" stroke="#4dd2ff" stroke-linecap="round" stroke-linejoin="round" stroke-width="0.5"><title>2020-10-18 13.0km</title></polyline><polyline fill="none" points="103.22365614410955,85.21862209898245 104.57116514316294,85.1935321619676 104.7162814970361,84.91754265726195 104.79920512775425,79.97476036308217 110.76970653934404,79.77403579131351 110.64532109326683,73.37583994894521 111.10140106221661,73.09983497565554 111.10140106221661,71.94562844550819 108.82100121746771,71.59434694302035 108.77953940210864,70.33976537080889 114.87442625977565,70.16412335497444 114.83296444441658,65.69774864056672 113.92080450651702,65.37154902692419 112.98791366105434,64.09183797634614 113.34033909160644,62.360451837899745 112.88425912254024,61.933876258292 111.74405920028221,61.883690839167684 111.22578650829382,61.482207056717016 110.89409198530484,59.901357230497524 111.22578650829382,58.6216129744862 109.50512117089238,54.85761425274541 109.73316115536727,51.97183638435672 110.89409198530484,51.846366885249154 111.2672483236529,49.83884474246588 110.99774652381893,49.010736288677435 109.87827750912402,48.15753023666912 111.10140106221661,47.22903737364686 113.34033909160644,46.827525679720566 110.47947383171413,33.200769113362185 98.72504917765036,33.52701851472375 98.66285645461176,34.43047575966921 96.73488204053137,34.555955626274226 96.00930027174763,34.581051590677816 95.61541302583646,33.67759499119711 88.46324987651315,34.0791317357216 87.77912992297206,34.25480382097885 88.02790081512649,36.56362333227298 85.12557374010794,37.04044160207559 85.95481004728936,56.03700774881872 89.97660613700282,56.062101155810524 90.70218790578656,58.29540241177892 90.72291881358251,63.18850785207178 86.16211912408471,63.514710843446665 86.61819909303449,70.38994877696678 91.05461333633866,70.61577395723725 91.15826787473634,79.22204223382869 91.51069330528844,80.07512257731287 96.75561294821091,80.10021312338358 97.23242382484023,81.63073078912566 97.17023110180162,85.11826233289321 97.9165437782649,86.37275597674306 101.33714354527183,87.0 102.62245982128661,86.8745513445756 104.07362335897051,86.22221713350154 104.81993603531737,85.16844222188229 104.90285966615193,80.05003202818625 110.66605200094637,79.87439810109208 110.52093564718962,73.80239237881324 110.6245901855873,73.25038318763836 111.10140106221661,73.09983497565554 111.08067015453707,71.97071995897568 108.90392484818585,71.66962159994 108.84173212514725,70.36485707537213 114.83296444441658,70.13903162645875 114.75004081369843,65.69774864056672 114.02445904503111,65.42173361571622 113.00864456861746,64.26748505112482 113.27814636856783,62.3102665203769 112.7391427687835,61.758227239275584 111.72332829248626,61.808412688202225 111.08067015453707,61.281464878687984 110.87336107774172,60.17737948290596 111.2672483236529,58.79726460686652 109.42219754017424,54.95798842428485 109.6916993400082,51.87146079100785 110.81116835470311,51.771085149928695 111.24651741597336,49.81375059467973 110.93555380078033,48.91035928532074 109.87827750912402,48.08224718387646 110.99774652381893,47.15375398930337 113.29887727613095,46.727147636716836 110.45874292415101,33.27605748154747 109.17342664801981,33.0 99.69940183870494,33.42663413731498 98.62139463925269,33.602306766377296 98.41408556245733,34.48066771536833 96.00930027174763,34.50576368866314 95.49102757975925,33.65249891921121 88.02790081512649,34.05403571156785 87.77912992297206,34.22970781766344 87.77912992297206,36.56362333227298 85.14630464778747,37.04044160207559 85.80969369353261,55.961727510075434 89.8522206909256,56.062101155810524 90.53634064446669,58.54633365862537 90.57780245970935,63.01285987839219 86.22431184712332,63.31397060082236 86.47308273927774,70.31467366324796 90.84730425954331,70.46522386395372 91.2411915055709,79.92457923812617 96.81780567124952,80.05003202818625 96.96292202500626,85.0680824318988 97.93727468582802,86.32257637426665 101.35787445295136,86.57347426713386 104.09435426665004,86.14694767160108 104.77847422007471,84.89245268440573 104.86139785067644,80.15039420659014 106.14671412692405,79.94966980209574" stroke="#4dd2ff" stroke-linecap="round" stroke-linejoin="round" stroke-width="0.5"><title>2020-10-31 16.1km</title></polyline><polyline fill="none" points="163.75951158849057,85.76138979126699 164.82470653869677,85.432777707465 164.9500235915184,80.22547222660796 170.29688451765105,80.22547222660796 170.7563803785015,79.92213010900014 170.6728356765816,73.72880050521053 171.1532177127665,73.299052568138 171.1532177127665,72.21203919932304 168.9601692861179,71.75700869564025 168.7930798822781,70.51830960832012 174.8918431259226,70.4171909965662 174.8918431259226,65.86680364538915 173.07474585820455,64.3752665783395 173.26272143761162,62.40338793848059 171.2158762392355,61.619687497935956 170.94435595790856,60.76014175424643 171.2158762392355,58.83879163158417 169.48232367343735,54.89491324004484 169.73295777931344,51.96223824148183 170.9861283089267,51.785265178754344 171.34119329228997,49.91439806656854 171.13233153731562,49.206498104686034 169.9418195342878,48.16992604600091 171.11144536186475,47.28504345616966 173.42981084156781,46.90580693188531 170.65194950101431,35.07328716090706 170.505746272509,33.17698871866742 158.74682947050314,33.50568166191806 158.57974006643053,34.44118956179591 157.01327690458857,34.56760923215188 156.01074048085138,34.59289315722708 155.44681374263018,33.73323801692459 147.9277905652998,34.06193009913841 147.63538410840556,34.23891793265648 147.73981498589274,36.74201578182692 145.0037259963574,36.94428502653318 145.69296978774946,56.13370344431314 149.87020488618873,56.15898480186297 150.49679015087895,58.7123864088353 150.4550177999772,63.313488047002465 146.02714859554544,63.59157341340324 146.44487210537773,70.59414853557246 150.91451366071124,70.64470780528791 150.93539983627852,79.69462323650077 151.29046481964178,80.22547222660796 156.78352897416335,80.32658616956905 156.92973220255226,85.432777707465 157.68163452018052,86.49444568493345 158.4544230134925,86.77250070711307 162.46456870797556,86.26694585071527 163.78039776405785,86.4438901872636 164.9500235915184,85.33166619480471 164.99179594253656,80.50353545392863 168.25003931939136,80.14963673781313 168.7095351802418,80.88271199556766 168.9392831105506,80.30130768836534 170.8190389049705,80.12435823548003 170.6728356765816,74.03215146683215 171.17410388833378,73.47600770634017 171.2158762392355,72.33843638843973 168.9601692861179,71.88340615553898 168.9601692861179,70.69526706302713 175.01716017886065,70.31607233666 174.82918459945358,65.91736404041876 173.91019287786912,65.46232005207276 173.0329735071864,64.40054695481376 173.30449378851335,62.529790964501444 172.9285426295828,62.100020369005506 171.84246150404215,62.02417840897397 171.11144536186475,61.291038065508474 171.2158762392355,58.788229551530094 169.31523426948115,54.717942621020484 169.62852690194268,52.24033847077226 170.77726655383594,52.06336563969671 171.11144536186475,50.29362921844586 170.9861283089267,49.3834733163676 169.7538439547643,48.32161983397964 170.69372185203247,47.53786742944794 173.2836076130625,47.05750162285403 171.02790065982845,37.93034483556403 170.27599834220018,33.50568166191806 169.90004718326963,33.15170462500828 167.66522640560288,33.07585232600104 159.10189445375,33.530965713449405 158.5170815399615,33.68266995916201 158.41265066247433,34.46647350194689 156.01074048085138,34.59289315722708 155.2588381631067,33.70795398950577 147.80247351236176,34.16306602212717 147.80247351236176,36.71673211270536 145.0037259963574,37.04541957672336 145.6511974367313,56.20954750776582 149.84931871062145,56.20954750776582 150.41324544895906,58.636543239146704 150.5385625018971,61.316318809156655 150.41324544895906,63.4651710192702 146.06892094668,63.56629294062441 146.36132740345784,70.6194281719363 150.7891966077732,70.7205466874293 151.06071688921656,80.07380122189352 151.2695786440745,80.32658616956905 156.67909809655976,80.30130768836534 156.88795985165052,85.432777707465 157.63986216927879,86.51972342927183 158.2873336095363,86.87361153404345 160.6474714401411,87.0 163.9892595189158,86.5955566441553 164.8038203632459,85.17999883562152 164.84559271414764,80.37714312299795 166.746234683902,80.27602920416393 167.33104759769049,80.6552061518014 168.56333195173647,80.60464926454006 168.58421812718734,80.90799040759157 168.75130753125995,80.32658616956905 170.79815272940323,80.17491523706121 170.71460802748334,73.9057552855229 171.17410388833378,73.42544911052391 171.19499006378464,72.36371581723506 168.9392831105506,71.95924459536036 168.89751075964887,70.64470780528791 174.8918431259226,70.34135200617311 174.85007077502087,65.96792442338483 173.993737579789,65.56344102264848 172.9494288051501,64.34998619873659 173.22094908659346,62.47922976312111 171.17410388833378,61.594406790391076 170.94435595790856,60.83598416572204 171.25764859025367,58.66182429876062 169.5240960244555,55.32469841520651 169.6911854284117,52.08864748173801 170.9025836068904,51.886392661195714 171.29942094127182,49.86383386187663 171.11144536186475,49.206498104686034 169.90004718326963,48.2204906539846 170.8190389049705,47.41145548048371 173.36715231498238,46.855242010744405 170.42220157047268,33.27812506306509 169.7747301303316,33.0 158.70505711936858,33.50568166191806 158.49619536451064,34.390621672573616 157.15948013297748,34.56760923215188 156.03162665630225,34.49175743905653 155.57213079556823,33.809090081063914 155.09174875926692,33.73323801692459 147.69804263487458,34.18834999532555 147.7815873369109,36.61559740603843 144.98283982102294,36.994852307703695 145.4214495063061,50.31891127106792" stroke="#ff0600" stroke-linecap="round" stroke-linejoin="round" stroke-width="0.5"><title>2020-11-08 20.9km</title></polyline><polyline fill="none" points="45.32645403611241,174.2881954717741 43.61326706543332,174.3258597408858 43.364076233352534,173.94921664825233 44.00262774055591,173.4972437573888 44.7813490909175,173.3842503335618 45.03053992299829,172.51796474540606 44.578881539811846,171.53867969164276 43.37965066032484,170.67238403069496 42.95914113114122,169.61775684425083 43.11488540121354,167.60264612622268 42.46075946697965,167.6214790551312 42.46075946697965,167.357817847369 43.23948081722483,166.11483768258768 44.6411792478757,165.9076733753609 46.43223835353274,166.6421637898602 46.292068510490935,165.9076733753609 45.37317731708754,165.9641727586859 44.90594450692879,166.3220017193962 42.74109915306326,166.2843355509831 42.414036185946316,166.02067212188558 39.82868130289717,166.2278362816578 39.034385525621474,166.05833835290105 38.84749240154633,166.39733402935963 37.89745235425653,166.52916548577195 37.44579397101188,165.9265065053478 32.78904029622208,166.171336992149 32.69559373415541,168.65728670240787 31.916872383852024,169.33526622940553 31.558660562732257,169.31643350388913 31.465214000665583,163.6100147459074 31.948021237854846,163.4593474441208 32.025893372891005,163.17684586773976 31.51193728169892,161.85849852905085 31.262746449559927,155.96346859971527 31.449639573693275,141.06482899079856 30.982406763418112,126.22130374016706 31.21602316852659,123.01883822371019 30.826662493404,123.0 30.79551363940118,125.69384327904845 30.935683482442982,126.59806013847992 31.574234989704564,126.59806013847992 30.343855256272946,128.1427520162979 30.842236920434516,129.48021697970398 30.935683482442982,135.35739415801072 30.577471661323216,135.4704146622098 30.53074838028988,135.94133256319037 30.935683482442982,136.22388263282483 31.029130044509657,136.84549101466837 31.044704471481964,145.51008154658484 30.966832336504012,145.90562764673086 30.203685413172934,146.11281806763145 30.37500411021756,146.52719809762493 30.920109055470675,146.62137522628473 31.044704471481964,148.14703692238254 31.122576606518123,161.80199768405873 30.421727391250897,161.85849852905085 30.37500411021756,162.23517031475785 31.122576606518123,162.44233941582206 31.16929988755146,169.14693887348403 32.57099831808591,169.07160786859458 32.58657274505822,167.03765722052776 32.820189150224905,166.6986629117455 35.81047913542716,166.5668315961084 36.931837879819795,166.83049411786487 39.034385525621474,166.3596678788599 42.3828873320017,166.43500017090992 43.068162120180205,169.73075294941373 41.93122894881526,171.53867969164276 42.18041978083784,172.63095878591412 42.04024993785424,173.25242457080458 42.44518503994914,173.8173913546634 43.69113920041127,173.685565951615 44.90594450692879,172.1224849702412 43.64441591943614,170.8607095766056 42.95914113114122,170.40872789100104 42.46075946697965,170.4275604869472 41.91565452172654,171.59517707052873 42.16484535386553,172.68745577601658 42.02467551082373,173.29008908562537 42.85012014210224,174.23169905146642 46.43223835353274,174.26936333392223 46.6502803316107,174.90965476816928 49.796314586827066,175.06031120089756 49.46925161971012,175.9265829139622 48.581509280367754,177.0 47.72491579497,176.73635437067423" stroke="#4dd2ff" stroke-linecap="round" stroke-linejoin="round" stroke-width="0.5"><title>2020-12-18 10.3km</title></polyline><polyline fill="none" points="88.46882125234697,140.54490705928765 90.59867822157685,138.57316231387085 90.66523625189438,136.4404459093057 89.96637693385128,135.55516346302466 91.09786344878376,133.70411088110995 93.19444140291307,135.3942027700541 93.19444140291307,136.8830862659088 94.05969579669181,138.93532037129626 96.22283178102225,139.29747804198996 98.55236284132116,141.0680210882274 99.98336049239151,140.90706301142927 98.35268875036854,140.82658394434839 96.35594784165733,139.37795747199561 93.660347614903,138.61340211707284 93.19444140291307,135.71612407968496 90.73179428221192,132.81882129251608 89.20095958549064,126.46076453450951 87.47045079793315,123.0 86.40552231331822,123.08048329726444 85.47370988922194,124.12676442333031 84.04271223815158,127.54727634854498 83.74320110178087,130.28366105048917 84.04271223815158,131.28967928732163 85.27403579850215,131.73232636635657 86.23912723758258,134.9515604703338 88.50210026744753,134.5491578783258 90.89818935783114,136.6416461429617 91.16442147898488,138.73412149815704 87.33733473753091,141.51065540555282 87.57028784335125,144.56884036160773 88.53537928266451,146.01744466411765 92.3624660243513,148.43177142034983 93.7601846603211,150.88631933912984 95.29101935704239,156.07702611302375 95.25774034182541,163.11855562624987 97.15464420511853,167.06174830917735 98.65219988662284,168.67120153826545 98.88515299267601,170.76347932082717 100.74877784063574,172.77527271167492 101.713869279949,175.95388195323176 103.21142496156972,176.718353150849 106.17325730936136,176.6781178676465 108.23655624839012,175.71246963812155 110.79904041439295,167.98718484895653 112.26331708091311,167.0215118806227 116.1902408679016,166.3777283745876 116.82254215574358,165.17063100766973 116.32335692853667,163.40021376663935 115.02547533798497,163.11855562624987 114.26005798962433,163.52092432667268 111.53117874765303,162.23334280590643 110.96543549012858,160.54338464321336 109.66755389946047,159.69840240463964 108.73574147548061,156.76106681858073 108.73574147548061,154.74917845253367 106.938674657722,150.68512755504344 105.07504980964586,150.04131304399925 100.94845193158835,150.3632204523892 99.81696541665588,149.75964381117956 99.98336049239151,147.9891461348452 103.24470397667028,146.25887811300345 104.07667935523205,144.68955762311816 103.94356329459697,143.52262229542248 101.31452109816018,141.51065540555282 98.85187397757545,141.30945806016098 96.95497011416592,139.7803543348855 94.12625382689293,138.77436128241243 93.32755746343173,135.71612407968496 91.0645844336832,133.4224280808121 89.40063367644325,127.06438263872406 88.2358681462938,125.57545603849576 87.80324094952084,123.4828994970594 86.60519640427083,123.20120820726152 85.17419875296764,124.81086956826039 84.07599125325214,127.50703523235279 84.17582829867024,131.4908825768216 85.54026791953947,132.09449172834866 86.47208034375217,135.31372239481425 88.3357051917119,134.75035923396354 90.86491034273058,136.92332626963616 90.96474738803227,138.93532037129626 87.23749769187998,141.99352854758035 87.30405572231393,144.8907529633725 88.00291504024062,145.93696680958965 92.12951291818172,148.71344175579725 93.29427844833117,150.52417404184234 95.09134526620619,157.28415583918104 94.92495019047055,163.31974003615323 98.45252579578664,169.11379983776715 98.81859496247489,171.2463108226366 100.28287162864581,173.17762995816884 101.41435814357828,176.31600010371767 104.67570162785705,177.0 108.20327723328955,175.71246963812155 108.83557852089871,172.65456544459448 110.20001814188436,170.56229932548013 110.20001814188436,168.55049281098763 111.53117874765303,167.74576686462387 113.760872762301,167.94694853009423 116.35663594375364,166.57891085144365 116.68942609499209,165.61323387434823 115.6910556408111,164.12447648204397 115.92400874674786,163.56116117039346 110.7657613994088,162.43452774063917 108.56934639986139,158.08890660351608 108.16999821807258,154.26632346902625 106.17325730936136,150.48393565163133 104.14323738554958,149.96083614428062 100.11647655302659,150.56441242725123 98.85187397757545,149.75964381117956 98.91843200777657,148.35129413864342 103.24470397667028,145.73577208982897 103.84372624929529,143.96525340958033 100.74877784063574,141.3899370126892 98.51908382610418,141.30945806016098 96.18955276580527,139.69987500048592 93.52723155426793,138.9755601315701 93.02804632729385,135.71612407968496 90.63195723679382,133.30170680914307 89.13440155528951,127.10462380744866 87.76996193430386,125.25352510318044 87.50372981315013,123.28169145676657 86.27240625279956,123.20120820726152 85.14091973786708,124.32797196219326 83.17745784425642,129.5190851945663 83.6100850411458,132.13473230035743 85.1076407226501,135.3942027700541 85.50698890443891,139.29747804198996" stroke="#4dd2ff" stroke-linecap="round" stroke-linejoin="round" stroke-width="0.5"><title>2021-03-07 10.3km</title></polyline><polyline fill="none" points="165.40307423274498,171.67556077208428 171.19055690884124,171.52047806182236 171.0410647363169,164.670881251237 171.55360932764597,164.38655369565822 171.51089727832004,163.37848027182918 169.2685146916192,162.99075847845234 169.2258026424097,161.54325766759575 175.29091363877524,161.56910598093236 174.05226420995314,160.35423192767485 174.41531662875786,158.98425941767346 173.58243166795,158.93256217263115 173.45429552008864,158.59652977983933 174.41531662875786,156.32183529587928 173.4115834707627,154.97768644774624 173.81734793889336,153.29748868889874 171.66038945072796,152.49615902584628 171.3186930567026,151.4880304113176 171.66038945072796,149.42005963326665 169.8664833813673,145.64596220001113 170.1227556769736,142.59561634526472 171.25462498271372,142.49221403998672 171.72445752471685,140.52756088520982 171.57496535219252,139.80373682112258 170.27224784949794,138.7179962010996 171.36140510591213,137.81320820417022 173.8600599882193,137.3478871948464 171.48954125365708,127.42080143894418 170.91292858857196,123.36194034307846 170.5712321944302,123.103411588163 158.88948671892285,123.77558571053669 158.67592647264246,124.62872679214342 157.05286860035267,124.75799029991322 155.98506736860145,124.75799029991322 155.3657426541904,123.82729132613167 147.67757378553506,124.29264131169475 147.61350571154617,126.74863860174082 144.70908636122476,127.18812992313178 145.24298697710037,137.42544076564081 147.39994546526577,137.3737383881671 149.8131762490375,138.0458683349134 152.3972552298801,137.63225015238277 152.90979982109275,137.81320820417022 153.03793596895412,138.35608145470906 152.9952239197446,153.11654353958147 152.46132330375258,154.12466459463758 145.84095566684846,154.22806136132567 146.09722796245478,161.59495429124217 150.68877325905487,161.64665090259223 150.96640157932416,171.10692362660484 151.32945399812888,171.44293666521844 156.75388425542042,171.41708952687623 156.83930835395586,176.35383714888303 157.1382926988881,177.0 164.741037469008,176.8966140729608 165.08273386314977,171.57217231088725 166.94070800638292,171.41708952687623 167.83766104106326,171.93403170979582 167.58138874545693,171.41708952687623 171.0410647363169,171.31370094264275 170.95564063778147,164.61918535975565 171.40411715512164,164.38655369565822 171.4254731797846,163.24923975087586 169.2258026424097,162.75812507013325 169.1617345684208,161.56910598093236 173.1980232244823,161.5174093511887 173.21937924914528,160.8712004404806 173.8600599882193,160.27668654470472 174.2871804808965,158.93256217263115 173.3688714215532,158.75162171806733 173.32615937234368,158.07955585270247 174.94921724451706,156.5544755980809 173.28344732301775,155.10693189076846 173.71056781581137,153.24579009017907 171.66038945072796,152.41861083704862 171.29733703192323,151.07443783099006 171.74581354937982,149.7819559409254 169.8664833813673,145.82691357391013 170.1227556769736,142.59561634526472 171.29733703192323,142.49221403998672 171.66038945072796,140.65681492847216 171.51089727832004,139.67448227007117 170.27224784949794,138.64044309203746 171.1051328103058,137.9166127374192 173.77463588968385,137.3737383881671 170.891572563909,123.51705744820356 170.10139965242706,123.07755869578978 159.12440298998263,123.62046879004629 158.63321442331653,123.80143851986213 158.5477903247811,124.499463207394 157.2450728220865,124.62872679214342 156.04913544247393,124.52531593047024 155.4725227773888,123.72388008273265 147.67757378553506,124.18923029002326 147.57079366233665,126.74863860174082 144.9012905829586,127.11057269573212 145.2216309524374,137.50299430869927 147.6562177608721,137.45129194977926 149.79182022437453,138.071719445099 152.33318715600763,137.65810131184116 152.95251187030226,137.86491047692834 153.08064801816363,138.30437929886102 153.01657994429115,147.22281910476158 149.89860034757294,147.5847190740751 150.43250096344855,149.23911125329323 150.36843288957607,154.07296619286353 145.84095566684846,154.35730725049507 146.07587193779182,161.5174093511887 150.75284133292735,161.59495429124217 150.88097748078872,170.79675728346047 151.24402989959344,171.31370094264275 156.86066437861882,171.41708952687623 157.11693667422514,176.81907459543436 162.30645066057332,176.50891640846385 164.82646156754345,176.84492109098937 165.14680193702225,176.01783170668932 165.18951398623176,171.57217231088725 167.0688441542443,171.36539524092223 167.94444116426166,171.8823375467764 167.75223694252782,171.3912423854781 171.16920088417828,171.36539524092223 171.08377678564284,165.91157895680226 171.59632137685549,163.19754352103337 169.39665083936416,162.91321403665643 169.31122674082872,161.59495429124217 173.2620912984712,161.41401605468127 174.41531662875786,158.93256217263115 173.58243166795,158.77747036362416 173.4756515447516,158.2087994499161 175.05599736771546,156.60617340920726 173.49700756941456,155.15863004645507 173.81734793889336,153.21994078624994 171.74581354937982,152.28936379408697 171.44682920444757,151.30708375437825 171.74581354937982,149.52345863981463 169.9732635046821,145.82691357391013 170.25089182483498,142.54391519879573 171.3186930567026,142.31125988735585 171.78852559858933,140.42415759513096 171.6390334261814,139.70033318648348 170.37902797269635,138.61459204938728 171.36140510591213,137.7873570631491 173.83870396355633,137.29618479894998 170.891572563909,123.23267600413237 170.48580809577834,123.0 158.84677466971334,123.59461595928587 158.59050237410702,124.4477577519574 156.88202040328179,124.70628490610397 157.67219331476372,131.60884608951164 159.63694758119527,133.0823981440044 160.34169639414176,136.1070262950234 161.6230578722898,135.8226613401057 163.09662357217167,136.46894478991453 163.71594828658272,136.36553956728312 167.26104837597813,134.81445531739155 168.54240985412616,137.9166127374192" stroke="#ff0900" stroke-linecap="round" stroke-linejoin="round" stroke-width="0.5"><title>2021-03-14 20.7km</title></polyline><polyline fill="none" points="59.34975949092768,247.8251945355878 59.65300199034391,247.265818953907 59.34975949092768,246.6190382807108 59.21979841974098,244.92341055572615 59.56636127625825,243.2102822430752 59.26311877678381,239.25952236777812 59.42196008603787,237.28410255510244 58.974316396343056,235.99045039631892 59.60968163330108,234.2772178271698 59.71076246647863,232.7038233626372 59.43640020507155,231.54999003575358 60.24504687037552,229.9416011727153 60.27392710838467,229.41712273260055 60.05732532311231,228.17584962426918 59.49416068114806,227.79122765743523 59.291999014792964,225.69327191267803 59.320879252802115,224.92401395867637 59.9273642518674,224.55686669547867 60.14396603719797,223.73515282585868 59.985124727885704,221.25249999342486 59.205358300649095,219.60903064816375 59.58080139529193,217.1612762259174 59.30643913382664,215.3429179379018 59.768522942613345,214.4861836275959 59.27755889581749,214.20643256539188 59.46528044313891,213.12239216161834 58.569993063632865,213.0 58.20899008802371,213.7868049720273 58.23787032614928,214.29385482960788 57.58806497009937,214.50366805130034 57.48698413692182,214.95826233569824 57.41478354186984,225.36109283630503 57.86242723156465,225.97300107812043 57.83354699349729,226.96953189681517 58.31007092125947,227.19680990789493 59.869603775732685,227.2142928172252 60.28836722741835,229.81922303765896 59.50860080018174,231.3926484247495 59.72520258551231,232.35417785785103 59.65300199034391,234.0674328730529 59.046516991453245,235.81563166252454 59.42196008603787,237.1442488173343 59.24867865775013,238.03581411277992 59.58080139529193,243.0704341513192 59.26311877678381,244.83600653392205 59.63856187136844,247.10849418754515 59.320879252802115,247.89511633339862 59.58080139529193,248.1573227787303 59.291999014792964,247.96503809794376 59.060957110486925,248.57685211711214 59.032076872419566,250.39479873033997 59.46528044313891,250.98912254812603 59.27755889581749,252.23020276294847 58.75771461095428,252.47492156700173 57.47254401788814,252.45744166597433 56.92381949501578,252.07288331637392 54.80112199863652,251.96800359165354 51.78313712280942,252.12532315061253 51.33549343311461,252.5098813628574 50.757888672174886,252.54484115040395 50.079203078115825,252.12532315061253 48.59187081869459,252.33508230029838 45.328403919469565,251.8631237919908 39.76895809563575,252.40500195030472 37.29969774262281,252.14280309117748 30.252919659367763,252.12532315061253 28.707826923870016,252.6147607004532 27.56705752108246,254.17046207729436 27.06165335525293,253.96070554973267 25.48768038174603,252.43996176282235 23.769306218018755,251.6533639680274 21.96429134014761,252.38752204089542 20.433638723683544,252.47492156700173 19.91379443887854,253.9956649918022 19.76939324865816,255.88346250246104 19.82715372473467,260.5154554043402 20.419198604649864,263.36449544092466 19.783833367633633,267.0 20.375878247548826,263.1197947857145 19.783833367633633,260.323186907699 19.711632772581652,254.99200559155724 20.072635748132598,252.9643579514086 20.390318366582505,252.45744166597433 22.022051816282328,252.28264254098758 23.884827170171775,251.6009239651612 25.458800143678673,252.45744166597433 27.465976687904913,254.1355026768142 28.751147280971054,252.5273612576566 30.44064120668918,252.03792341641383 33.992910486413166,252.21272283274448 36.47661095834337,252.07288331637392 39.82671857171226,252.40500195030472 45.184002729307394,251.75824391748756 48.50523010455072,252.24768269102788 50.00700248294743,252.0029635082028 50.58460724388715,252.45744166597433 51.32105331408093,252.45744166597433 51.7975772418431,252.1078432079521 57.90574758866569,252.07288331637392 59.046516991453245,252.40500195030472 59.40751996700419,252.12532315061253 59.50860080018174,250.97164247020555 59.089837348496076,250.6045603525563 58.98875651531853,249.83543293927505 59.075397229462396,248.38456798587868 59.65300199034391,247.10849418754515 59.291999014792964,245.779967215145 59.58080139529193,242.9131048887939 59.27755889581749,239.15463348849153 59.37863972899504,237.23165741904813 58.9454361582757,236.21771443889884 59.59524151432561,234.22477161676215 59.6674421094358,232.35417785785103 59.46528044313891,231.3751660130947 60.25948698935099,229.3471921323362 60.20172651327448,228.45557405798172 59.42196008603787,227.8436761668272 59.55192115728278,226.7422535338119 59.291999014792964,225.48347468876455 59.36419960990315,224.7666652440821 59.985124727885704,224.45196730877797 60.1295259182225,223.7876027848106 59.941804370842874,221.2000491284125 59.147597824572586,219.92373896879144 59.55192115728278,217.30114900712215 59.320879252802115,215.3604022594809 59.7974031806807,214.6260589587182 59.30643913382664,214.31133927618794 59.45084032404702,213.15736133191967 58.8732355631073,213.01748460080125 57.775786517420784,213.3846607356536" stroke="#4dd2ff" stroke-linecap="round" stroke-linejoin="round" stroke-width="0.5"><title>2021-03-21 15.0km</title></polyline><polyline fill="none" points="97.16734606307,257.20089062536135 74.65672602440463,257.14482422193396 74.13537867402192,257.1167910102231 73.89208324393257,256.9065417100501 73.82257026387379,247.8374317606649 73.68354430375621,247.1085085607483 73.0,246.88422359272226 73.04634198662825,246.14127658883808 73.77622827712912,245.93100771889294 73.62561682041269,238.6134174490071 73.82257026387379,238.57136101986544 73.753057283815,224.0329562986808 78.56103840377182,223.76656571282365 97.2021025530994,223.58429812297982 98.56919116067002,223.48615391933708 98.71980261744466,222.68697664776846 99.57712937134784,222.77110082629224 99.70456983475015,223.47213331216335 100.51555460202508,223.51419512871507 126.58292211970547,223.1917208181767 126.88414503325475,223.76656571282365 126.8378030465683,230.46820908159862 127.0,231.99635474493698 126.72194807982305,233.6786940335005 126.88414503325475,242.04797518679698 126.91890152328415,223.9488330208551 126.8030465565389,223.35996839464497 126.21218622615561,223.09357628766884 99.79725380818127,223.48615391933708 99.64664235140663,223.43007148061588 99.54237288131844,222.77110082629224 98.81248659081757,222.71501804728905 98.65028963738587,222.79914220579667 98.6039476506412,223.44409209278092 98.30272473715013,223.48615391933708 80.44947436166694,223.73852456349414 73.82257026387379,224.11707951651624 73.84574125718791,244.26286139681906 73.76464278047206,246.08520492682874 73.10426947002998,246.22538403177896 73.03475648997119,246.4496702530596 73.05792748334352,247.1085085607483 73.74147178709973,247.22065088483942 73.83415576053085,247.6552013831315 73.86891225056024,252.5472884326009 73.69512980047148,252.84164822867024 74.00793821061961,257.06072456680704 74.2744046341395,257.2289238170706 79.48787813767558,257.3130233522388 97.4917399699334,257.21490722206363" stroke="#ff0a00" stroke-linecap="round" stroke-linejoin="round" stroke-width="0.5"><title>2021-04-10 20.7km</title></polyline><polyline fill="none" points="177.11246742555522,224.8038793066953 177.2161569057207,224.75907721513795 177.105061034119,224.56194769600552 177.09024825121742,223.38812034163857 176.54217528455774,222.4920566255969 176.69030311339884,220.69989724184416 176.5718008503609,219.7052303992241 176.60142641610582,217.6531285069941 176.97174598817946,216.9631078969469 176.79399259356433,216.5598461744812 176.40145384718198,216.5598461744812 175.786723357538,216.92726249787665 175.15718008502154,216.9810305901192 167.18790289392928,216.91830114545155 165.09189411599073,216.78388073106908 162.13674393083784,216.91830114545155 161.41832396102836,216.80180346685665 160.78137429707567,216.39854088138236 160.09257989301113,216.40750229561672 159.18159374568495,216.89141708175157 158.94458921957994,217.33948355819302 159.13715539706754,220.350421198018 159.12234261413687,224.88452300440986 159.22603209433146,226.09416811953997 159.1075298312644,228.41484034423775 159.33712796593318,230.78919939407206 159.19640652858652,231.33573938261543 159.35934714027098,232.31233376177988 159.3223151830898,232.74238966091798 159.1075298312644,233.16348368581384 158.75202304209233,233.29787490092713 157.71512824026286,233.33371251785138 152.00480043885182,233.27995608608035 150.35317514740746,233.4233064856453 149.46440817444818,234.16693231029785 147.16102043612045,238.5926981888042 145.97599780547898,240.43818375348928 145.98340419691522,240.6800644369505 145.67233575636055,241.4504940367333 145.13907557260245,242.05966535882908 144.41324921132764,241.8536226680735 143.36894801806193,241.19069888823287 142.35427239057026,240.78756671398878 141.16184336849255,239.9544200596356 140.44342339868308,239.71253704919945 139.36949663967243,239.03167700337508 139.33246468246216,239.17501647112658 139.39171581398114,239.09438805402897 138.90289397884044,238.77187352374312 136.26621862567845,237.47284270195814 135.7033328761172,237.06969065636076 134.34796324232593,237.03385481467558 134.1924290220486,237.83119826676557 134.25168015356758,240.64423031058686 133.97023727878695,240.96673683520203 133.19997256889474,240.98465382389986 133.05184474005364,241.16382347698527 133.0,241.5848704865566 133.0222191742796,255.84533044956333 133.26663009184995,256.2573388551318 133.11109587157262,256.7141281535514 133.05184474005364,257.6187419377602 133.0444383486174,262.956638153104 133.19997256889474,263.10888804453134 134.71828281437047,263.09097630854376 136.3847208887164,263.50294516097347 137.4882732135011,263.60145911861036 138.71773419281817,263.48503351848194 139.73240982030984,262.956638153104 140.8729941023048,262.89394693208305 141.05074749686173,262.5536222522278 141.09518584550824,260.56537897867383 140.96927719100495,259.93844456237275 141.12481141131138,259.5801939862358 141.59141407208517,259.47271848178934 147.10176930457237,259.50854366694693 148.2571663694689,259.4548058828441 148.90892881632317,259.24881068928516 149.22740364831407,259.2667233371176 149.4273762172088,259.4368932796351 150.24207927577663,259.49958737225097 156.35235221503535,259.3383738860284 166.58057879575063,259.57123770006 168.11370182415703,259.4637621828588 170.52818543405738,259.53541254466836 170.71334522007965,259.3383738860284 170.5948429570417,255.6393254032373 170.67631326289847,254.23310202166613 170.89850500613102,253.93752307345858 171.20957344671478,253.85691043207044 182.23028391166008,253.91065220255405 185.8964476751862,253.821082563838 186.71115073375404,253.91065220255405 186.83705938825733,254.14353276567272 186.93334247701569,255.5945416231043 187.0,260.0190507076477" stroke="#ff0000" stroke-linecap="round" stroke-linejoin="round" stroke-width="0.5"><title>2021-04-17 21.1km</title></polyline></svg>