<?xml version="1.0" encoding="utf-8" ?>
<svg baseProfile="full" height="300mm" version="1.1" viewBox="0,0,200,300" width="200mm" xmlns="http://www.w3.org/2000/svg" xmlns:ev="http://www.w3.org/2001/xml-events" xmlns:xlink="http://www.w3.org/1999/xlink"><defs /><rect fill="#222222" height="300" width="200" x="0" y="0" /><text fill="#FFFFFF" style="font-size:12px; font-family:Arial; font-weight:bold;" x="10" y="20">Over 10km Runs</text><text fill="#FFFFFF" style="font-size:4px; font-family:Arial" x="10" y="280">ATHLETE</text><text fill="#FFFFFF" style="font-size:9px; font-family:Arial" x="10" y="290">Zhitao</text><text fill="#FFFFFF" style="font-size:4px; font-family:Arial" x="120" y="280">STATISTICS</text><text fill="#FFFFFF" style="font-size:3px; font-family:Arial" x="120" y="285">Number: 7</text><text fill="#FFFFFF" style="font-size:3px; font-family:Arial" x="120" y="290">Weekly: 1.0</text><text fill="#FFFFFF" style="font-size:3px; font-family:Arial" x="141" y="285">Total: 106.3 km</text><text fill="#FFFFFF" style="font-size:3px; font-family:Arial" x="141" y="290">Avg: 15.2 km</text><text fill="#FFFFFF" style="font-size:3px; font-family:Arial" x="167" y="285">Min: 10.3 km</text><text fill="#FFFFFF" style="font-size:3px; font-family:Arial" x="167" y="290">Max: 20.9 km</text><polyline fill="none" points="54.51786139712203,50.69068470208731 50.92316616536118,33.6993662386667 50.51662325230427,33.0 38.89805473561864,33.62165898979583 38.363129849894904,34.55414414354891 36.35181227978319,34.605948757031 35.34615349478554,33.7770734597143 27.47205917770043,34.16560914856382 27.47205917770043,36.704025238606846 24.75464075850323,37.040751678316155 25.353756630560383,56.69949189515319 29.718743697507307,56.777190901339054 30.29646257404238,59.574336646546726 30.168080601491965,64.0289760074811 25.674711561878212,64.46925517817726 25.99566649319604,71.5394986672618 30.617417505476624,71.59129447517626 30.788593468954787,81.04382301322767 31.023960418533534,81.43227430731349 36.67276721121743,81.48406776074262 37.07931012427434,86.94820785918273 45.338550359010696,87.0 44.97480143676512,86.87051962486294 45.08178641390987,81.56175791780697 51.07294513343368,81.3286873632751 50.96596015628893,74.88030303562118 51.436694055679254,74.36235222933465 51.436694055679254,73.24875382133177 49.12581854953896,72.83439016832563 49.06162756332196,71.5394986672618 55.33094722323585,71.3841111693182 55.18116825539619,66.72243463584164 53.276835662312806,65.4016081282607 53.14845368976239,64.85773605947907 53.726172566297464,63.40740389704297 53.44801162579097,62.94122364895884 52.185588895576075,62.785830010980135 51.47948804649059,62.24195140415395 51.22272410138976,61.205988392204745 51.522282037418336,59.41894060403865 49.76772841240745,55.92250030685682 49.93890437588561,52.58140485857439 51.17993011046201,52.40010363802139 51.56507602822967,50.43168066133512 51.22272410138976,49.602865658991504 50.17427132546436,48.59274310586625 51.244121096795425,47.738020359378424 53.74756956170313,47.22000493935775 51.00875414710026,36.21188565834018 50.837578183738515,33.41443952389818 50.43103527056519,33.0 39.86091952980496,33.4662444088608 38.5770998041844,33.647561409146874 38.49151182244532,34.29512089071795 38.12776290019974,34.39873022882966 36.28762129356619,34.29512089071795 35.34615349478554,33.75117105573008 27.771617113612592,34.113804430133314 27.365074200555682,34.450534879390034 27.429265186889097,36.60041699842259 24.669052776764147,37.09255569979723 24.90441972645931,46.26167316077044 25.225374657893553,47.37540969483962 27.429265186889097,47.37540969483962 29.568964729551226,48.02292831467639 32.45755911222659,47.55671510269167 33.86976081028115,48.489140527599375 34.7470376228448,47.945226182069746 36.65137021581177,48.618643742840504 37.635632005287334,48.12653111499094 38.042174918577075,46.83149256488832 39.09062769438606,46.36527679977007 41.40150320052635,45.79545617445547 43.3914237752324,46.36527679977007 47.17869196576066,44.68171155205346 47.478249901672825,45.64005029035616 48.48390868678689,45.38104023685446 49.510964467190206,46.28757407514786 51.051548137911595,46.15806947230885 53.02007171721198,45.40694125612208 53.55499660293572,46.39117770185112 55.009992291918024,53.254808069512364 54.6034493787447,52.477804179579834 52.977277726400644,53.74690909785568 50.901769169955514,54.49800852162298 50.0030953619862,54.44620864465833 50.045889352913946,52.529604525261675 51.07294513343368,52.296502872690326 51.54367903270759,50.25037764935405 51.22272410138976,49.447462494528736 50.13147733465303,48.59274310586625 51.07294513343368,47.76392109802691 52.527940822415985,47.34950890997425 52.03580992750358,46.00266384726274 52.399558849749155,45.64005029035616 53.212644676095806,45.53644630598137 53.4266146303853,45.84725811118551 54.496464401716366,50.84608697849035" stroke="#4dd2ff" stroke-linecap="round" stroke-linejoin="round" stroke-width="0.5"><title>2020-10-18 13.0km</title></polyline><polyline fill="none" points="163.22365614410955,85.21862209898245 164.57116514316294,85.1935321619676 164.7162814970361,84.91754265726195 164.79920512775425,79.97476036308217 170.76970653934404,79.77403579131351 170.64532109326683,73.37583994894521 171.1014010622166,73.09983497565554 171.1014010622166,71.94562844550819 168.8210012174677,71.59434694302035 168.77953940210864,70.33976537080889 174.87442625977565,70.16412335497444 174.83296444441658,65.69774864056672 173.92080450651702,65.37154902692419 172.98791366105434,64.09183797634614 173.34033909160644,62.360451837899745 172.88425912254024,61.933876258292 171.7440592002822,61.883690839167684 171.22578650829382,61.482207056717016 170.89409198530484,59.901357230497524 171.22578650829382,58.6216129744862 169.50512117089238,54.85761425274541 169.73316115536727,51.97183638435672 170.89409198530484,51.846366885249154 171.2672483236529,49.83884474246588 170.99774652381893,49.010736288677435 169.87827750912402,48.15753023666912 171.1014010622166,47.22903737364686 173.34033909160644,46.827525679720566 170.47947383171413,33.200769113362185 158.72504917765036,33.52701851472375 158.66285645461176,34.43047575966921 156.73488204053137,34.555955626274226 156.00930027174763,34.581051590677816 155.61541302583646,33.67759499119711 148.46324987651315,34.0791317357216 147.77912992297206,34.25480382097885 148.0279008151265,36.56362333227298 145.12557374010794,37.04044160207559 145.95481004728936,56.03700774881872 149.97660613700282,56.062101155810524 150.70218790578656,58.29540241177892 150.7229188135825,63.18850785207178 146.1621191240847,63.514710843446665 146.6181990930345,70.38994877696678 151.05461333633866,70.61577395723725 151.15826787473634,79.22204223382869 151.51069330528844,80.07512257731287 156.7556129482109,80.10021312338358 157.23242382484023,81.63073078912566 157.17023110180162,85.11826233289321 157.9165437782649,86.37275597674306 161.33714354527183,87.0 162.6224598212866,86.8745513445756 164.0736233589705,86.22221713350154 164.81993603531737,85.16844222188229 164.90285966615193,80.05003202818625 170.66605200094637,79.87439810109208 170.52093564718962,73.80239237881324 170.6245901855873,73.25038318763836 171.1014010622166,73.09983497565554 171.08067015453707,71.97071995897568 168.90392484818585,71.66962159994 168.84173212514725,70.36485707537213 174.83296444441658,70.13903162645875 174.75004081369843,65.69774864056672 174.0244590450311,65.42173361571622 173.00864456861746,64.26748505112482 173.27814636856783,62.3102665203769 172.7391427687835,61.758227239275584 171.72332829248626,61.808412688202225 171.08067015453707,61.281464878687984 170.87336107774172,60.17737948290596 171.2672483236529,58.79726460686652 169.42219754017424,54.95798842428485 169.6916993400082,51.87146079100785 170.8111683547031,51.771085149928695 171.24651741597336,49.81375059467973 170.93555380078033,48.91035928532074 169.87827750912402,48.08224718387646 170.99774652381893,47.15375398930337 173.29887727613095,46.727147636716836 170.458742924151,33.27605748154747 169.1734266480198,33.0 159.69940183870494,33.42663413731498 158.62139463925269,33.602306766377296 158.41408556245733,34.48066771536833 156.00930027174763,34.50576368866314 155.49102757975925,33.65249891921121 148.0279008151265,34.05403571156785 147.77912992297206,34.22970781766344 147.77912992297206,36.56362333227298 145.14630464778747,37.04044160207559 145.8096936935326,55.961727510075434 149.8522206909256,56.062101155810524 150.5363406444667,58.54633365862537 150.57780245970935,63.01285987839219 146.22431184712332,63.31397060082236 146.47308273927774,70.31467366324796 150.8473042595433,70.46522386395372 151.2411915055709,79.92457923812617 156.81780567124952,80.05003202818625 156.96292202500626,85.0680824318988 157.93727468582802,86.32257637426665 161.35787445295136,86.57347426713386 164.09435426665004,86.14694767160108 164.7784742200747,84.89245268440573 164.86139785067644,80.15039420659014 166.14671412692405,79.94966980209574" stroke="#4dd2ff" stroke-linecap="round" stroke-linejoin="round" stroke-width="0.5"><title>2020-10-31 16.1km</title></polyline><polyline fill="none" points="43.75951158849057,145.761389791267 44.82470653869677,145.432777707465 44.9500235915184,140.22547222660796 50.29688451765105,140.22547222660796 50.75638037850149,139.92213010900014 50.6728356765816,133.72880050521053 51.15321771276649,133.299052568138 51.15321771276649,132.21203919932304 48.96016928611789,131.75700869564025 48.79307988227811,130.51830960832012 54.891843125922605,130.4171909965662 54.891843125922605,125.86680364538915 53.07474585820455,124.3752665783395 53.26272143761162,122.40338793848059 51.21587623923551,121.61968749793596 50.944355957908556,120.76014175424643 51.21587623923551,118.83879163158417 49.48232367343735,114.89491324004484 49.73295777931344,111.96223824148183 50.98612830892671,111.78526517875434 51.34119329228997,109.91439806656854 51.13233153731562,109.20649810468603 49.94181953428779,108.16992604600091 51.11144536186475,107.28504345616966 53.429810841567814,106.90580693188531 50.651949501014315,95.07328716090706 50.505746272508986,93.17698871866742 38.746829470503144,93.50568166191806 38.57974006643053,94.44118956179591 37.013276904588565,94.56760923215188 36.01074048085138,94.59289315722708 35.446813742630184,93.73323801692459 27.9277905652998,94.06193009913841 27.63538410840556,94.23891793265648 27.739814985892735,96.74201578182692 25.00372599635739,96.94428502653318 25.692969787749462,116.13370344431314 29.87020488618873,116.15898480186297 30.49679015087895,118.7123864088353 30.455017799977213,123.31348804700247 26.02714859554544,123.59157341340324 26.444872105377726,130.59414853557246 30.914513660711236,130.6447078052879 30.93539983627852,139.69462323650077 31.290464819641784,140.22547222660796 36.783528974163346,140.32658616956905 36.92973220255226,145.432777707465 37.68163452018052,146.49444568493345 38.45442301349249,146.77250070711307 42.46456870797556,146.26694585071527 43.78039776405785,146.4438901872636 44.9500235915184,145.3316661948047 44.991795942536555,140.50353545392863 48.25003931939136,140.14963673781313 48.7095351802418,140.88271199556766 48.939283110550605,140.30130768836534 50.81903890497051,140.12435823548003 50.6728356765816,134.03215146683215 51.174103888333775,133.47600770634017 51.21587623923551,132.33843638843973 48.96016928611789,131.88340615553898 48.96016928611789,130.69526706302713 55.01716017886065,130.31607233666 54.82918459945358,125.91736404041876 53.91019287786912,125.46232005207276 53.0329735071864,124.40054695481376 53.304493788513355,122.52979096450144 52.92854262958281,122.1000203690055 51.84246150404215,122.02417840897397 51.11144536186475,121.29103806550847 51.21587623923551,118.7882295515301 49.31523426948115,114.71794262102048 49.62852690194268,112.24033847077226 50.77726655383594,112.06336563969671 51.11144536186475,110.29362921844586 50.98612830892671,109.3834733163676 49.75384395476431,108.32161983397964 50.69372185203247,107.53786742944794 53.283607613062486,107.05750162285403 51.02790065982845,97.93034483556403 50.27599834220018,93.50568166191806 49.900047183269635,93.15170462500828 47.66522640560288,93.07585232600104 39.10189445374999,93.5309657134494 38.51708153996151,93.68266995916201 38.412650662474334,94.4664735019469 36.01074048085138,94.59289315722708 35.2588381631067,93.70795398950577 27.802473512361757,94.16306602212717 27.802473512361757,96.71673211270536 25.00372599635739,97.04541957672336 25.65119743673131,116.20954750776582 29.849318710621446,116.20954750776582 30.41324544895906,118.6365432391467 30.538562501897104,121.31631880915666 30.41324544895906,123.4651710192702 26.06892094668001,123.56629294062441 26.361327403457835,130.6194281719363 30.789196607773192,130.7205466874293 31.060716889216565,140.07380122189352 31.2695786440745,140.32658616956905 36.679098096559756,140.30130768836534 36.88795985165052,145.432777707465 37.639862169278786,146.51972342927183 38.28733360953629,146.87361153404345 40.64747144014109,147.0 43.98925951891579,146.5955566441553 44.803820363245904,145.17999883562152 44.84559271414764,140.37714312299795 46.746234683902,140.27602920416393 47.331047597690485,140.6552061518014 48.56333195173647,140.60464926454006 48.58421812718734,140.90799040759157 48.751307531259954,140.32658616956905 50.79815272940323,140.1749152370612 50.71460802748334,133.9057552855229 51.174103888333775,133.4254491105239 51.194990063784644,132.36371581723506 48.939283110550605,131.95924459536036 48.89751075964887,130.6447078052879 54.891843125922605,130.3413520061731 54.85007077502087,125.96792442338483 53.99373757978901,125.56344102264848 52.94942880515009,124.34998619873659 53.220949086593464,122.47922976312111 51.174103888333775,121.59440679039108 50.944355957908556,120.83598416572204 51.257648590253666,118.66182429876062 49.5240960244555,115.32469841520651 49.6911854284117,112.08864748173801 50.9025836068904,111.88639266119571 51.29942094127182,109.86383386187663 51.11144536186475,109.20649810468603 49.900047183269635,108.2204906539846 50.81903890497051,107.41145548048371 53.36715231498238,106.8552420107444 50.42220157047268,93.27812506306509 49.77473013033159,93.0 38.705057119368576,93.50568166191806 38.49619536451064,94.39062167257362 37.15948013297748,94.56760923215188 36.03162665630225,94.49175743905653 35.57213079556823,93.80909008106391 35.09174875926692,93.73323801692459 27.698042634874582,94.18834999532555 27.78158733691089,96.61559740603843 24.982839821022935,96.9948523077037 25.42144950630609,110.31891127106792" stroke="#ff0000" stroke-linecap="round" stroke-linejoin="round" stroke-width="0.5"><title>2020-11-08 20.9km</title></polyline><polyline fill="none" points="165.3264540361124,144.2881954717741 163.61326706543332,144.3258597408858 163.36407623335253,143.94921664825233 164.0026277405559,143.4972437573888 164.7813490909175,143.3842503335618 165.0305399229983,142.51796474540606 164.57888153981185,141.53867969164276 163.37965066032484,140.67238403069496 162.95914113114122,139.61775684425083 163.11488540121354,137.60264612622268 162.46075946697965,137.6214790551312 162.46075946697965,137.357817847369 163.23948081722483,136.11483768258768 164.6411792478757,135.9076733753609 166.43223835353274,136.6421637898602 166.29206851049094,135.9076733753609 165.37317731708754,135.9641727586859 164.9059445069288,136.3220017193962 162.74109915306326,136.2843355509831 162.41403618594632,136.02067212188558 159.82868130289717,136.2278362816578 159.03438552562147,136.05833835290105 158.84749240154633,136.39733402935963 157.89745235425653,136.52916548577195 157.44579397101188,135.9265065053478 152.78904029622208,136.171336992149 152.6955937341554,138.65728670240787 151.91687238385202,139.33526622940553 151.55866056273226,139.31643350388913 151.46521400066558,133.6100147459074 151.94802123785485,133.4593474441208 152.025893372891,133.17684586773976 151.51193728169892,131.85849852905085 151.26274644955993,125.96346859971527 151.44963957369328,111.06482899079856 150.9824067634181,96.22130374016706 151.2160231685266,93.01883822371019 150.826662493404,93.0 150.79551363940118,95.69384327904845 150.93568348244298,96.59806013847992 151.57423498970456,96.59806013847992 150.34385525627295,98.14275201629789 150.84223692043452,99.48021697970398 150.93568348244298,105.35739415801072 150.57747166132322,105.4704146622098 150.53074838028988,105.94133256319037 150.93568348244298,106.22388263282483 151.02913004450966,106.84549101466837 151.04470447148196,115.51008154658484 150.966832336504,115.90562764673086 150.20368541317293,116.11281806763145 150.37500411021756,116.52719809762493 150.92010905547068,116.62137522628473 151.04470447148196,118.14703692238254 151.12257660651812,131.80199768405873 150.4217273912509,131.85849852905085 150.37500411021756,132.23517031475785 151.12257660651812,132.44233941582206 151.16929988755146,139.14693887348403 152.5709983180859,139.07160786859458 152.58657274505822,137.03765722052776 152.8201891502249,136.6986629117455 155.81047913542716,136.5668315961084 156.9318378798198,136.83049411786487 159.03438552562147,136.3596678788599 162.3828873320017,136.43500017090992 163.0681621201802,139.73075294941373 161.93122894881526,141.53867969164276 162.18041978083784,142.63095878591412 162.04024993785424,143.25242457080458 162.44518503994914,143.8173913546634 163.69113920041127,143.685565951615 164.9059445069288,142.1224849702412 163.64441591943614,140.8607095766056 162.95914113114122,140.40872789100104 162.46075946697965,140.4275604869472 161.91565452172654,141.59517707052873 162.16484535386553,142.68745577601658 162.02467551082373,143.29008908562537 162.85012014210224,144.23169905146642 166.43223835353274,144.26936333392223 166.6502803316107,144.90965476816928 169.79631458682707,145.06031120089756 169.46925161971012,145.9265829139622 168.58150928036775,147.0 167.72491579497,146.73635437067423" stroke="#4dd2ff" stroke-linecap="round" stroke-linejoin="round" stroke-width="0.5"><title>2020-12-18 10.3km</title></polyline><polyline fill="none" points="28.46882125234697,170.54490705928765 30.598678221576847,168.57316231387085 30.665236251894385,166.4404459093057 29.96637693385128,165.55516346302466 31.097863448783755,163.70411088110995 33.19444140291307,165.3942027700541 33.19444140291307,166.8830862659088 34.05969579669181,168.93532037129626 36.22283178102225,169.29747804198996 38.552362841321155,171.0680210882274 39.98336049239151,170.90706301142927 38.35268875036854,170.82658394434839 36.355947841657326,169.37795747199561 33.660347614903,168.61340211707284 33.19444140291307,165.71612407968496 30.731794282211922,162.81882129251608 29.200959585490637,156.4607645345095 27.470450797933154,153.0 26.405522313318215,153.08048329726444 25.473709889221936,154.12676442333031 24.04271223815158,157.54727634854498 23.74320110178087,160.28366105048917 24.04271223815158,161.28967928732163 25.274035798502155,161.73232636635657 26.23912723758258,164.9515604703338 28.50210026744753,164.5491578783258 30.898189357831143,166.6416461429617 31.164421478984877,168.73412149815704 27.33733473753091,171.51065540555282 27.570287843351252,174.56884036160773 28.535379282664508,176.01744466411765 32.362466024351306,178.43177142034983 33.7601846603211,180.88631933912984 35.29101935704239,186.07702611302375 35.25774034182541,193.11855562624987 37.15464420511853,197.06174830917735 38.65219988662284,198.67120153826545 38.88515299267601,200.76347932082717 40.74877784063574,202.77527271167492 41.713869279948995,205.95388195323176 43.21142496156972,206.718353150849 46.17325730936136,206.6781178676465 48.236556248390116,205.71246963812155 50.79904041439295,197.98718484895653 52.26331708091311,197.0215118806227 56.19024086790159,196.3777283745876 56.82254215574358,195.17063100766973 56.32335692853667,193.40021376663935 55.02547533798497,193.11855562624987 54.26005798962433,193.52092432667268 51.53117874765303,192.23334280590643 50.965435490128584,190.54338464321336 49.66755389946047,189.69840240463964 48.73574147548061,186.76106681858073 48.73574147548061,184.74917845253367 46.938674657722004,180.68512755504344 45.07504980964586,180.04131304399925 40.94845193158835,180.3632204523892 39.816965416655876,179.75964381117956 39.98336049239151,177.9891461348452 43.24470397667028,176.25887811300345 44.076679355232045,174.68955762311816 43.94356329459697,173.52262229542248 41.314521098160185,171.51065540555282 38.85187397757545,171.30945806016098 36.95497011416592,169.7803543348855 34.126253826892935,168.77436128241243 33.32755746343173,165.71612407968496 31.064584433683194,163.4224280808121 29.40063367644325,157.06438263872406 28.235868146293797,155.57545603849576 27.80324094952084,153.4828994970594 26.605196404270828,153.20120820726152 25.17419875296764,154.8108695682604 24.07599125325214,157.5070352323528 24.17582829867024,161.4908825768216 25.540267919539474,162.09449172834866 26.472080343752168,165.31372239481425 28.335705191711895,164.75035923396354 30.86491034273058,166.92332626963616 30.964747388032265,168.93532037129626 27.23749769187998,171.99352854758035 27.304055722313933,174.8907529633725 28.002915040240623,175.93696680958965 32.12951291818172,178.71344175579725 33.29427844833117,180.52417404184234 35.09134526620619,187.28415583918104 34.924950190470554,193.31974003615323 38.45252579578664,199.11379983776715 38.81859496247489,201.2463108226366 40.28287162864581,203.17762995816884 41.41435814357828,206.31600010371767 44.67570162785705,207.0 48.203277233289555,205.71246963812155 48.83557852089871,202.65456544459448 50.20001814188436,200.56229932548013 50.20001814188436,198.55049281098763 51.53117874765303,197.74576686462387 53.760872762301005,197.94694853009423 56.356635943753645,196.57891085144365 56.689426094992086,195.61323387434823 55.6910556408111,194.12447648204397 55.92400874674786,193.56116117039346 50.7657613994088,192.43452774063917 48.56934639986139,188.08890660351608 48.16999821807258,184.26632346902625 46.17325730936136,180.48393565163133 44.14323738554958,179.96083614428062 40.11647655302659,180.56441242725123 38.85187397757545,179.75964381117956 38.91843200777657,178.35129413864342 43.24470397667028,175.73577208982897 43.84372624929529,173.96525340958033 40.74877784063574,171.3899370126892 38.51908382610418,171.30945806016098 36.189552765805274,169.69987500048592 33.52723155426793,168.9755601315701 33.02804632729385,165.71612407968496 30.631957236793824,163.30170680914307 29.134401555289514,157.10462380744866 27.769961934303865,155.25352510318044 27.50372981315013,153.28169145676657 26.272406252799556,153.20120820726152 25.14091973786708,154.32797196219326 23.177457844256423,159.5190851945663 23.610085041145794,162.13473230035743 25.107640722650103,165.3942027700541 25.506988904438913,169.29747804198996" stroke="#4dd2ff" stroke-linecap="round" stroke-linejoin="round" stroke-width="0.5"><title>2021-03-07 10.3km</title></polyline><polyline fill="none" points="165.40307423274498,201.67556077208428 171.19055690884124,201.52047806182236 171.0410647363169,194.670881251237 171.55360932764597,194.38655369565822 171.51089727832004,193.37848027182918 169.2685146916192,192.99075847845234 169.2258026424097,191.54325766759575 175.29091363877524,191.56910598093236 174.05226420995314,190.35423192767485 174.41531662875786,188.98425941767346 173.58243166795,188.93256217263115 173.45429552008864,188.59652977983933 174.41531662875786,186.32183529587928 173.4115834707627,184.97768644774624 173.81734793889336,183.29748868889874 171.66038945072796,182.49615902584628 171.3186930567026,181.4880304113176 171.66038945072796,179.42005963326665 169.8664833813673,175.64596220001113 170.1227556769736,172.59561634526472 171.25462498271372,172.49221403998672 171.72445752471685,170.52756088520982 171.57496535219252,169.80373682112258 170.27224784949794,168.7179962010996 171.36140510591213,167.81320820417022 173.8600599882193,167.3478871948464 171.48954125365708,157.42080143894418 170.91292858857196,153.36194034307846 170.5712321944302,153.103411588163 158.88948671892285,153.7755857105367 158.67592647264246,154.62872679214342 157.05286860035267,154.75799029991322 155.98506736860145,154.75799029991322 155.3657426541904,153.82729132613167 147.67757378553506,154.29264131169475 147.61350571154617,156.74863860174082 144.70908636122476,157.18812992313178 145.24298697710037,167.42544076564081 147.39994546526577,167.3737383881671 149.8131762490375,168.0458683349134 152.3972552298801,167.63225015238277 152.90979982109275,167.81320820417022 153.03793596895412,168.35608145470906 152.9952239197446,183.11654353958147 152.46132330375258,184.12466459463758 145.84095566684846,184.22806136132567 146.09722796245478,191.59495429124217 150.68877325905487,191.64665090259223 150.96640157932416,201.10692362660484 151.32945399812888,201.44293666521844 156.75388425542042,201.41708952687623 156.83930835395586,206.35383714888303 157.1382926988881,207.0 164.741037469008,206.8966140729608 165.08273386314977,201.57217231088725 166.94070800638292,201.41708952687623 167.83766104106326,201.93403170979582 167.58138874545693,201.41708952687623 171.0410647363169,201.31370094264275 170.95564063778147,194.61918535975565 171.40411715512164,194.38655369565822 171.4254731797846,193.24923975087586 169.2258026424097,192.75812507013325 169.1617345684208,191.56910598093236 173.1980232244823,191.5174093511887 173.21937924914528,190.8712004404806 173.8600599882193,190.27668654470472 174.2871804808965,188.93256217263115 173.3688714215532,188.75162171806733 173.32615937234368,188.07955585270247 174.94921724451706,186.5544755980809 173.28344732301775,185.10693189076846 173.71056781581137,183.24579009017907 171.66038945072796,182.41861083704862 171.29733703192323,181.07443783099006 171.74581354937982,179.7819559409254 169.8664833813673,175.82691357391013 170.1227556769736,172.59561634526472 171.29733703192323,172.49221403998672 171.66038945072796,170.65681492847216 171.51089727832004,169.67448227007117 170.27224784949794,168.64044309203746 171.1051328103058,167.9166127374192 173.77463588968385,167.3737383881671 170.891572563909,153.51705744820356 170.10139965242706,153.07755869578978 159.12440298998263,153.6204687900463 158.63321442331653,153.80143851986213 158.5477903247811,154.499463207394 157.2450728220865,154.62872679214342 156.04913544247393,154.52531593047024 155.4725227773888,153.72388008273265 147.67757378553506,154.18923029002326 147.57079366233665,156.74863860174082 144.9012905829586,157.11057269573212 145.2216309524374,167.50299430869927 147.6562177608721,167.45129194977926 149.79182022437453,168.071719445099 152.33318715600763,167.65810131184116 152.95251187030226,167.86491047692834 153.08064801816363,168.30437929886102 153.01657994429115,177.22281910476158 149.89860034757294,177.5847190740751 150.43250096344855,179.23911125329323 150.36843288957607,184.07296619286353 145.84095566684846,184.35730725049507 146.07587193779182,191.5174093511887 150.75284133292735,191.59495429124217 150.88097748078872,200.79675728346047 151.24402989959344,201.31370094264275 156.86066437861882,201.41708952687623 157.11693667422514,206.81907459543436 162.30645066057332,206.50891640846385 164.82646156754345,206.84492109098937 165.14680193702225,206.01783170668932 165.18951398623176,201.57217231088725 167.0688441542443,201.36539524092223 167.94444116426166,201.8823375467764 167.75223694252782,201.3912423854781 171.16920088417828,201.36539524092223 171.08377678564284,195.91157895680226 171.59632137685549,193.19754352103337 169.39665083936416,192.91321403665643 169.31122674082872,191.59495429124217 173.2620912984712,191.41401605468127 174.41531662875786,188.93256217263115 173.58243166795,188.77747036362416 173.4756515447516,188.2087994499161 175.05599736771546,186.60617340920726 173.49700756941456,185.15863004645507 173.81734793889336,183.21994078624994 171.74581354937982,182.28936379408697 171.44682920444757,181.30708375437825 171.74581354937982,179.52345863981463 169.9732635046821,175.82691357391013 170.25089182483498,172.54391519879573 171.3186930567026,172.31125988735585 171.78852559858933,170.42415759513096 171.6390334261814,169.70033318648348 170.37902797269635,168.61459204938728 171.36140510591213,167.7873570631491 173.83870396355633,167.29618479894998 170.891572563909,153.23267600413237 170.48580809577834,153.0 158.84677466971334,153.59461595928587 158.59050237410702,154.4477577519574 156.88202040328179,154.70628490610397 157.67219331476372,161.60884608951164 159.63694758119527,163.0823981440044 160.34169639414176,166.1070262950234 161.6230578722898,165.8226613401057 163.09662357217167,166.46894478991453 163.71594828658272,166.36553956728312 167.26104837597813,164.81445531739155 168.54240985412616,167.9166127374192" stroke="#ff0300" stroke-linecap="round" stroke-linejoin="round" stroke-width="0.5"><title>2021-03-14 20.7km</title></polyline><polyline fill="none" points="59.34975949092768,247.8251945355878 59.65300199034391,247.265818953907 59.34975949092768,246.6190382807108 59.21979841974098,244.92341055572615 59.56636127625825,243.2102822430752 59.26311877678381,239.25952236777812 59.42196008603787,237.28410255510244 58.974316396343056,235.99045039631892 59.60968163330108,234.2772178271698 59.71076246647863,232.7038233626372 59.43640020507155,231.54999003575358 60.24504687037552,229.9416011727153 60.27392710838467,229.41712273260055 60.05732532311231,228.17584962426918 59.49416068114806,227.79122765743523 59.291999014792964,225.69327191267803 59.320879252802115,224.92401395867637 59.9273642518674,224.55686669547867 60.14396603719797,223.73515282585868 59.985124727885704,221.25249999342486 59.205358300649095,219.60903064816375 59.58080139529193,217.1612762259174 59.30643913382664,215.3429179379018 59.768522942613345,214.4861836275959 59.27755889581749,214.20643256539188 59.46528044313891,213.12239216161834 58.569993063632865,213.0 58.20899008802371,213.7868049720273 58.23787032614928,214.29385482960788 57.58806497009937,214.50366805130034 57.48698413692182,214.95826233569824 57.41478354186984,225.36109283630503 57.86242723156465,225.97300107812043 57.83354699349729,226.96953189681517 58.31007092125947,227.19680990789493 59.869603775732685,227.2142928172252 60.28836722741835,229.81922303765896 59.50860080018174,231.3926484247495 59.72520258551231,232.35417785785103 59.65300199034391,234.0674328730529 59.046516991453245,235.81563166252454 59.42196008603787,237.1442488173343 59.24867865775013,238.03581411277992 59.58080139529193,243.0704341513192 59.26311877678381,244.83600653392205 59.63856187136844,247.10849418754515 59.320879252802115,247.89511633339862 59.58080139529193,248.1573227787303 59.291999014792964,247.96503809794376 59.060957110486925,248.57685211711214 59.032076872419566,250.39479873033997 59.46528044313891,250.98912254812603 59.27755889581749,252.23020276294847 58.75771461095428,252.47492156700173 57.47254401788814,252.45744166597433 56.92381949501578,252.07288331637392 54.80112199863652,251.96800359165354 51.78313712280942,252.12532315061253 51.33549343311461,252.5098813628574 50.757888672174886,252.54484115040395 50.079203078115825,252.12532315061253 48.59187081869459,252.33508230029838 45.328403919469565,251.8631237919908 39.76895809563575,252.40500195030472 37.29969774262281,252.14280309117748 30.252919659367763,252.12532315061253 28.707826923870016,252.6147607004532 27.56705752108246,254.17046207729436 27.06165335525293,253.96070554973267 25.48768038174603,252.43996176282235 23.769306218018755,251.6533639680274 21.96429134014761,252.38752204089542 20.433638723683544,252.47492156700173 19.91379443887854,253.9956649918022 19.76939324865816,255.88346250246104 19.82715372473467,260.5154554043402 20.419198604649864,263.36449544092466 19.783833367633633,267.0 20.375878247548826,263.1197947857145 19.783833367633633,260.323186907699 19.711632772581652,254.99200559155724 20.072635748132598,252.9643579514086 20.390318366582505,252.45744166597433 22.022051816282328,252.28264254098758 23.884827170171775,251.6009239651612 25.458800143678673,252.45744166597433 27.465976687904913,254.1355026768142 28.751147280971054,252.5273612576566 30.44064120668918,252.03792341641383 33.992910486413166,252.21272283274448 36.47661095834337,252.07288331637392 39.82671857171226,252.40500195030472 45.184002729307394,251.75824391748756 48.50523010455072,252.24768269102788 50.00700248294743,252.0029635082028 50.58460724388715,252.45744166597433 51.32105331408093,252.45744166597433 51.7975772418431,252.1078432079521 57.90574758866569,252.07288331637392 59.046516991453245,252.40500195030472 59.40751996700419,252.12532315061253 59.50860080018174,250.97164247020555 59.089837348496076,250.6045603525563 58.98875651531853,249.83543293927505 59.075397229462396,248.38456798587868 59.65300199034391,247.10849418754515 59.291999014792964,245.779967215145 59.58080139529193,242.9131048887939 59.27755889581749,239.15463348849153 59.37863972899504,237.23165741904813 58.9454361582757,236.21771443889884 59.59524151432561,234.22477161676215 59.6674421094358,232.35417785785103 59.46528044313891,231.3751660130947 60.25948698935099,229.3471921323362 60.20172651327448,228.45557405798172 59.42196008603787,227.8436761668272 59.55192115728278,226.7422535338119 59.291999014792964,225.48347468876455 59.36419960990315,224.7666652440821 59.985124727885704,224.45196730877797 60.1295259182225,223.7876027848106 59.941804370842874,221.2000491284125 59.147597824572586,219.92373896879144 59.55192115728278,217.30114900712215 59.320879252802115,215.3604022594809 59.7974031806807,214.6260589587182 59.30643913382664,214.31133927618794 59.45084032404702,213.15736133191967 58.8732355631073,213.01748460080125 57.775786517420784,213.3846607356536" stroke="#4dd2ff" stroke-linecap="round" stroke-linejoin="round" stroke-width="0.5"><title>2021-03-21 15.0km</title></polyline></svg>