<?xml version="1.0" encoding="utf-8" ?>
<svg baseProfile="full" height="200mm" version="1.1" viewBox="0,0,200,200" width="200mm" xmlns="http://www.w3.org/2000/svg" xmlns:ev="http://www.w3.org/2001/xml-events" xmlns:xlink="http://www.w3.org/1999/xlink"><defs /><rect fill="#1a1a1a" height="200" width="200" x="0" y="0" /><text alignment-baseline="middle" fill="#e1ed5e" style="dominant-baseline: central; font-size:9.0px; font-family:Arial;" text-anchor="middle" x="100.0" y="100.0">2020</text><line stroke="#e1ed5e" stroke-width="0.3" x1="100.0" x2="100.0" y1="15.0" y2="10.0" /><path d="M 100.0 14.0 a86.0,86.0 0 0,1 42.35913384403234,11.155469271406648" fill="none" id="id1" stroke="none" /><text fill="#e1ed5e" style="font-size:6.75px; font-family:Arial;" text-anchor="middle"><textPath startOffset="22.145653131862478" xlink:href="#id1">January</textPath></text><line stroke="#e1ed5e" stroke-width="0.3" x1="143.13028292997686" x2="145.6673583964461" y1="26.7553504044142" y2="22.446841604673864" /><path d="M 143.63769802327073 25.89364864446614 a86.0,86.0 0 0,1 29.32050498858742,28.57503671076993" fill="none" id="id2" stroke="none" /><text fill="#e1ed5e" style="font-size:6.75px; font-family:Arial;" text-anchor="middle"><textPath startOffset="20.669276256404974" xlink:href="#id2">February</textPath></text><line stroke="#e1ed5e" stroke-width="0.3" x1="172.87174338648825" x2="177.1583165268699" y1="56.24261187166439" y2="53.66864786411523" /><path d="M 173.72905801456457 55.72781907015455 a86.0,86.0 0 0,1 12.242430191666344,42.057860355516425" fill="none" id="id3" stroke="none" /><text fill="#e1ed5e" style="font-size:6.75px; font-family:Arial;" text-anchor="middle"><textPath startOffset="22.145653131862474" xlink:href="#id3">March</textPath></text><line stroke="#e1ed5e" stroke-width="0.3" x1="184.99686870605535" x2="189.99668451229388" y1="99.2704041080226" y2="99.22748670261217" /><path d="M 185.99683186730306 99.26182062694052 a86.0,86.0 0 0,1 -10.086455211305974,41.156179273409016" fill="none" id="id4" stroke="none" /><text fill="#e1ed5e" style="font-size:6.75px; font-family:Arial;" text-anchor="middle"><textPath startOffset="21.40746469413373" xlink:href="#id4">April</textPath></text><line stroke="#e1ed5e" stroke-width="0.3" x1="174.33088141563837" x2="178.70328620479359" y1="141.23008692659167" y2="143.65538615756765" /><path d="M 175.20536237346943 141.71514677278685 a86.0,86.0 0 0,1 -30.301960400862466,31.631185727798858" fill="none" id="id5" stroke="none" /><text fill="#e1ed5e" style="font-size:6.75px; font-family:Arial;" text-anchor="middle"><textPath startOffset="22.145653131862474" xlink:href="#id5">May</textPath></text><line stroke="#e1ed5e" stroke-width="0.3" x1="143.1302829299769" x2="145.66735839644613" y1="173.24464959558577" y2="177.55315839532614" /><path d="M 143.63769802327073 174.10635135553383 a86.0,86.0 0 0,1 -40.68552437913181,11.842963189579606" fill="none" id="id6" stroke="none" /><text fill="#e1ed5e" style="font-size:6.75px; font-family:Arial;" text-anchor="middle"><textPath startOffset="21.407464694133747" xlink:href="#id6">June</textPath></text><line stroke="#e1ed5e" stroke-width="0.3" x1="101.45913802915013" x2="101.54496967792366" y1="184.9874750549273" y2="189.98673829345242" /><path d="M 101.47630435890484 185.9873277026323 a86.0,86.0 0 0,1 -42.54439059252881,-10.42667462771756" fill="none" id="id7" stroke="none" /><text fill="#e1ed5e" style="font-size:6.75px; font-family:Arial;" text-anchor="middle"><textPath startOffset="22.145653131862474" xlink:href="#id7">July</textPath></text><line stroke="#e1ed5e" stroke-width="0.3" x1="58.13341422392154" x2="55.67067388415222" y1="173.97424548756322" y2="178.32567169271397" /><path d="M 57.64086615596768 174.84453072859336 a86.0,86.0 0 0,1 -31.369924170532247,-30.572349798747897" fill="none" id="id8" stroke="none" /><text fill="#e1ed5e" style="font-size:6.75px; font-family:Arial;" text-anchor="middle"><textPath startOffset="22.145653131862474" xlink:href="#id8">August</textPath></text><path d="M 88.72937992617639 117.7192867562869 l -1.7414996323697978 2.7379266774858024 a24.24485183958106,24.24485183958106 0 0,0 -0.3492579059653972,-0.22638475503246247 l 1.7882431705922046 -2.7076280807494455" fill="#ff1101" stroke="none" /><path d="M 87.83215693770417 117.11559508785305 l -4.867212115292119 6.846343377830729 a29.400129250339727,29.400129250339727 0 0,0 -0.4088283827885415,-0.29596022119304743 l 4.984021508454615 -6.761782385264617" fill="#ff5b08" stroke="none" /><path d="M 87.54013794807813 116.9041958592261 l -1.652798947329818 2.242339201281646 a23.785647044027467,23.785647044027467 0 0,0 -0.32659620152232316,-0.24508387831149867 l 1.6910481377629074 -2.213636295706132" fill="#ff0a01" stroke="none" /><path d="M 86.68645165197938 116.24036423190432 l -2.8311223683849422 3.453508955371684 a25.465644183049292,25.465644183049292 0 0,0 -0.3356925669985212,-0.28004667871003763 l 2.889989269545356 -3.4044000927497757" fill="#ff2303" stroke="none" /><path d="M 86.13680546590413 115.77377054828092 l -9.457707130562156 10.761134587227904 a35.32655721979007,35.32655721979007 0 0,0 -0.45207054318490175,-0.4042442673212394 l 9.641042700570429 -10.597194790023282" fill="#ffac0f" stroke="none" /><path d="M 85.60350026404147 115.28858382429668 l -5.086008772520062 5.401165066225321 a28.41889946735793,28.41889946735793 0 0,0 -0.35229625965623,-0.33749184748686717 l 5.177977518041606 -5.313061088432871" fill="#ff4d07" stroke="none" /><path d="M 84.83555147118756 114.52719865689866 l -2.87679293868044 2.755902559566856 a24.983834400407325,24.983834400407325 0 0,0 -0.29402899633143764,-0.3122486048437872 l 2.9236777687481306 -2.7061124947785786" fill="#ff1c02" stroke="none" /><path d="M 84.3458050057657 113.99807769240083 l -5.0698098019070414 4.533455186863875 a27.801116625879583,27.801116625879583 0 0,0 -0.31506467459791265,-0.358485764067825 l 5.146885540463547 -4.445757144984749" fill="#ff4506" stroke="none" /><path d="M 83.64595745247003 113.17365903436017 l -6.973381204696939 5.617262278748815 a29.954422423265214,29.954422423265214 0 0,0 -0.31913380222988424,-0.4032151338386648 l 7.0687814375683855 -5.49672720099547" fill="#ff6309" stroke="none" /><path d="M 83.20337586046588 112.60449989151573 l -5.6504359361257945 4.240192466787531 a28.064464482440513,28.064464482440513 0 0,0 -0.28585391782168323,-0.38781573935961206 l 5.722391873531309 -4.142570418159039" fill="#ff4806" stroke="none" /><path d="M 82.78059297857968 112.02048342749411 l -7.743345729482417 5.405456697714042 a30.44342973697349,30.44342973697349 0 0,0 -0.2954611155684156,-0.43108659757673373 l 7.834996581866157 -5.271735365067257" fill="#ff6a09" stroke="none" /><path d="M 82.576782715395 111.72311816256416 l -5.890487555429092 3.963382911399793 a28.099735751634768,28.099735751634768 0 0,0 -0.2658443222207311,-0.40252218702128606 l 5.95765631657055 -3.8616808460394463" fill="#ff4906" stroke="none" /><path d="M 82.37810715431573 111.42229804090323 l -5.560952443536577 3.604542188379045 a27.626983964601077,27.626983964601077 0 0,0 -0.2545396490897876,-0.40017860628110746 l 5.622009784252254 -3.508549907419266" fill="#ff4206" stroke="none" /><path d="M 82.18462484594161 111.11811171558189 l -17.225011534437627 10.74968115383402 a41.30410469020005,41.30410469020005 0 0,0 -0.3702264620087344,-0.6047371020924818 l 17.407005960901767 -10.452406935616981" fill="#fff917" stroke="none" /><line stroke="#e1ed5e" stroke-width="0.3" x1="26.387840678322732" x2="22.057713659400548" y1="142.50000000000003" y2="145.00000000000006" /><path d="M 25.521815274538298 143.00000000000003 a86.0,86.0 0 0,1 -11.493303480769221,-40.785679425670985" fill="none" id="id9" stroke="none" /><text fill="#e1ed5e" style="font-size:6.75px; font-family:Arial;" text-anchor="middle"><textPath startOffset="21.40746469413373" xlink:href="#id9">September</textPath></text><path d="M 81.81346652052679 110.50000000000001 l -5.692645963095753 3.2866506791945738 a27.57330135838914,27.57330135838914 0 0,0 -0.23314753987907705,-0.41194936320053754 l 5.748226867996209 -3.1884445458949147" fill="#ff4106" stroke="none" /><path d="M 81.4637452351635 109.86951160357371 l -8.721625518751651 4.643774341224282 a30.880859872579563,30.880859872579563 0 0,0 -0.24512334113687095,-0.4700563273539743 l 8.800056928863471 -4.493371770765805" fill="#ff700a" stroke="none" /><path d="M 81.29705330413844 109.54985784667822 l -8.335871582980964 4.256355425706661 a30.359664340022675,30.359664340022675 0 0,0 -0.23301777777082802,-0.46619164796279133 l 8.40770927396353 -4.112631921580117" fill="#ff6909" stroke="none" /><path d="M 81.1358732173502 109.22738970284198 l -10.001133886824498 4.892055747256023 a32.133502973298654,32.133502973298654 0 0,0 -0.23812569414533863,-0.49759111579859566 l 10.083638838929748 -4.7196521293923235" fill="#ff810b" stroke="none" /><path d="M 80.83023694016515 108.57439118712176 l -3.4535203660704648 1.5447157327376613 a24.783245909775193,24.783245909775193 0 0,0 -0.17037433347681433,-0.38984981705101357 l 3.479528581564247 -1.4852038459107983" fill="#ff1902" stroke="none" /><path d="M 80.68587082218212 108.24405325689762 l -4.632267087887753 1.9772393681916571 a26.03660340831547,26.03660340831547 0 0,0 -0.1719335232755529,-0.4125778656598915 l 4.6655264556997915 -1.8974289930904842" fill="#ff2b04" stroke="none" /><path d="M 80.41425534168474 107.57618678355246 l -11.39457866243431 4.4076678100586175 a33.21736298954198,33.21736298954198 0 0,0 -0.20115377794608177,-0.5335842945084551 l 11.468563124194828 -4.211415235356018" fill="#ff900d" stroke="none" /><path d="M 80.16572619554312 106.89939002012753 l -7.560505777057225 2.62993637274604 a29.00486183076312,29.00486183076312 0 0,0 -0.15954687555868266,-0.47167198796732895 l 7.604538074188275 -2.49976271030455" fill="#ff5607" stroke="none" /><path d="M 80.05021161711548 106.5578916946017 l -8.43746702361078 2.77356300005085 a29.881638446242363,29.881638446242363 0 0,0 -0.15600390114738524,-0.4886799984036893 l 8.483835640535421 -2.628313967955769" fill="#ff6209" stroke="none" /><path d="M 79.83685265289637 105.86919833188381 l -6.501881000428611 1.8926027997957515 a27.771735516212168,27.771735516212168 0 0,0 -0.12931248459434788,-0.45888438874225573 l 6.533411977097534 -1.7807104871505" fill="#ff4406" stroke="none" /><path d="M 79.73907114497094 105.5222062557868 l -3.1987628986281864 0.8718370522878952 a24.315446263684912,24.315446263684912 0 0,0 -0.10630541647302555,-0.40365898154266927 l 3.2132577959059443 -0.8167975663724233" fill="#ff1202" stroke="none" /><path d="M 79.64726062577567 105.17358676015961 l -13.084852431955442 3.326118320285662 a34.5009787143966,34.5009787143966 0 0,0 -0.14098163433767044,-0.5752531781983765 l 13.140021592809404 -3.101009317479186" fill="#ffa10e" stroke="none" /><path d="M 79.48165901384964 104.47187691870673 l -7.349290502002513 1.6017436588542515 a28.521811858289475,28.521811858289475 0 0,0 -0.1001554141841422,-0.4792799135391948 l 7.375703627011022 -1.4753472940296477" fill="#ff4f07" stroke="none" /><path d="M 79.407916724674 104.11899336999214 l -8.163830767310019 1.6329947948773265 a29.32555132092609,29.32555132092609 0 0,0 -0.09450327565509331,-0.49448107151065823 l 8.19066033524727 -1.4926111583333537" fill="#ff5a08" stroke="none" /><path d="M 79.17382384314188 102.69636545807758 l -8.507095460947843 1.101413825404272 a29.578099183179866,29.578099183179866 0 0,0 -0.06087160662389759,-0.5041042248689006 l 8.524749153831403 -0.9552159236119722" fill="#ff5e08" stroke="none" /><path d="M 79.13060592940153 102.33845913500099 l -8.297542917306108 0.9297569909024548 a29.34947103274625,29.34947103274625 0 0,0 -0.05180546062440709,-0.5011708374157575 l 8.312280770412181 -0.7871816312037658" fill="#ff5a08" stroke="none" /><path d="M 79.0935383218832 101.97986365728391 l -10.380291101486492 0.9830243596587375 a31.426733920230348,31.426733920230348 0 0,0 -0.04625173790077841,-0.5375153035177187 l 10.395636462085012 -0.8046880087653568" fill="#ff770b" stroke="none" /><path d="M 79.01933749520258 100.90099992219065 l -10.343871684687077 0.44421035708105266 a31.35340544316744,31.35340544316744 0 0,0 -0.01847658124161536,-0.5379255031311644 l 10.34997295292554 -0.26657858938576834" fill="#ff760a" stroke="none" /><line stroke="#e1ed5e" stroke-width="0.3" x1="15.003131293944662" x2="10.003315487706104" y1="100.72959589197737" y2="100.7725132973878" /><path d="M 14.003168132696942 100.73817937305945 a86.0,86.0 0 0,1 10.791469493833604,-42.45332614584628" fill="none" id="id10" stroke="none" /><text fill="#e1ed5e" style="font-size:6.75px; font-family:Arial;" text-anchor="middle"><textPath startOffset="22.145653131862435" xlink:href="#id10">October</textPath></text><path d="M 79.01933749520258 99.09900007780938 l -62.941987514392274 -2.7029997665718684 a84.0,84.0 0 0,0 0.07423364217371864,-1.440112826493152 l 62.886312282761985 3.7830843864417325" fill="#4dd2ff" stroke="none" /><path d="M 79.0935383218832 98.0201363427161 l -7.40387282580819 -0.7011544543815861 a28.436998748799148,28.436998748799148 0 0,0 0.05019483374380506,-0.48558948338884966 l 7.390745599582721 0.8281484600533485" fill="#ff4e07" stroke="none" /><path d="M 79.22317932658666 96.9465228501225 l -15.194241543261908 -2.2330302644156874 a36.35745422382181,36.35745422382181 0 0,0 0.09605034809470843,-0.61671213663865 l 15.153669703028932 2.4935305829857874" fill="#ffba11" stroke="none" /><path d="M 79.2786578344484 96.59031103205396 l -10.61709288613916 -1.7470385941365194 a31.75987012943508,31.75987012943508 0 0,0 0.09313987611162833,-0.5372060544529761 l 10.585538192535298 1.9290376815100883" fill="#ff7c0b" stroke="none" /><path d="M 79.48165901384962 95.52812308129327 l -14.483430819568456 -3.156596336391498 a35.823422976362295,35.823422976362295 0 0,0 0.1361104788256863,-0.5997278837747356 l 14.427109479185107 3.404758554105242" fill="#ffb310" stroke="none" /><path d="M 79.73907114497095 94.47779374421319 l -6.625363629683203 -1.8057723189535644 a27.86704134933145,27.86704134933145 0 0,0 0.12975625355036205,-0.4604591682135761 l 6.593388884058259 1.9192394110701536" fill="#ff4606" stroke="none" /><path d="M 79.83685265289637 94.1308016681162 l -16.942155075484653 -4.931614424859863 a38.64532344382659,38.64532344382659 0 0,0 0.1908778648687475,-0.6353703324870078 l 16.855000890612278 5.221722360937594" fill="#ffd714" stroke="none" /><path d="M 80.16572619554312 93.10060997987247 l -1.9763111460074156 -0.6874636062736212 a23.092465520811245,23.092465520811245 0 0,0 0.13345227089865508,-0.37328975310925033 l 1.9642187050648172 0.721288315763793" fill="#ff0000" stroke="none" /><path d="M 80.68587082218212 91.75594674310238 l -8.828734443534193 -3.7684617449434197 a30.59936746861735,30.59936746861735 0 0,0 0.2103577092466799,-0.48133960551193944 l 8.762742852270536 3.9194634202312257" fill="#ff6c09" stroke="none" /><path d="M 80.83023694016515 91.42560881287825 l -8.241563858789064 -3.686346685576133 a30.028428807093526,30.028428807093526 0 0,0 0.21451099128848883,-0.4687452290356005 l 8.177068402645528 3.827280896826405" fill="#ff6409" stroke="none" /><path d="M 81.1358732173502 90.77261029715801 l -5.90350595401141 -2.8877005905628983 a27.571924927278573,27.571924927278573 0 0,0 0.21162120250943048,-0.42338416444244736 l 5.853064838290236 2.9886166111691157" fill="#ff4106" stroke="none" /><path d="M 81.29705330413844 90.45014215332179 l -8.136392759996419 -4.154500117347861 a30.135685982451758,30.135685982451758 0 0,0 0.23920836615141516,-0.4587135829006746 l 8.063876324870064 4.2935599433530225" fill="#ff6509" stroke="none" /><path d="M 81.63589988554816 89.8137432299009 l -19.01318197248314 -10.546291535184965 a42.74224813269943,42.74224813269943 0 0,0 0.36140938915929105,-0.638575761065648 l 18.82933921830248 10.871124066349717" fill="#f4ff19" stroke="none" /><line stroke="#e1ed5e" stroke-width="0.3" x1="26.387840678322718" x2="22.05771365940052" y1="57.49999999999999" y2="54.99999999999999" /><path d="M 25.521815274538284 56.99999999999999 a86.0,86.0 0 0,1 29.574782752854787,-30.34633250058573" fill="none" id="id11" stroke="none" /><text fill="#e1ed5e" style="font-size:6.75px; font-family:Arial;" text-anchor="middle"><textPath startOffset="21.40746469413373" xlink:href="#id11">November</textPath></text><path d="M 82.18462484594161 88.88188828441811 l -8.119777333005887 -5.067341591930708 a30.571245203572367,30.571245203572367 0 0,0 0.2816664329456249,-0.44282641614152163 l 8.031593208434371 5.205981682750902" fill="#ff6c09" stroke="none" /><path d="M 82.576782715395 88.27688183743585 l -6.255730379325894 -4.209134583586887 a28.53995865516304,28.53995865516304 0 0,0 0.27698745165661215,-0.4041329698372768 l 6.182553190853969 4.315902288494199" fill="#ff4f07" stroke="none" /><path d="M 83.2033758604659 87.39550010848427 l -22.57950784382889 -16.944083632743244 a49.230057467581034,49.230057467581034 0 0,0 0.5130428919768549,-0.6715896144957809 l 22.285312974497728 17.329194160479908" fill="#a7ff21" stroke="none" /><path d="M 83.8745106332314 86.54754324733833 l -5.176687587496017 -4.318576900763273 a27.74152807799103,27.74152807799103 0 0,0 0.30820234843882555,-0.36306159149715433 l 5.1017906755500775 4.406805274709984" fill="#ff4406" stroke="none" /><path d="M 85.60350026404147 84.71141617570332 l -5.841968689988235 -6.203968301594603 a29.521609053576295,29.521609053576295 0 0,0 0.37193042183260705,-0.3442532458494726 l 5.734608496841675 6.303339293576441" fill="#ff5d08" stroke="none" /><path d="M 85.86807049272753 84.46653392183569 l -3.886824820714717 -4.27230134945613 a26.775808688615705,26.775808688615705 0 0,0 0.3426474395103396,-0.306397453279106 l 3.8129123543809853 4.338394332618638" fill="#ff3605" stroke="none" /><path d="M 86.96720088162412 83.53348406188908 l -4.458174852205631 -5.6327582886797085 a28.18354292473628,28.18354292473628 0 0,0 0.3819407638726503,-0.2969994481354307 l 4.360824143697736 5.7084587884359435" fill="#ff4a06" stroke="none" /><path d="M 87.25179093698888 83.31218511350988 l -3.8131359857441023 -4.991517408648577 a27.281341583341767,27.281341583341767 0 0,0 0.3745949192410191,-0.28110301092126444 l 3.7268880775923305 5.0562394468338425" fill="#ff3d05" stroke="none" /><path d="M 87.54013794807813 83.09580414077388 l -3.4172106574688192 -4.636102551165705 a26.75940756870389,26.75940756870389 0 0,0 0.37210738862876697,-0.26937705326368494 l 3.3371222584660845 4.69408037580247" fill="#ff3605" stroke="none" /><path d="M 87.83215693770416 82.88440491214696 l -3.432786822886455 -4.828644566061343 a26.924511263955587,26.924511263955587 0 0,0 0.3790008427320246,-0.26457202291573795 l 3.349390888980665 4.886861404782208" fill="#ff3805" stroke="none" /><path d="M 88.72937992617638 82.28071324371311 l -6.762522644701441 -10.631808822626423 a33.60028060643797,33.60028060643797 0 0,0 0.48934148058002624,-0.3053852754213607 l 6.579017035331717 10.74632989488932" fill="#ff950d" stroke="none" /><path d="M 89.03521579738668 82.08984904055464 l -3.8643579928096914 -6.312138363476882 a28.401104878075216,28.401104878075216 0 0,0 0.4179929140661864,-0.25099273498484054 l 3.7554323221860706 6.377545098997646" fill="#ff4d07" stroke="none" /><line stroke="#e1ed5e" stroke-width="0.3" x1="56.869717070023135" x2="54.33264160355391" y1="26.7553504044142" y2="22.446841604673864" /><path d="M 56.362301976729285 25.89364864446614 a86.0,86.0 0 0,1 42.16139366436587,-11.88097634709845" fill="none" id="id12" stroke="none" /><text fill="#e1ed5e" style="font-size:6.75px; font-family:Arial;" text-anchor="middle"><textPath startOffset="22.145653131862474" xlink:href="#id12">December</textPath></text><path d="M 90.28995756902619 81.37971332152246 l -1.7153909979758823 -3.2894884213999505 a24.709892228955045,24.709892228955045 0 0,0 0.37779398805278847,-0.19290430218849589 l 1.6586697882095114 3.31845067526128" fill="#ff1802" stroke="none" /><path d="M 90.61103034731259 81.2157712731953 l -3.074331219030443 -6.150721850900296 a27.876255647621573,27.876255647621573 0 0,0 0.42987808002062167,-0.21027491040338514 l 2.9682928897477683 6.202590511400896" fill="#ff4606" stroke="none" /><path d="M 91.5904679813234 80.7573450057729 l -5.391082767378636 -12.335852400299853 a34.46243023553736,34.46243023553736 0 0,0 0.5441206233566764,-0.23225273869870366 l 5.178527068851528 12.42657978865796" fill="#ffa00e" stroke="none" /><path d="M 92.93061703081487 80.22567764915836 l -6.023884986256013 -16.849878418222435 a38.89428939736135,38.89428939736135 0 0,0 0.6306324304863203,-0.2193666952549768 l 5.733746783724688 16.950803546045996" fill="#ffda14" stroke="none" /><path d="M 93.95794788825049 79.88797359093562 l -1.2407322550733457 -4.129994150842848 a25.31233906537688,25.31233906537688 0 0,0 0.4172196538419848,-0.12144656060901728 l 1.1696525888497367 4.150684405754387" fill="#ff2103" stroke="none" /><path d="M 94.6519064749342 79.69241777938228 l -1.3520921439363685 -5.134114101436031 a26.30916949929636,26.30916949929636 0 0,0 0.4377278363185942,-0.11126870427079885 l 1.2637590143923962 5.156568037542094" fill="#ff2f04" stroke="none" /><path d="M 95.00130118170881 79.60360301121753 l -1.478363092332732 -6.032225909359831 a27.210741248379588,27.210741248379588 0 0,0 0.45463686556950705,-0.10729306236239854 l 1.3745940730233188 6.056715115368462" fill="#ff3c05" stroke="none" /></svg>