<?xml version="1.0" encoding="utf-8" ?>
<svg baseProfile="full" height="200mm" version="1.1" viewBox="0,0,200,200" width="200mm" xmlns="http://www.w3.org/2000/svg" xmlns:ev="http://www.w3.org/2001/xml-events" xmlns:xlink="http://www.w3.org/1999/xlink"><defs /><rect fill="#1a1a1a" height="200" width="200" x="0" y="0" /><text alignment-baseline="middle" fill="#e1ed5e" style="dominant-baseline: central; font-size:9.0px; font-family:Arial;" text-anchor="middle" x="100.0" y="100.0">2020</text><line stroke="#e1ed5e" stroke-width="0.3" x1="100.0" x2="100.0" y1="15.0" y2="10.0" /><path d="M 100.0 14.0 a86.0,86.0 0 0,1 42.35913384403234,11.155469271406648" fill="none" id="id1" stroke="none" /><text fill="#e1ed5e" style="font-size:6.75px; font-family:Arial;" text-anchor="middle"><textPath startOffset="22.145653131862478" xlink:href="#id1">January</textPath></text><line stroke="#e1ed5e" stroke-width="0.3" x1="143.13028292997686" x2="145.6673583964461" y1="26.7553504044142" y2="22.446841604673864" /><path d="M 143.63769802327073 25.89364864446614 a86.0,86.0 0 0,1 29.32050498858742,28.57503671076993" fill="none" id="id2" stroke="none" /><text fill="#e1ed5e" style="font-size:6.75px; font-family:Arial;" text-anchor="middle"><textPath startOffset="20.669276256404974" xlink:href="#id2">February</textPath></text><line stroke="#e1ed5e" stroke-width="0.3" x1="172.87174338648825" x2="177.1583165268699" y1="56.24261187166439" y2="53.66864786411523" /><path d="M 173.72905801456457 55.72781907015455 a86.0,86.0 0 0,1 12.242430191666344,42.057860355516425" fill="none" id="id3" stroke="none" /><text fill="#e1ed5e" style="font-size:6.75px; font-family:Arial;" text-anchor="middle"><textPath startOffset="22.145653131862474" xlink:href="#id3">March</textPath></text><line stroke="#e1ed5e" stroke-width="0.3" x1="184.99686870605535" x2="189.99668451229388" y1="99.2704041080226" y2="99.22748670261217" /><path d="M 185.99683186730306 99.26182062694052 a86.0,86.0 0 0,1 -10.086455211305974,41.156179273409016" fill="none" id="id4" stroke="none" /><text fill="#e1ed5e" style="font-size:6.75px; font-family:Arial;" text-anchor="middle"><textPath startOffset="21.40746469413373" xlink:href="#id4">April</textPath></text><line stroke="#e1ed5e" stroke-width="0.3" x1="174.33088141563837" x2="178.70328620479359" y1="141.23008692659167" y2="143.65538615756765" /><path d="M 175.20536237346943 141.71514677278685 a86.0,86.0 0 0,1 -30.301960400862466,31.631185727798858" fill="none" id="id5" stroke="none" /><text fill="#e1ed5e" style="font-size:6.75px; font-family:Arial;" text-anchor="middle"><textPath startOffset="22.145653131862474" xlink:href="#id5">May</textPath></text><line stroke="#e1ed5e" stroke-width="0.3" x1="143.1302829299769" x2="145.66735839644613" y1="173.24464959558577" y2="177.55315839532614" /><path d="M 143.63769802327073 174.10635135553383 a86.0,86.0 0 0,1 -40.68552437913181,11.842963189579606" fill="none" id="id6" stroke="none" /><text fill="#e1ed5e" style="font-size:6.75px; font-family:Arial;" text-anchor="middle"><textPath startOffset="21.407464694133747" xlink:href="#id6">June</textPath></text><line stroke="#e1ed5e" stroke-width="0.3" x1="101.45913802915013" x2="101.54496967792366" y1="184.9874750549273" y2="189.98673829345242" /><path d="M 101.47630435890484 185.9873277026323 a86.0,86.0 0 0,1 -42.54439059252881,-10.42667462771756" fill="none" id="id7" stroke="none" /><text fill="#e1ed5e" style="font-size:6.75px; font-family:Arial;" text-anchor="middle"><textPath startOffset="22.145653131862474" xlink:href="#id7">July</textPath></text><line stroke="#e1ed5e" stroke-width="0.3" x1="58.13341422392154" x2="55.67067388415222" y1="173.97424548756322" y2="178.32567169271397" /><path d="M 57.64086615596768 174.84453072859336 a86.0,86.0 0 0,1 -31.369924170532247,-30.572349798747897" fill="none" id="id8" stroke="none" /><text fill="#e1ed5e" style="font-size:6.75px; font-family:Arial;" text-anchor="middle"><textPath startOffset="22.145653131862474" xlink:href="#id8">August</textPath></text><path d="M 82.78059297857968 112.02048342749411 l -3.768216343694608 2.6305076623281605 a25.595544034655127,25.595544034655127 0 0,0 -0.2484111698122857,-0.362439320613876 l 3.812817250322219 -2.5654336066442336" fill="#ff0000" stroke="none" /><path d="M 82.37810715431573 111.42229804090323 l -12.41017678923004 8.044126659276628 a35.78920084556393,35.78920084556393 0 0,0 -0.3297417711649696,-0.5184088329237647 l 12.546436252020898 -7.8299041516741905" fill="#ff970d" stroke="none" /><path d="M 82.18462484594161 111.11811171558189 l -21.261158681567785 13.268535485795578 a46.06174180739682,46.06174180739682 0 0,0 -0.41287121053028053,-0.6743940939251565 l 21.48579785655347 -12.901604275745864" fill="#dfff1b" stroke="none" /><line stroke="#e1ed5e" stroke-width="0.3" x1="26.387840678322732" x2="22.057713659400548" y1="142.50000000000003" y2="145.00000000000006" /><path d="M 25.521815274538298 143.00000000000003 a86.0,86.0 0 0,1 -11.493303480769221,-40.785679425670985" fill="none" id="id9" stroke="none" /><text fill="#e1ed5e" style="font-size:6.75px; font-family:Arial;" text-anchor="middle"><textPath startOffset="21.40746469413373" xlink:href="#id9">September</textPath></text><path d="M 81.81346652052679 110.50000000000001 l -12.70407246201625 7.334699655749602 a35.66939931149919,35.66939931149919 0 0,0 -0.3016045336881751,-0.5329063118387584 l 12.828110360725804 -7.115536573811722" fill="#ff950d" stroke="none" /><path d="M 81.4637452351635 109.86951160357371 l -19.464347400316612 10.363668656941295 a43.05145001470605,43.05145001470605 0 0,0 -0.34172996839903813,-0.655312273190452 l 19.6393854376906 -10.028010140646339" fill="#fff917" stroke="none" /><path d="M 81.1358732173502 109.22738970284198 l -22.319169402807898 10.917424182754889 a45.846236608738906,45.846236608738906 0 0,0 -0.33974406479987607,-0.7099344272631907 l 22.503292725567686 -10.532677253426593" fill="#e2ff1b" stroke="none" /><path d="M 80.68587082218212 108.24405325689762 l -10.337663211350694 4.412533709473464 a32.24000597902658,32.24000597902658 0 0,0 -0.21289788577524607,-0.5108774231066077 l 10.411886941662427 -4.234423776925575" fill="#ff6409" stroke="none" /><path d="M 80.41425534168474 107.57618678355246 l -19.690100065992265 7.616553697051412 a42.111890745000935,42.111890745000935 0 0,0 -0.25501620711061673,-0.6764607871089255 l 19.817946956917318 -7.277424629748341" fill="#ffec16" stroke="none" /><path d="M 80.16572619554312 106.89939002012753 l -16.8743922679897 5.869789575221267 a38.86615638774515,38.86615638774515 0 0,0 -0.2137908414396583,-0.6320346345733493 l 16.972668531001727 -5.5792532661737555" fill="#ffc111" stroke="none" /><path d="M 80.05021161711548 106.5578916946017 l -18.83014306044774 6.189842038134802 a40.821413474674024,40.821413474674024 0 0,0 -0.21311748898428978,-0.6675874988424069 l 18.933625265209283 -5.865685505601003" fill="#ffdb14" stroke="none" /><path d="M 79.83685265289637 105.86919833188381 l -14.510013077281272 4.223653335600144 a36.11223765701823,36.11223765701823 0 0,0 -0.16814805012688366,-0.5966981103389131 l 14.58037961948273 -3.973947301358235" fill="#ff9b0e" stroke="none" /><path d="M 79.64726062577567 105.17358676015961 l -29.2025602967271 7.423176631704292 a51.13126414854615,51.13126414854615 0 0,0 -0.20893810709216704,-0.8525387772399111 l 29.32568593033556 -6.920782029856281" fill="#a2ff22" stroke="none" /><path d="M 79.48165901384964 104.47187691870673 l -16.403019867464053 3.5749618349705923 a37.78807353134709,37.78807353134709 0 0,0 -0.13269424027327084,-0.6349899755633173 l 16.46197181856169 -3.2928554081218655" fill="#ffb210" stroke="none" /><path d="M 79.407916724674 104.11899336999214 l -18.218926367088333 3.6442955242091104 a39.579832287648806,39.579832287648806 0 0,0 -0.12754828579788544,-0.6673865280699067 l 18.278800945168374 -3.331006431105889" fill="#ffcb12" stroke="none" /><path d="M 79.17382384314188 102.69636545807758 l -18.986967605840594 2.458243088910378 a40.14544065696624,40.14544065696624 0 0,0 -0.08261915197050725,-0.6842050978011743 l 19.026368844070763 -2.1319443141858043" fill="#ffd213" stroke="none" /><path d="M 79.0935383218832 101.97986365728391 l -23.165320869241754 2.193779971210492 a44.268965631007575,44.268965631007575 0 0,0 -0.06515206450346026,-0.7571657480527675 l 23.199566556442953 -1.7957931757820624" fill="#f6ff19" stroke="none" /><path d="M 79.01933749520258 100.90099992219065 l -23.084044971698923 0.9913282156171358 a44.105321116281786,44.105321116281786 0 0,0 -0.025991293043738598,-0.7567081379801984 l 23.09766095173951 -0.5949138130728175" fill="#f8ff18" stroke="none" /><line stroke="#e1ed5e" stroke-width="0.3" x1="15.003131293944662" x2="10.003315487706104" y1="100.72959589197737" y2="100.7725132973878" /><path d="M 14.003168132696942 100.73817937305945 a86.0,86.0 0 0,1 10.791469493833604,-42.45332614584628" fill="none" id="id10" stroke="none" /><text fill="#e1ed5e" style="font-size:6.75px; font-family:Arial;" text-anchor="middle"><textPath startOffset="22.145653131862435" xlink:href="#id10">October</textPath></text><path d="M 79.0935383218832 98.0201363427161 l -16.524612915847705 -1.5648980237060421 a37.59854625692262,37.59854625692262 0 0,0 0.06636610266245803,-0.6420318407842461 l 16.495314420703583 1.8483343867732012" fill="#ffb010" stroke="none" /><path d="M 79.22317932658666 96.9465228501225 l -24.58491827290674 -3.6131363579600753 a45.84900321595852,45.84900321595852 0 0,0 0.12112544216043582,-0.777712228199399 l 24.519271338608036 4.034636768090924" fill="#e2ff1b" stroke="none" /><path d="M 79.2786578344484 96.59031103205396 l -23.69581167629484 -3.89913679402044 a45.014469778383926,45.014469778383926 0 0,0 0.1320106827043846,-0.7614025373651141 l 23.62538617609822 4.305332364306147" fill="#ecff1a" stroke="none" /><path d="M 79.48165901384962 95.52812308129327 l -28.65610050907625 -6.245463730872561 a50.32878984206346,50.32878984206346 0 0,0 0.19122337049255947,-0.8425654534699389 l 28.544666277026028 6.736463518281507" fill="#abff21" stroke="none" /><path d="M 79.73907114497095 94.47779374421319 l -14.78854376094727 -4.030683363779223 a36.327995137933044,36.327995137933044 0 0,0 0.16915267354734975,-0.6002631644453634 l 14.717172595325339 4.283954452127601" fill="#ff9e0e" stroke="none" /><path d="M 79.83685265289637 94.1308016681162 l -37.80919578294406 -11.005705855291472 a60.378431242574806,60.378431242574806 0 0,0 0.298222527661318,-0.9926858029640052 l 37.614696935279106 11.653129261846201" fill="#3bff2e" stroke="none" /><path d="M 80.68587082218212 91.75594674310238 l -19.704276892178097 -8.410584116540845 a42.424202506161876,42.424202506161876 0 0,0 0.2916484487781053,-0.6673487260616665 l 19.55699456138301 8.747594912378378" fill="#fff016" stroke="none" /><path d="M 80.83023694016515 91.42560881287825 l -18.39430077437077 -8.227536770315726 a41.1505002986257,41.1505002986257 0 0,0 0.2939625868467092,-0.6423613040603791 l 18.250353722669015 8.542087056590777" fill="#ffe015" stroke="none" /><path d="M 81.1358732173502 90.77261029715801 l -13.176515147470786 -6.445293842222289 a35.66841382509082,35.66841382509082 0 0,0 0.2737637159965509,-0.5477108190361691 l 13.06393151826249 6.670536517422228" fill="#ff950d" stroke="none" /><path d="M 81.29705330413844 90.45014215332179 l -18.15769395681989 -9.27144791304396 a41.38778056174386,41.38778056174386 0 0,0 0.32852424107993,-0.6299885498156442 l 17.995861646765018 9.581782705964091" fill="#ffe315" stroke="none" /><path d="M 81.63589988554816 89.8137432299009 l -42.43466922839105 -23.537795700343093 a69.52554975426912,69.52554975426912 0 0,0 0.5878770435669026,-1.0387224066923693 l 42.02435881980278 24.262774877134568" fill="#3aff92" stroke="none" /><line stroke="#e1ed5e" stroke-width="0.3" x1="26.387840678322718" x2="22.05771365940052" y1="57.49999999999999" y2="54.99999999999999" /><path d="M 25.521815274538284 56.99999999999999 a86.0,86.0 0 0,1 29.574782752854787,-30.34633250058573" fill="none" id="id11" stroke="none" /><text fill="#e1ed5e" style="font-size:6.75px; font-family:Arial;" text-anchor="middle"><textPath startOffset="21.40746469413373" xlink:href="#id11">November</textPath></text><path d="M 82.18462484594161 88.88188828441811 l -10.656409071383589 -6.650387405150609 a33.56131788210347,33.56131788210347 0 0,0 0.309215297900318,-0.4861378075951443 l 10.54067608185738 6.8323388874244255" fill="#ff770b" stroke="none" /><path d="M 82.576782715395 88.27688183743585 l -13.960687623470912 -9.393373678764107 a37.82665349940481,37.82665349940481 0 0,0 0.3671171526242687,-0.5356348971078339 l 13.79738073403133 9.631643310941975" fill="#ffb310" stroke="none" /><path d="M 83.2033758604659 87.39550010848427 l -50.389872418602316 -37.8134996745472 a84.0,84.0 0 0,0 0.875392090582773,-1.1459163470364628 l 49.73332835066524 38.672936934824556" fill="#4dd2ff" stroke="none" /><path d="M 83.8745106332314 86.54754324733833 l -11.552626783943792 -9.6376121465756 a36.04482480778414,36.04482480778414 0 0,0 0.4004501707185555,-0.4717292941888264 l 11.385482049718123 9.834508223213984" fill="#ff9a0e" stroke="none" /><path d="M 85.60350026404147 84.71141617570332 l -13.038893914129464 -13.846853487891062 a40.01967681163492,40.01967681163492 0 0,0 0.504191192666473,-0.4666718407946412 l 12.799272950149037 14.068643074818068" fill="#ffd113" stroke="none" /><path d="M 86.96720088162412 83.53348406188908 l -9.9507881388692 -12.572495746859486 a37.033896403852054,37.033896403852054 0 0,0 0.5018799346640415,-0.3902648727884056 l 9.733498259569913 12.741461671268697" fill="#ffa80f" stroke="none" /><path d="M 88.72937992617638 82.28071324371311 l -15.091677624299821 -23.726623886425212 a49.119591294392514,49.119591294392514 0 0,0 0.7153587141435462,-0.4464367453273167 l 14.682154781366576 23.982196428594065" fill="#baff1f" stroke="none" /><line stroke="#e1ed5e" stroke-width="0.3" x1="56.869717070023135" x2="54.33264160355391" y1="26.7553504044142" y2="22.446841604673864" /><path d="M 56.362301976729285 25.89364864446614 a86.0,86.0 0 0,1 42.16139366436587,-11.88097634709845" fill="none" id="id12" stroke="none" /><text fill="#e1ed5e" style="font-size:6.75px; font-family:Arial;" text-anchor="middle"><textPath startOffset="22.145653131862474" xlink:href="#id12">December</textPath></text><path d="M 90.61103034731259 81.2157712731953 l -6.861687008326895 -13.727970478556621 a36.347309929116705,36.347309929116705 0 0,0 0.5605097041638122,-0.27417338380598427 l 6.625017054901029 13.843737612459819" fill="#ff9e0e" stroke="none" /><path d="M 91.5904679813234 80.7573450057729 l -12.031878942075085 -27.531293643982348 a51.04560268305385,51.04560268305385 0 0,0 0.8059491150707994,-0.34401175252695565 l 11.557494751833856 27.733780046168707" fill="#a3ff22" stroke="none" /><path d="M 92.93061703081487 80.22567764915836 l -8.258296371052445 -23.099924734845754 a45.531734176524836,45.531734176524836 0 0,0 0.7382520321851388,-0.2568023792256235 l 7.860538566822302 23.238285546639965" fill="#e6ff1a" stroke="none" /><path d="M 95.00130118170881 79.60360301121753 l -7.4308778047207795 -30.320517236529458 a52.21781078870477,52.21781078870477 0 0,0 0.8724548003738068,-0.205896957316959 l 6.909290850607066 30.443610337492647" fill="#95ff23" stroke="none" /></svg>