<?xml version="1.0" encoding="utf-8" ?>
<svg baseProfile="full" height="200mm" version="1.1" viewBox="0,0,200,200" width="200mm" xmlns="http://www.w3.org/2000/svg" xmlns:ev="http://www.w3.org/2001/xml-events" xmlns:xlink="http://www.w3.org/1999/xlink"><defs /><rect fill="#1a1a1a" height="200" width="200" x="0" y="0" /><text alignment-baseline="middle" fill="#e1ed5e" style="dominant-baseline: central; font-size:9.0px; font-family:Arial;" text-anchor="middle" x="100.0" y="100.0">2021</text><line stroke="#e1ed5e" stroke-width="0.3" x1="100.0" x2="100.0" y1="15.0" y2="10.0" /><path d="M 100.0 14.0 a86.0,86.0 0 0,1 42.46469731375804,11.215312516191453" fill="none" id="id13" stroke="none" /><text fill="#e1ed5e" style="font-size:6.75px; font-family:Arial;" text-anchor="middle"><textPath startOffset="22.20632615414155" xlink:href="#id13">January</textPath></text><path d="M 102.16513564639614 79.11191278185805 l 1.4712584690154253 -14.193926035247367 a35.26997329278239,35.26997329278239 0 0,0 0.6033404177661984,0.06779232586097785 l -1.7153655902913492 14.166497755915788" fill="#ff870c" stroke="none" /><path d="M 108.43124777332544 80.76684994638697 l 6.988756713628172 -15.942575781803901 a38.40713770155344,38.40713770155344 0 0,0 0.60320765678481,0.27064169251818804 l -7.262146488879763 15.81991375876918" fill="#ffb310" stroke="none" /><line stroke="#e1ed5e" stroke-width="0.3" x1="143.23703022742887" x2="145.7803849466894" y1="26.81831364943548" y2="22.513508569990506" /><path d="M 143.74570117128098 25.957352633546492 a86.0,86.0 0 0,1 28.547481713284135,27.462654790039103" fill="none" id="id14" stroke="none" /><text fill="#e1ed5e" style="font-size:6.75px; font-family:Arial;" text-anchor="middle"><textPath startOffset="19.985693538727396" xlink:href="#id14">February</textPath></text><path d="M 113.6212207817346 84.01681056812373 l 3.4397912985411776 -4.036263475328674 a26.303167640174305,26.303167640174305 0 0,0 0.3420741998935886,0.2966433752925796 l -3.50875929708153 3.9764551066164233" fill="#ff0000" stroke="none" /><path d="M 113.89432698308785 84.25364557470407 l 9.951878093901046 -11.27840159905885 a36.04135034581406,36.04135034581406 0 0,0 0.4616536778679737,0.41447723018129146 l -10.14454275936501 11.10542536010826" fill="#ff920d" stroke="none" /><line stroke="#e1ed5e" stroke-width="0.3" x1="172.23445277983987" x2="176.4835382374775" y1="55.19839476539836" y2="52.563006222186495" /><path d="M 173.08426987136738 54.67131705675599 a86.0,86.0 0 0,1 12.851231095245387,41.99856678651699" fill="none" id="id15" stroke="none" /><text fill="#e1ed5e" style="font-size:6.75px; font-family:Arial;" text-anchor="middle"><textPath startOffset="22.20632615414155" xlink:href="#id15">March</textPath></text><path d="M 118.03404312379186 89.2402003453031 l 14.235812113613349 -8.493629809629743 a37.57709545961329,37.57709545961329 0 0,0 0.32663501131701883,0.5583251146353482 l -14.379906799400695 8.2473252826405" fill="#ffa80f" stroke="none" /><path d="M 118.3937258080291 89.86733742301442 l 23.70925024892321 -13.06085755724289 a48.06870051363113,48.06870051363113 0 0,0 0.39300031234684213,0.7281698923753748 l -23.93055866048852 12.650806681535057" fill="#ccff1d" stroke="none" /><path d="M 118.89224826269711 90.83032412892265 l 27.516631402442275 -13.35566775937986 a51.586579819208474,51.586579819208474 0 0,0 0.3808607861284044,0.8021899471965319 l -27.742450382412436 12.88003539654279" fill="#a1ff22" stroke="none" /><path d="M 119.47837535516314 92.15188598940014 l 16.721856836712725 -6.737473558782385 a39.0281459396913,39.0281459396913 0 0,0 0.24570345854216732,0.6252885018324614 l -16.835353845136595 6.448636052054139" fill="#ffbc11" stroke="none" /><path d="M 119.85752413597 93.16781622104841 l 58.44035582988573 -20.107000671541684 a82.80264286848126,82.80264286848126 0 0,0 0.4521131006737955,1.35176062497301 l -58.7778062243313 19.09806694364636" fill="#4bdeff" stroke="none" /><path d="M 120.37134235888165 94.90015583598534 l 15.323787188363985 -3.8362188061263693 a36.796677768529236,36.796677768529236 0 0,0 0.14853101591158013,0.6157569520824372 l -15.387551004536384 3.5718766223845257" fill="#ff9d0e" stroke="none" /><path d="M 120.53481517161879 95.60439243477599 l 43.622537710426826 -9.337681161076961 a65.6107395787555,65.6107395787555 0 0,0 0.22689038589271446,1.106398100093336 l -43.77680739223454 8.585407404820213" fill="#34ff60" stroke="none" /><path d="M 120.73433829027371 96.67025291283417 l 18.467442925403905 -2.9657042065871067 a39.704059710234546,39.704059710234546 0 0,0 0.1025576783721125,0.6757269610512189 l -18.515756497215317 2.647378133143806" fill="#ffc512" stroke="none" /><path d="M 120.83666639777658 97.38593545837742 l 10.515668677541703 -1.3192434958955899 a31.598098467993893,31.598098467993893 0 0,0 0.06306024535959343,0.5402616719981469 l -10.536819275904886 1.1380380855725902" fill="#ff5107" stroke="none" /><path d="M 120.98425023603335 99.18683210126433 l 15.928320317812334 -0.6172438194137975 a36.94027534515755,36.94027534515755 0 0,0 0.019153190707175093,0.6356011545021771 l -15.936585202975154 0.3429725174866212" fill="#ff9f0e" stroke="none" /><line stroke="#e1ed5e" stroke-width="0.3" x1="184.98032266829074" x2="189.97916517819016" y1="98.17113171792111" y2="98.06355123074" /><path d="M 185.9800911702706 98.14961562048488 a86.0,86.0 0 0,1 -9.607161424134198,41.387399972396054" fill="none" id="id16" stroke="none" /><text fill="#e1ed5e" style="font-size:6.75px; font-family:Arial;" text-anchor="middle"><textPath startOffset="21.466115282336823" xlink:href="#id16">April</textPath></text><path d="M 120.9904718944345 100.63252640178507 l 20.38278754375746 0.6142144554082591 a41.39203980604164,41.39203980604164 0 0,0 -0.027590489248699043,0.7119879319259144 l -20.369194921657556 -0.9649796343481797" fill="#ffdc14" stroke="none" /><path d="M 120.95626037817324 101.35467743843564 l 21.962186006522916 1.419703579974177 a43.00802518264877,43.00802518264877 0 0,0 -0.0541152395417337,0.7383594487889658 l -21.934494208316845 -1.797536165259913" fill="#fff116" stroke="none" /><path d="M 120.89721153311464 102.0752229133903 l 10.756787629089104 1.0682158299917401 a31.80969773660528,31.80969773660528 0 0,0 -0.058799012194391244,0.5444058269651887 l -10.73680631539366 -1.2532179788417201" fill="#ff5407" stroke="none" /><path d="M 120.81339534386255 102.79330883721812 l 61.228044468889266 8.2172483093185 a82.77699085631542,82.77699085631542 0 0,0 -0.20168396624540438,1.4105771901794633 l -61.077526451627264 -9.269970971478372" fill="#4bdeff" stroke="none" /><path d="M 120.64145759157962 103.86396538481128 l 14.479207690632611 2.710426677373816 a35.73071173168134,35.73071173168134 0 0,0 -0.11837085761906167,0.6035704528050616 l -14.430406900037886 -2.9592608572468224" fill="#ff8d0d" stroke="none" /><path d="M 120.49622156327973 104.57218783832717 l 11.429025520873507 2.5495260835825437 a32.70994054671695,32.70994054671695 0 0,0 -0.12731866803494796,0.5484854896554312 l -11.383446286908006 -2.7458802305865397" fill="#ff6209" stroke="none" /><path d="M 120.32669344350535 105.2749913415812 l 60.980080330516046 15.82497402474362 a84.0,84.0 0 0,0 -0.3752476946328911,1.396436267297807 l -60.69864455954138 -16.872301225216972" fill="#4dd2ff" stroke="none" /><path d="M 119.79798401119884 107.00284435728193 l 14.399802764922889 5.09342655703088 a36.2740732537378,36.2740732537378 0 0,0 -0.21328419054075304,0.5868664904532569 l -14.30999431337691 -5.340540844490268" fill="#ff950d" stroke="none" /><line stroke="#e1ed5e" stroke-width="0.3" x1="174.80103733775053" x2="179.2010983576182" y1="140.37084112569926" y2="142.7455964860345" /><path d="M 175.68104954172406 140.8457921977663 a86.0,86.0 0 0,1 -30.038265399797805,32.042727171017184" fill="none" id="id17" stroke="none" /><text fill="#e1ed5e" style="font-size:6.75px; font-family:Arial;" text-anchor="middle"><textPath startOffset="22.206326154141568" xlink:href="#id17">May</textPath></text><path d="M 117.35343817320211 111.8261652097733 l 15.886930650325796 10.826757480088197 a40.22532816419285,40.22532816419285 0 0,0 -0.39485774556533754,0.5688220323691259 l -15.698211997598323 -11.098620774644342" fill="#ffcc13" stroke="none" /><path d="M 116.93607887273984 112.41649034213515 l 25.11741838279345 18.414544778207542 a52.14450458114402,52.14450458114402 0 0,0 -0.536936267592312,0.7193138753107117 l -24.796720848506045 -18.844171533027566" fill="#9aff22" stroke="none" /><path d="M 116.498646956653 112.99209946851258 l 12.208268485253884 9.613578550740892 a36.53907049856292,36.53907049856292 0 0,0 -0.39337282618523783,0.4907930845031755 l -12.040977747013793 -9.822299468822317" fill="#ff990e" stroke="none" /><path d="M 116.27256486870786 113.27417163493432 l 11.51738873560653 9.39518730428882 a35.86337067322705,35.86337067322705 0 0,0 -0.3943331307499387,0.4749996587959164 l -11.353959604963048 -9.592048220198507" fill="#ff8f0d" stroke="none" /><path d="M 115.80600337817218 113.82643327865902 l 22.213488307956617 19.431434160034435 a50.51304281709154,50.51304281709154 0 0,0 -0.5781125151629772,0.6495155393143002 l -21.8757169431453 -19.8109238690896" fill="#aeff20" stroke="none" /><line stroke="#e1ed5e" stroke-width="0.3" x1="143.8653032363475" x2="146.44561519142675" y1="172.8068346515853" y2="177.08958963109032" /><path d="M 144.38136562736335 173.6633856474863 a86.0,86.0 0 0,1 -40.68145358897372,12.25698825130547" fill="none" id="id18" stroke="none" /><text fill="#e1ed5e" style="font-size:6.75px; font-family:Arial;" text-anchor="middle"><textPath startOffset="21.466115282336833" xlink:href="#id18">June</textPath></text><line stroke="#e1ed5e" stroke-width="0.3" x1="102.19456741930631" x2="102.32365962044197" y1="184.97166512339345" y2="189.96999836594603" /><path d="M 102.22038585953345 185.97133177190398 a86.0,86.0 0 0,1 -42.740103519485714,-10.115201625700543" fill="none" id="id19" stroke="none" /><text fill="#e1ed5e" style="font-size:6.75px; font-family:Arial;" text-anchor="middle"><textPath startOffset="22.20632615414155" xlink:href="#id19">July</textPath></text><line stroke="#e1ed5e" stroke-width="0.3" x1="58.666819895761336" x2="56.23545636021788" y1="174.27360380694188" y2="178.64263932499728" /><path d="M 58.180547188652646 175.14741091055294 a86.0,86.0 0 0,1 -31.652253787137756,-30.449443065178592" fill="none" id="id20" stroke="none" /><text fill="#e1ed5e" style="font-size:6.75px; font-family:Arial;" text-anchor="middle"><textPath startOffset="22.20632615414155" xlink:href="#id20">August</textPath></text><line stroke="#e1ed5e" stroke-width="0.3" x1="26.63291911575756" x2="22.317208475507996" y1="142.92168965132927" y2="145.44649492493687" /><path d="M 25.769776987707644 143.4266507060508 a86.0,86.0 0 0,1 -11.730757126820373,-40.83630448921669" fill="none" id="id21" stroke="none" /><text fill="#e1ed5e" style="font-size:6.75px; font-family:Arial;" text-anchor="middle"><textPath startOffset="21.46611528233685" xlink:href="#id21">September</textPath></text><line stroke="#e1ed5e" stroke-width="0.3" x1="15.007084014347285" x2="10.007500721073583" y1="101.09737516637583" y2="101.16192664675087" /><path d="M 14.007167355692545 101.11028546245083 a86.0,86.0 0 0,1 10.666146001902534,-42.60595125391555" fill="none" id="id22" stroke="none" /><text fill="#e1ed5e" style="font-size:6.75px; font-family:Arial;" text-anchor="middle"><textPath startOffset="22.20632615414155" xlink:href="#id22">October</textPath></text><line stroke="#e1ed5e" stroke-width="0.3" x1="26.266209847984243" x2="21.928928074336255" y1="57.711370442889674" y2="55.22380399835377" /><path d="M 25.398753493254645 57.213857153982495 a86.0,86.0 0 0,1 29.58750427330803,-30.492523968695096" fill="none" id="id23" stroke="none" /><text fill="#e1ed5e" style="font-size:6.75px; font-family:Arial;" text-anchor="middle"><textPath startOffset="21.46611528233685" xlink:href="#id23">November</textPath></text><line stroke="#e1ed5e" stroke-width="0.3" x1="56.762969772571076" x2="54.21961505331055" y1="26.818313649435495" y2="22.513508569990535" /><path d="M 56.25429882871897 25.957352633546506 a86.0,86.0 0 0,1 42.265352541879196,-11.944610805530505" fill="none" id="id24" stroke="none" /><text fill="#e1ed5e" style="font-size:6.75px; font-family:Arial;" text-anchor="middle"><textPath startOffset="22.20632615414155" xlink:href="#id24">December</textPath></text></svg>