<?xml version="1.0" encoding="utf-8" ?>
<svg baseProfile="full" height="200mm" version="1.1" viewBox="0,0,200,200" width="200mm" xmlns="http://www.w3.org/2000/svg" xmlns:ev="http://www.w3.org/2001/xml-events" xmlns:xlink="http://www.w3.org/1999/xlink"><defs /><rect fill="#1a1a1a" height="200" width="200" x="0" y="0" /><text alignment-baseline="middle" fill="#e1ed5e" style="dominant-baseline: central; font-size:9.0px; font-family:Arial;" text-anchor="middle" x="100.0" y="100.0">2021</text><line stroke="#e1ed5e" stroke-width="0.3" x1="100.0" x2="100.0" y1="15.0" y2="10.0" /><path d="M 100.0 14.0 a86.0,86.0 0 0,1 42.46469731375804,11.215312516191453" fill="none" id="id13" stroke="none" /><text fill="#e1ed5e" style="font-size:6.75px; font-family:Arial;" text-anchor="middle"><textPath startOffset="22.20632615414155" xlink:href="#id13">January</textPath></text><path d="M 102.16513564639614 79.11191278185805 l 1.499762457492614 -14.468917488262083 a35.54643807641722,35.54643807641722 0 0,0 0.6080697204132751,0.06832371811766244 l -1.7485988814156144 14.44095781667382" fill="#ff8a0c" stroke="none" /><path d="M 108.43124777332544 80.76684994638697 l 7.1241560639329755 -16.251445369270296 a38.74438153933943,38.74438153933943 0 0,0 0.6085042781247485,0.2730181321206122 l -7.4028424605245045 16.126406906633154" fill="#ffb710" stroke="none" /><line stroke="#e1ed5e" stroke-width="0.3" x1="143.23703022742887" x2="145.7803849466894" y1="26.81831364943548" y2="22.513508569990506" /><path d="M 143.74570117128098 25.957352633546492 a86.0,86.0 0 0,1 28.547481713284135,27.462654790039103" fill="none" id="id14" stroke="none" /><text fill="#e1ed5e" style="font-size:6.75px; font-family:Arial;" text-anchor="middle"><textPath startOffset="19.985693538727396" xlink:href="#id14">February</textPath></text><path d="M 113.6212207817346 84.01681056812373 l 3.506433410449064 -4.114461569011464 a26.405910586088687,26.405910586088687 0 0,0 0.34341037778285133,0.2978020955912327 l -3.5767375868786795 4.053494480000561" fill="#ff0000" stroke="none" /><path d="M 113.89432698308785 84.25364557470407 l 10.144684609199997 -11.496908024674061 a36.332759697717634,36.332759697717634 0 0,0 0.4653863404286325,0.41782845148313 l -10.34108193722462 11.320580564421634" fill="#ff950d" stroke="none" /><line stroke="#e1ed5e" stroke-width="0.3" x1="172.23445277983987" x2="176.4835382374775" y1="55.19839476539836" y2="52.563006222186495" /><path d="M 173.08426987136738 54.67131705675599 a86.0,86.0 0 0,1 12.851231095245387,41.99856678651699" fill="none" id="id15" stroke="none" /><text fill="#e1ed5e" style="font-size:6.75px; font-family:Arial;" text-anchor="middle"><textPath startOffset="22.20632615414155" xlink:href="#id15">March</textPath></text><path d="M 118.03404312379186 89.2402003453031 l 14.511615062582203 -8.658184394240024 a37.8982581566629,37.8982581566629 0 0,0 0.3294266848059438,0.563096989562178 l -14.658501421858473 8.407107992323951" fill="#ffab0f" stroke="none" /><path d="M 118.3937258080291 89.86733742301442 l 24.168590473724322 -13.313897074876381 a48.5931263326032,48.5931263326032 0 0,0 0.3972879154743768,0.736114169796635 l -24.394186488417166 12.895901921747287" fill="#c6ff1e" stroke="none" /><path d="M 118.89224826269711 90.83032412892265 l 28.049735381752676 -13.614418895183537 a52.179160617949265,52.179160617949265 0 0,0 0.3852357764775219,0.8114047926334172 l -28.279929352071953 13.129571686909578" fill="#9bff22" stroke="none" /><path d="M 119.47837535516314 92.15188598940014 l 17.04582412365029 -6.868004578810027 a39.37742111801799,39.37742111801799 0 0,0 0.24790233622983437,0.6308844057045194 l -17.161520009761826 6.573571168209723" fill="#ffbf11" stroke="none" /><path d="M 119.85752413597 93.16781622104841 l 59.57257240790998 -20.496551336854747 a84.0,84.0 0 0,0 0.45865082491291975,1.371307588310744 l -59.91656052659467 19.46807064562169" fill="#4dd2ff" stroke="none" /><path d="M 120.37134235888165 94.90015583598534 l 15.6206684384249 -3.9105412579243692 a37.10272074505214,37.10272074505214 0 0,0 0.14976636858394635,0.620878286448964 l -15.685667607269666 3.641077739815999" fill="#ffa00e" stroke="none" /><path d="M 120.53481517161879 95.60439243477599 l 44.46767562360113 -9.518588297262973 a66.47502279865951,66.47502279865951 0 0,0 0.2298791885573946,1.1209725633379781 l -44.624934108073525 8.751740077761584" fill="#36ff6b" stroke="none" /><path d="M 120.73433829027371 96.67025291283417 l 18.82522899184613 -3.0231614109543847 a40.06642996242684,40.06642996242684 0 0,0 0.10349369982803377,0.6818941729453251 l -18.874478585113465 2.6986681256169773" fill="#ffc912" stroke="none" /><path d="M 120.83666639777658 97.38593545837742 l 10.719398005275098 -1.344802364168938 a31.803424780789197,31.803424780789197 0 0,0 0.06347001456379943,0.5437723242979481 l -10.740958372842485 1.1600863015461371" fill="#ff5307" stroke="none" /><path d="M 120.98425023603335 99.18683210126433 l 16.236913721596586 -0.6292022285490463 a37.24910036423502,37.24910036423502 0 0,0 0.019313313619911128,0.640914854436212 l -16.245338729672145 0.3496172266878352" fill="#ffa20e" stroke="none" /><line stroke="#e1ed5e" stroke-width="0.3" x1="184.98032266829074" x2="189.97916517819016" y1="98.17113171792111" y2="98.06355123074" /><path d="M 185.9800911702706 98.14961562048488 a86.0,86.0 0 0,1 -9.607161424134198,41.387399972396054" fill="none" id="id16" stroke="none" /><text fill="#e1ed5e" style="font-size:6.75px; font-family:Arial;" text-anchor="middle"><textPath startOffset="21.466115282336823" xlink:href="#id16">April</textPath></text><path d="M 120.9904718944345 100.63252640178507 l 20.77768127148501 0.6261141740016858 a41.787112786010105,41.787112786010105 0 0,0 -0.02785383111001704,0.7187836152332758 l -20.763825307523792 -0.9836750362489678" fill="#ffe015" stroke="none" /><path d="M 120.95626037817324 101.35467743843564 l 22.38767881424332 1.4472087500967916 a43.43440607317421,43.43440607317421 0 0,0 -0.05465173718208829,0.7456795328422443 l -22.35945051839689 -1.8323614194358062" fill="#fff617" stroke="none" /><line stroke="#e1ed5e" stroke-width="0.3" x1="174.80103733775053" x2="179.2010983576182" y1="140.37084112569926" y2="142.7455964860345" /><path d="M 175.68104954172406 140.8457921977663 a86.0,86.0 0 0,1 -30.038265399797805,32.042727171017184" fill="none" id="id17" stroke="none" /><text fill="#e1ed5e" style="font-size:6.75px; font-family:Arial;" text-anchor="middle"><textPath startOffset="22.206326154141568" xlink:href="#id17">May</textPath></text><line stroke="#e1ed5e" stroke-width="0.3" x1="143.8653032363475" x2="146.44561519142675" y1="172.8068346515853" y2="177.08958963109032" /><path d="M 144.38136562736335 173.6633856474863 a86.0,86.0 0 0,1 -40.68145358897372,12.25698825130547" fill="none" id="id18" stroke="none" /><text fill="#e1ed5e" style="font-size:6.75px; font-family:Arial;" text-anchor="middle"><textPath startOffset="21.466115282336833" xlink:href="#id18">June</textPath></text><line stroke="#e1ed5e" stroke-width="0.3" x1="102.19456741930631" x2="102.32365962044197" y1="184.97166512339345" y2="189.96999836594603" /><path d="M 102.22038585953345 185.97133177190398 a86.0,86.0 0 0,1 -42.740103519485714,-10.115201625700543" fill="none" id="id19" stroke="none" /><text fill="#e1ed5e" style="font-size:6.75px; font-family:Arial;" text-anchor="middle"><textPath startOffset="22.20632615414155" xlink:href="#id19">July</textPath></text><line stroke="#e1ed5e" stroke-width="0.3" x1="58.666819895761336" x2="56.23545636021788" y1="174.27360380694188" y2="178.64263932499728" /><path d="M 58.180547188652646 175.14741091055294 a86.0,86.0 0 0,1 -31.652253787137756,-30.449443065178592" fill="none" id="id20" stroke="none" /><text fill="#e1ed5e" style="font-size:6.75px; font-family:Arial;" text-anchor="middle"><textPath startOffset="22.20632615414155" xlink:href="#id20">August</textPath></text><line stroke="#e1ed5e" stroke-width="0.3" x1="26.63291911575756" x2="22.317208475507996" y1="142.92168965132927" y2="145.44649492493687" /><path d="M 25.769776987707644 143.4266507060508 a86.0,86.0 0 0,1 -11.730757126820373,-40.83630448921669" fill="none" id="id21" stroke="none" /><text fill="#e1ed5e" style="font-size:6.75px; font-family:Arial;" text-anchor="middle"><textPath startOffset="21.46611528233685" xlink:href="#id21">September</textPath></text><line stroke="#e1ed5e" stroke-width="0.3" x1="15.007084014347285" x2="10.007500721073583" y1="101.09737516637583" y2="101.16192664675087" /><path d="M 14.007167355692545 101.11028546245083 a86.0,86.0 0 0,1 10.666146001902534,-42.60595125391555" fill="none" id="id22" stroke="none" /><text fill="#e1ed5e" style="font-size:6.75px; font-family:Arial;" text-anchor="middle"><textPath startOffset="22.20632615414155" xlink:href="#id22">October</textPath></text><line stroke="#e1ed5e" stroke-width="0.3" x1="26.266209847984243" x2="21.928928074336255" y1="57.711370442889674" y2="55.22380399835377" /><path d="M 25.398753493254645 57.213857153982495 a86.0,86.0 0 0,1 29.58750427330803,-30.492523968695096" fill="none" id="id23" stroke="none" /><text fill="#e1ed5e" style="font-size:6.75px; font-family:Arial;" text-anchor="middle"><textPath startOffset="21.46611528233685" xlink:href="#id23">November</textPath></text><line stroke="#e1ed5e" stroke-width="0.3" x1="56.762969772571076" x2="54.21961505331055" y1="26.818313649435495" y2="22.513508569990535" /><path d="M 56.25429882871897 25.957352633546506 a86.0,86.0 0 0,1 42.265352541879196,-11.944610805530505" fill="none" id="id24" stroke="none" /><text fill="#e1ed5e" style="font-size:6.75px; font-family:Arial;" text-anchor="middle"><textPath startOffset="22.20632615414155" xlink:href="#id24">December</textPath></text></svg>